RecursiveMonoVar-CasualBoldItalic.ufo
<glyph name="exclam" format="2">
  <advance width="600"/>
  <unicode hex="0021"/>
  <outline>
    <contour>
      <point x="357" y="281" type="line"/>
      <point x="388" y="349"/>
      <point x="426" y="451"/>
      <point x="443" y="519" type="curve"/>
      <point x="475" y="646" type="line" smooth="yes"/>
      <point x="486" y="691"/>
      <point x="442" y="710"/>
      <point x="377" y="710" type="curve" smooth="yes"/>
      <point x="355" y="710"/>
      <point x="337" y="709"/>
      <point x="316" y="704" type="curve"/>
      <point x="316" y="668"/>
      <point x="310" y="631"/>
      <point x="300" y="592" type="curve" smooth="yes"/>
      <point x="283" y="524" type="line"/>
      <point x="261" y="437"/>
      <point x="246" y="330"/>
      <point x="261" y="309" type="curve" smooth="yes"/>
      <point x="274" y="292"/>
      <point x="302" y="281"/>
      <point x="344" y="281" type="curve"/>
    </contour>
    <contour>
      <point x="329" y="-3" type="curve"/>
      <point x="360" y="123" type="line" smooth="yes"/>
      <point x="375" y="181"/>
      <point x="317" y="192"/>
      <point x="257" y="192" type="curve" smooth="yes"/>
      <point x="235" y="192"/>
      <point x="206" y="190"/>
      <point x="182" y="185" type="curve"/>
      <point x="151" y="59" type="line" smooth="yes"/>
      <point x="136" y="1"/>
      <point x="195" y="-10"/>
      <point x="254" y="-10" type="curve" smooth="yes"/>
      <point x="277" y="-10"/>
      <point x="305" y="-7"/>
    </contour>
  </outline>
</glyph>
<glyph name="numbersign" format="2">
  <advance width="600"/>
  <unicode hex="0023"/>
  <outline>
    <contour>
      <point x="288" y="715" type="curve"/>
      <point x="238" y="513"/>
      <point x="142" y="240"/>
      <point x="-28" y="-9" type="curve"/>
      <point x="-19" y="-16"/>
      <point x="-9" y="-20"/>
      <point x="16" y="-20" type="curve"/>
      <point x="51" y="-20"/>
      <point x="76" y="-13"/>
      <point x="90" y="9" type="curve" smooth="yes"/>
      <point x="254" y="258"/>
      <point x="340" y="495"/>
      <point x="388" y="688" type="curve" smooth="yes"/>
      <point x="394" y="711"/>
      <point x="371" y="720"/>
      <point x="333" y="720" type="curve" smooth="yes"/>
      <point x="319" y="720"/>
      <point x="303" y="719"/>
    </contour>
    <contour>
      <point x="512" y="715" type="curve"/>
      <point x="462" y="514"/>
      <point x="366" y="240"/>
      <point x="196" y="-9" type="curve"/>
      <point x="205" y="-16"/>
      <point x="215" y="-20"/>
      <point x="240" y="-20" type="curve"/>
      <point x="275" y="-20"/>
      <point x="300" y="-13"/>
      <point x="314" y="9" type="curve" smooth="yes"/>
      <point x="478" y="258"/>
      <point x="564" y="495"/>
      <point x="612" y="688" type="curve" smooth="yes"/>
      <point x="618" y="711"/>
      <point x="595" y="720"/>
      <point x="557" y="720" type="curve" smooth="yes"/>
      <point x="542" y="720"/>
      <point x="527" y="719"/>
    </contour>
    <contour>
      <point x="624" y="425" type="line"/>
      <point x="625" y="431"/>
      <point x="627" y="436"/>
      <point x="628" y="443" type="curve" smooth="yes"/>
      <point x="639" y="485"/>
      <point x="636" y="509"/>
      <point x="625" y="524" type="curve" smooth="yes"/>
      <point x="616" y="537"/>
      <point x="599" y="541"/>
      <point x="560" y="541" type="curve"/>
      <point x="121" y="541" type="line"/>
      <point x="113" y="524"/>
      <point x="106" y="504"/>
      <point x="102" y="488" type="curve" smooth="yes"/>
      <point x="90" y="441"/>
      <point x="101" y="425"/>
      <point x="150" y="425" type="curve"/>
    </contour>
    <contour>
      <point x="17" y="275" type="line"/>
      <point x="15" y="269"/>
      <point x="14" y="264"/>
      <point x="12" y="257" type="curve" smooth="yes"/>
      <point x="2" y="215"/>
      <point x="4" y="191"/>
      <point x="15" y="176" type="curve" smooth="yes"/>
      <point x="25" y="163"/>
      <point x="41" y="159"/>
      <point x="80" y="159" type="curve"/>
      <point x="520" y="159" type="line"/>
      <point x="528" y="176"/>
      <point x="535" y="196"/>
      <point x="539" y="212" type="curve" smooth="yes"/>
      <point x="551" y="258"/>
      <point x="540" y="275"/>
      <point x="490" y="275" type="curve"/>
    </contour>
  </outline>
</glyph>
<glyph name="percent" format="2">
  <advance width="600"/>
  <unicode hex="0025"/>
  <outline>
    <contour>
      <point x="221" y="663" type="curve"/>
      <point x="284" y="663"/>
      <point x="306" y="629"/>
      <point x="287" y="554" type="curve" smooth="yes"/>
      <point x="286" y="550" type="line" smooth="yes"/>
      <point x="272" y="493"/>
      <point x="240" y="464"/>
      <point x="190" y="464" type="curve" smooth="yes"/>
      <point x="164" y="464"/>
      <point x="151" y="471"/>
      <point x="138" y="497" type="curve"/>
      <point x="86" y="452"/>
      <point x="123" y="356"/>
      <point x="184" y="356" type="curve" smooth="yes"/>
      <point x="281" y="356"/>
      <point x="361" y="425"/>
      <point x="388" y="534" type="curve" smooth="yes"/>
      <point x="389" y="540" type="line" smooth="yes"/>
      <point x="414" y="640"/>
      <point x="368" y="710"/>
      <point x="280" y="710" type="curve" smooth="yes"/>
      <point x="252" y="710"/>
      <point x="228" y="690"/>
    </contour>
    <contour>
      <point x="234" y="412" type="curve"/>
      <point x="171" y="412"/>
      <point x="145" y="458"/>
      <point x="161" y="523" type="curve" smooth="yes"/>
      <point x="162" y="527" type="line" smooth="yes"/>
      <point x="177" y="587"/>
      <point x="217" y="628"/>
      <point x="261" y="628" type="curve" smooth="yes"/>
      <point x="297" y="628"/>
      <point x="312" y="622"/>
      <point x="335" y="596" type="curve"/>
      <point x="379" y="633"/>
      <point x="341" y="710"/>
      <point x="280" y="710" type="curve" smooth="yes"/>
      <point x="186" y="710"/>
      <point x="105" y="637"/>
      <point x="78" y="529" type="curve" smooth="yes"/>
      <point x="76" y="523" type="line" smooth="yes"/>
      <point x="50" y="420"/>
      <point x="91" y="356"/>
      <point x="184" y="356" type="curve" smooth="yes"/>
      <point x="213" y="356"/>
      <point x="226" y="379"/>
    </contour>
    <contour>
      <point x="395" y="297" type="curve"/>
      <point x="458" y="297"/>
      <point x="480" y="263"/>
      <point x="462" y="188" type="curve" smooth="yes"/>
      <point x="461" y="184" type="line" smooth="yes"/>
      <point x="447" y="127"/>
      <point x="414" y="98"/>
      <point x="364" y="98" type="curve" smooth="yes"/>
      <point x="338" y="98"/>
      <point x="325" y="105"/>
      <point x="312" y="131" type="curve"/>
      <point x="260" y="86"/>
      <point x="297" y="-10"/>
      <point x="359" y="-10" type="curve" smooth="yes"/>
      <point x="456" y="-10"/>
      <point x="535" y="59"/>
      <point x="562" y="168" type="curve" smooth="yes"/>
      <point x="564" y="174" type="line" smooth="yes"/>
      <point x="589" y="274"/>
      <point x="543" y="344"/>
      <point x="454" y="344" type="curve" smooth="yes"/>
      <point x="427" y="344"/>
      <point x="402" y="324"/>
    </contour>
    <contour>
      <point x="408" y="46" type="curve"/>
      <point x="346" y="46"/>
      <point x="319" y="92"/>
      <point x="335" y="157" type="curve" smooth="yes"/>
      <point x="336" y="161" type="line" smooth="yes"/>
      <point x="351" y="221"/>
      <point x="392" y="262"/>
      <point x="435" y="262" type="curve" smooth="yes"/>
      <point x="472" y="262"/>
      <point x="486" y="256"/>
      <point x="509" y="230" type="curve"/>
      <point x="553" y="267"/>
      <point x="515" y="344"/>
      <point x="454" y="344" type="curve" smooth="yes"/>
      <point x="360" y="344"/>
      <point x="279" y="271"/>
      <point x="252" y="163" type="curve" smooth="yes"/>
      <point x="250" y="157" type="line" smooth="yes"/>
      <point x="225" y="54"/>
      <point x="266" y="-10"/>
      <point x="359" y="-10" type="curve" smooth="yes"/>
      <point x="388" y="-10"/>
      <point x="400" y="13"/>
    </contour>
    <contour>
      <point x="386" y="412" type="curve"/>
      <point x="398" y="403"/>
      <point x="417" y="399"/>
      <point x="443" y="399" type="curve" smooth="yes"/>
      <point x="472" y="399"/>
      <point x="486" y="404"/>
      <point x="511" y="424" type="curve" smooth="yes"/>
      <point x="592" y="489"/>
      <point x="649" y="581"/>
      <point x="667" y="654" type="curve" smooth="yes"/>
      <point x="676" y="691"/>
      <point x="655" y="712"/>
      <point x="602" y="712" type="curve" smooth="yes"/>
      <point x="579" y="712"/>
      <point x="567" y="711"/>
      <point x="550" y="706" type="curve"/>
      <point x="514" y="601"/>
      <point x="467" y="502"/>
    </contour>
    <contour>
      <point x="255" y="288" type="curve"/>
      <point x="242" y="297"/>
      <point x="224" y="301"/>
      <point x="198" y="301" type="curve" smooth="yes"/>
      <point x="169" y="301"/>
      <point x="155" y="296"/>
      <point x="129" y="276" type="curve" smooth="yes"/>
      <point x="48" y="211"/>
      <point x="-8" y="119"/>
      <point x="-27" y="46" type="curve" smooth="yes"/>
      <point x="-36" y="9"/>
      <point x="-14" y="-12"/>
      <point x="39" y="-12" type="curve" smooth="yes"/>
      <point x="62" y="-12"/>
      <point x="74" y="-11"/>
      <point x="90" y="-6" type="curve"/>
      <point x="126" y="98"/>
      <point x="174" y="198"/>
    </contour>
  </outline>
</glyph>
<glyph name="quotesingle" format="2">
  <advance width="600"/>
  <unicode hex="0027"/>
  <outline>
    <contour>
      <point x="404" y="445" type="curve"/>
      <point x="467" y="644" type="line" smooth="yes"/>
      <point x="491" y="720"/>
      <point x="463" y="754"/>
      <point x="375" y="754" type="curve" smooth="yes"/>
      <point x="360" y="754"/>
      <point x="345" y="753"/>
      <point x="330" y="750" type="curve"/>
      <point x="333" y="725"/>
      <point x="331" y="700"/>
      <point x="322" y="647" type="curve" smooth="yes"/>
      <point x="294" y="497" type="line" smooth="yes"/>
      <point x="286" y="455"/>
      <point x="303" y="440"/>
      <point x="353" y="440" type="curve" smooth="yes"/>
      <point x="373" y="440"/>
      <point x="390" y="441"/>
    </contour>
  </outline>
</glyph>
<glyph name="parenleft" format="2">
  <advance width="600"/>
  <unicode hex="0028"/>
  <outline>
    <contour>
      <point x="447" y="728" type="curve" smooth="yes"/>
      <point x="325" y="630"/>
      <point x="231" y="474"/>
      <point x="188" y="303" type="curve" smooth="yes"/>
      <point x="186" y="295" type="line" smooth="yes"/>
      <point x="144" y="123"/>
      <point x="160" y="-33"/>
      <point x="233" y="-131" type="curve" smooth="yes"/>
      <point x="255" y="-160"/>
      <point x="277" y="-173"/>
      <point x="309" y="-173" type="curve" smooth="yes"/>
      <point x="350" y="-173"/>
      <point x="378" y="-159"/>
      <point x="403" y="-140" type="curve"/>
      <point x="404" y="-136" type="line"/>
      <point x="321" y="-30"/>
      <point x="295" y="128"/>
      <point x="337" y="295" type="curve" smooth="yes"/>
      <point x="339" y="303" type="line" smooth="yes"/>
      <point x="380" y="468"/>
      <point x="484" y="628"/>
      <point x="621" y="733" type="curve"/>
      <point x="622" y="737" type="line"/>
      <point x="607" y="756"/>
      <point x="585" y="770"/>
      <point x="545" y="770" type="curve" smooth="yes"/>
      <point x="513" y="770"/>
      <point x="484" y="757"/>
    </contour>
  </outline>
</glyph>
<glyph name="parenright" format="2">
  <advance width="600"/>
  <unicode hex="0029"/>
  <outline>
    <contour>
      <point x="167" y="-131" type="curve" smooth="yes"/>
      <point x="290" y="-33"/>
      <point x="384" y="123"/>
      <point x="426" y="295" type="curve" smooth="yes"/>
      <point x="429" y="303" type="line" smooth="yes"/>
      <point x="471" y="474"/>
      <point x="455" y="631"/>
      <point x="382" y="728" type="curve" smooth="yes"/>
      <point x="360" y="757"/>
      <point x="337" y="770"/>
      <point x="306" y="770" type="curve" smooth="yes"/>
      <point x="265" y="770"/>
      <point x="237" y="756"/>
      <point x="212" y="737" type="curve"/>
      <point x="211" y="733" type="line"/>
      <point x="294" y="628"/>
      <point x="320" y="469"/>
      <point x="278" y="303" type="curve" smooth="yes"/>
      <point x="276" y="295" type="line" smooth="yes"/>
      <point x="235" y="129"/>
      <point x="131" y="-30"/>
      <point x="-6" y="-136" type="curve"/>
      <point x="-7" y="-140" type="line"/>
      <point x="8" y="-159"/>
      <point x="30" y="-173"/>
      <point x="70" y="-173" type="curve" smooth="yes"/>
      <point x="102" y="-173"/>
      <point x="131" y="-160"/>
    </contour>
  </outline>
</glyph>
<glyph name="asterisk" format="2">
  <advance width="600"/>
  <unicode hex="002A"/>
  <outline>
    <contour>
      <point x="302" y="569" type="curve"/>
      <point x="305" y="541"/>
      <point x="307" y="516"/>
      <point x="303" y="477" type="curve" smooth="yes"/>
      <point x="285" y="309" type="line"/>
      <point x="211" y="149" type="line" smooth="yes"/>
      <point x="179" y="81"/>
      <point x="196" y="42"/>
      <point x="264" y="42" type="curve"/>
      <point x="282" y="42"/>
      <point x="301" y="44"/>
      <point x="319" y="50" type="curve"/>
      <point x="317" y="78"/>
      <point x="314" y="103"/>
      <point x="318" y="142" type="curve" smooth="yes"/>
      <point x="337" y="309" type="line"/>
      <point x="410" y="470" type="line" smooth="yes"/>
      <point x="443" y="538"/>
      <point x="425" y="578"/>
      <point x="357" y="578" type="curve" smooth="yes"/>
      <point x="340" y="577"/>
      <point x="321" y="575"/>
    </contour>
    <contour>
      <point x="554" y="492" type="curve"/>
      <point x="299" y="333" type="line"/>
      <point x="87" y="257" type="line" smooth="yes"/>
      <point x="51" y="244"/>
      <point x="37" y="207"/>
      <point x="50" y="168" type="curve"/>
      <point x="54" y="153"/>
      <point x="62" y="141"/>
      <point x="70" y="131" type="curve"/>
      <point x="323" y="290" type="line"/>
      <point x="537" y="367" type="line" smooth="yes"/>
      <point x="573" y="380"/>
      <point x="586" y="415"/>
      <point x="573" y="456" type="curve" smooth="yes"/>
      <point x="569" y="468"/>
      <point x="564" y="477"/>
    </contour>
    <contour>
      <point x="546" y="231" type="curve"/>
      <point x="334" y="333" type="line"/>
      <point x="197" y="466" type="line" smooth="yes"/>
      <point x="174" y="489"/>
      <point x="139" y="475"/>
      <point x="104" y="435" type="curve"/>
      <point x="93" y="421"/>
      <point x="84" y="405"/>
      <point x="76" y="392" type="curve"/>
      <point x="288" y="290" type="line"/>
      <point x="426" y="156" type="line" smooth="yes"/>
      <point x="449" y="133"/>
      <point x="484" y="147"/>
      <point x="519" y="189" type="curve"/>
      <point x="528" y="201"/>
      <point x="536" y="212"/>
    </contour>
  </outline>
</glyph>
<glyph name="plus" format="2">
  <advance width="600"/>
  <unicode hex="002B"/>
  <outline>
    <contour>
      <point x="75" y="366" type="line"/>
      <point x="74" y="361"/>
      <point x="73" y="355"/>
      <point x="71" y="349" type="curve" smooth="yes"/>
      <point x="58" y="297"/>
      <point x="58" y="267"/>
      <point x="70" y="251" type="curve" smooth="yes"/>
      <point x="80" y="238"/>
      <point x="96" y="234"/>
      <point x="135" y="234" type="curve"/>
      <point x="543" y="234" type="line"/>
      <point x="551" y="251"/>
      <point x="558" y="271"/>
      <point x="562" y="287" type="curve" smooth="yes"/>
      <point x="577" y="346"/>
      <point x="567" y="366"/>
      <point x="517" y="366" type="curve"/>
    </contour>
    <contour>
      <point x="314" y="57" type="curve"/>
      <point x="410" y="439" type="line" smooth="yes"/>
      <point x="422" y="487"/>
      <point x="420" y="504"/>
      <point x="406" y="522" type="curve" smooth="yes"/>
      <point x="391" y="542"/>
      <point x="357" y="548"/>
      <point x="329" y="548" type="curve" smooth="yes"/>
      <point x="317" y="548"/>
      <point x="304" y="547"/>
      <point x="291" y="544" type="curve"/>
      <point x="291" y="510"/>
      <point x="288" y="482"/>
      <point x="278" y="442" type="curve" smooth="yes"/>
      <point x="194" y="107" type="line" smooth="yes"/>
      <point x="182" y="59"/>
      <point x="212" y="52"/>
      <point x="263" y="52" type="curve" smooth="yes"/>
      <point x="283" y="52"/>
      <point x="300" y="53"/>
    </contour>
  </outline>
</glyph>
<glyph name="comma" format="2">
  <advance width="600"/>
  <unicode hex="002C"/>
  <outline>
    <contour>
      <point x="153" y="-198" type="curve" smooth="yes"/>
      <point x="173" y="-198"/>
      <point x="185" y="-195"/>
      <point x="198" y="-184" type="curve"/>
      <point x="268" y="-128"/>
      <point x="350" y="-7"/>
      <point x="373" y="85" type="curve"/>
      <point x="386" y="136"/>
      <point x="357" y="155"/>
      <point x="280" y="155" type="curve" smooth="yes"/>
      <point x="257" y="155"/>
      <point x="240" y="153"/>
      <point x="213" y="148" type="curve"/>
      <point x="180" y="14"/>
      <point x="132" y="-85"/>
      <point x="62" y="-167" type="curve"/>
      <point x="85" y="-189"/>
      <point x="111" y="-198"/>
    </contour>
  </outline>
</glyph>
<glyph name="period" format="2">
  <advance width="600"/>
  <unicode hex="002E"/>
  <outline>
    <contour>
      <point x="329" y="-3" type="curve"/>
      <point x="360" y="123" type="line" smooth="yes"/>
      <point x="375" y="181"/>
      <point x="317" y="192"/>
      <point x="257" y="192" type="curve" smooth="yes"/>
      <point x="235" y="192"/>
      <point x="206" y="190"/>
      <point x="182" y="185" type="curve"/>
      <point x="151" y="59" type="line" smooth="yes"/>
      <point x="136" y="1"/>
      <point x="195" y="-10"/>
      <point x="254" y="-10" type="curve" smooth="yes"/>
      <point x="277" y="-10"/>
      <point x="305" y="-7"/>
    </contour>
  </outline>
</glyph>
<glyph name="slash" format="2">
  <advance width="600"/>
  <unicode hex="002F"/>
  <outline>
    <contour>
      <point x="671" y="751" type="curve"/>
      <point x="650" y="761"/>
      <point x="635" y="766"/>
      <point x="612" y="766" type="curve" smooth="yes"/>
      <point x="559" y="766"/>
      <point x="520" y="747"/>
      <point x="503" y="711" type="curve" smooth="yes"/>
      <point x="373" y="442"/>
      <point x="215" y="193"/>
      <point x="30" y="-35" type="curve" smooth="yes"/>
      <point x="2" y="-69"/>
      <point x="-21" y="-94"/>
      <point x="-48" y="-116" type="curve"/>
      <point x="-27" y="-130"/>
      <point x="-7" y="-136"/>
      <point x="22" y="-136" type="curve" smooth="yes"/>
      <point x="70" y="-136"/>
      <point x="111" y="-113"/>
      <point x="153" y="-64" type="curve"/>
      <point x="352" y="172"/>
      <point x="524" y="443"/>
    </contour>
  </outline>
</glyph>
<glyph name="zero" format="2">
  <advance width="600"/>
  <unicode hex="0030"/>
  <outline>
    <contour>
      <point x="409" y="720" type="curve" smooth="yes"/>
      <point x="264" y="720"/>
      <point x="138" y="607"/>
      <point x="81" y="376" type="curve" smooth="yes"/>
      <point x="71" y="334" type="line" smooth="yes"/>
      <point x="18" y="122"/>
      <point x="90" y="-20"/>
      <point x="235" y="-20" type="curve"/>
      <point x="275" y="-20"/>
      <point x="307" y="15"/>
      <point x="319" y="63" type="curve"/>
      <point x="191" y="66"/>
      <point x="162" y="160"/>
      <point x="196" y="300" type="curve" smooth="yes"/>
      <point x="206" y="345" type="line" smooth="yes"/>
      <point x="242" y="493"/>
      <point x="307" y="592"/>
      <point x="395" y="592" type="curve" smooth="yes"/>
      <point x="437" y="592"/>
      <point x="461" y="584"/>
      <point x="484" y="565" type="curve"/>
      <point x="535" y="609"/>
      <point x="489" y="720"/>
    </contour>
    <contour>
      <point x="235" y="-20" type="curve" smooth="yes"/>
      <point x="379" y="-20"/>
      <point x="495" y="78"/>
      <point x="547" y="286" type="curve" smooth="yes"/>
      <point x="558" y="330" type="line" smooth="yes"/>
      <point x="618" y="571"/>
      <point x="554" y="720"/>
      <point x="409" y="720" type="curve"/>
      <point x="368" y="720"/>
      <point x="336" y="685"/>
      <point x="324" y="637" type="curve"/>
      <point x="451" y="634"/>
      <point x="475" y="530"/>
      <point x="433" y="360" type="curve" smooth="yes"/>
      <point x="422" y="315" type="line" smooth="yes"/>
      <point x="391" y="191"/>
      <point x="336" y="108"/>
      <point x="247" y="108" type="curve" smooth="yes"/>
      <point x="205" y="108"/>
      <point x="174" y="117"/>
      <point x="150" y="140" type="curve"/>
      <point x="99" y="95"/>
      <point x="152" y="-20"/>
    </contour>
    <contour>
      <point x="133" y="185" type="curve"/>
      <point x="264" y="253"/>
      <point x="364" y="315"/>
      <point x="475" y="415" type="curve"/>
      <point x="507" y="443"/>
      <point x="527" y="495"/>
      <point x="502" y="537" type="curve"/>
      <point x="368" y="417"/>
      <point x="260" y="339"/>
      <point x="131" y="264" type="curve" smooth="yes"/>
      <point x="105" y="250"/>
      <point x="117" y="214"/>
    </contour>
  </outline>
</glyph>
<glyph name="one" format="2">
  <advance width="600"/>
  <unicode hex="0031"/>
  <outline>
    <contour>
      <point x="358" y="64" type="curve"/>
      <point x="408" y="264"/>
      <point x="460" y="469"/>
      <point x="510" y="669" type="curve" smooth="yes"/>
      <point x="517" y="700"/>
      <point x="470" y="710"/>
      <point x="410" y="710" type="curve" smooth="yes"/>
      <point x="387" y="710" type="line"/>
      <point x="345" y="544"/>
      <point x="302" y="371"/>
      <point x="261" y="205" type="curve" smooth="yes"/>
      <point x="234" y="96"/>
      <point x="286" y="64"/>
    </contour>
    <contour>
      <point x="53" y="129" type="line"/>
      <point x="51" y="123"/>
      <point x="50" y="117"/>
      <point x="48" y="110" type="curve" smooth="yes"/>
      <point x="35" y="59"/>
      <point x="36" y="34"/>
      <point x="48" y="18" type="curve" smooth="yes"/>
      <point x="58" y="4"/>
      <point x="74" y="0"/>
      <point x="114" y="0" type="curve" smooth="yes"/>
      <point x="496" y="0" type="line"/>
      <point x="503" y="12"/>
      <point x="507" y="23"/>
      <point x="511" y="37" type="curve" smooth="yes"/>
      <point x="525" y="93"/>
      <point x="474" y="129"/>
      <point x="352" y="129" type="curve" smooth="yes"/>
    </contour>
    <contour>
      <point x="172" y="423" type="curve" smooth="yes"/>
      <point x="202" y="423"/>
      <point x="240" y="442"/>
      <point x="279" y="474" type="curve" smooth="yes"/>
      <point x="344" y="525"/>
      <point x="391" y="595"/>
      <point x="406" y="653" type="curve" smooth="yes"/>
      <point x="415" y="693"/>
      <point x="401" y="710"/>
      <point x="389" y="710" type="curve"/>
      <point x="365" y="710" type="line"/>
      <point x="333" y="675"/>
      <point x="304" y="646"/>
      <point x="271" y="618" type="curve"/>
      <point x="233" y="588"/>
      <point x="194" y="564"/>
      <point x="147" y="543" type="curve"/>
      <point x="141" y="521" type="line" smooth="yes"/>
      <point x="124" y="459"/>
      <point x="146" y="423"/>
    </contour>
  </outline>
</glyph>
<glyph name="two" format="2">
  <advance width="600"/>
  <unicode hex="0032"/>
  <outline>
    <contour>
      <point x="426" y="621" type="curve"/>
      <point x="455" y="587"/>
      <point x="464" y="565"/>
      <point x="452" y="518" type="curve" smooth="yes"/>
      <point x="436" y="454"/>
      <point x="392" y="416"/>
      <point x="272" y="349" type="curve" smooth="yes"/>
      <point x="87" y="245"/>
      <point x="33" y="184"/>
      <point x="13" y="107" type="curve" smooth="yes"/>
      <point x="5" y="71"/>
      <point x="47" y="58"/>
      <point x="121" y="58" type="curve"/>
      <point x="141" y="136"/>
      <point x="173" y="168"/>
      <point x="343" y="256" type="curve" smooth="yes"/>
      <point x="505" y="340"/>
      <point x="565" y="400"/>
      <point x="592" y="511" type="curve" smooth="yes"/>
      <point x="593" y="516" type="line" smooth="yes"/>
      <point x="618" y="614"/>
      <point x="560" y="670"/>
    </contour>
    <contour>
      <point x="474" y="0" type="line"/>
      <point x="482" y="16"/>
      <point x="489" y="36"/>
      <point x="493" y="54" type="curve" smooth="yes"/>
      <point x="507" y="109"/>
      <point x="497" y="129"/>
      <point x="447" y="129" type="curve" smooth="yes"/>
      <point x="152" y="129" type="line" smooth="yes"/>
      <point x="93" y="129"/>
      <point x="53" y="125"/>
      <point x="13" y="107" type="curve"/>
      <point x="13" y="105"/>
      <point x="13" y="104"/>
      <point x="12" y="102" type="curve" smooth="yes"/>
      <point x="2" y="61"/>
      <point x="20" y="0"/>
      <point x="50" y="0" type="curve" smooth="yes"/>
    </contour>
    <contour>
      <point x="416" y="720" type="curve" smooth="yes"/>
      <point x="334" y="720"/>
      <point x="260" y="706"/>
      <point x="218" y="672" type="curve" smooth="yes"/>
      <point x="188" y="649"/>
      <point x="168" y="618"/>
      <point x="158" y="577" type="curve" smooth="yes"/>
      <point x="151" y="552"/>
      <point x="152" y="526"/>
      <point x="158" y="508" type="curve"/>
      <point x="162" y="508" type="line"/>
      <point x="232" y="565"/>
      <point x="304" y="591"/>
      <point x="390" y="591" type="curve" smooth="yes"/>
      <point x="472" y="591"/>
      <point x="525" y="555"/>
      <point x="512" y="506" type="curve" smooth="yes"/>
      <point x="507" y="485"/>
      <point x="499" y="464"/>
      <point x="488" y="445" type="curve"/>
      <point x="541" y="445"/>
      <point x="582" y="471"/>
      <point x="593" y="516" type="curve" smooth="yes"/>
      <point x="626" y="646"/>
      <point x="549" y="720"/>
    </contour>
  </outline>
</glyph>
<glyph name="three" format="2">
  <advance width="600"/>
  <unicode hex="0033"/>
  <outline>
    <contour>
      <point x="361" y="591" type="curve" smooth="yes"/>
      <point x="472" y="591"/>
      <point x="521" y="535"/>
      <point x="502" y="462" type="curve" smooth="yes"/>
      <point x="500" y="449"/>
      <point x="496" y="438"/>
      <point x="490" y="428" type="curve"/>
      <point x="526" y="429"/>
      <point x="588" y="485"/>
      <point x="595" y="515" type="curve" smooth="yes"/>
      <point x="599" y="530" type="line" smooth="yes"/>
      <point x="625" y="631"/>
      <point x="546" y="720"/>
      <point x="398" y="720" type="curve" smooth="yes"/>
      <point x="312" y="720"/>
      <point x="245" y="703"/>
      <point x="205" y="672" type="curve" smooth="yes"/>
      <point x="173" y="648"/>
      <point x="157" y="626"/>
      <point x="147" y="583" type="curve" smooth="yes"/>
      <point x="141" y="561"/>
      <point x="142" y="538"/>
      <point x="145" y="515" type="curve"/>
      <point x="149" y="515" type="line"/>
      <point x="221" y="575"/>
      <point x="277" y="591"/>
    </contour>
    <contour>
      <point x="224" y="317" type="curve" smooth="yes"/>
      <point x="428" y="317"/>
      <point x="570" y="415"/>
      <point x="595" y="515" type="curve" smooth="yes"/>
      <point x="604" y="551"/>
      <point x="529" y="600"/>
      <point x="492" y="600" type="curve"/>
      <point x="491" y="595"/>
      <point x="490" y="589"/>
      <point x="489" y="583" type="curve" smooth="yes"/>
      <point x="455" y="440"/>
      <point x="339" y="389"/>
      <point x="202" y="389" type="curve"/>
      <point x="195" y="375"/>
      <point x="191" y="366"/>
      <point x="187" y="346" type="curve" smooth="yes"/>
      <point x="182" y="324"/>
      <point x="213" y="317"/>
    </contour>
    <contour>
      <point x="214" y="278" type="curve" smooth="yes"/>
      <point x="332" y="271"/>
      <point x="419" y="221"/>
      <point x="399" y="141" type="curve" smooth="yes"/>
      <point x="398" y="135"/>
      <point x="397" y="130"/>
      <point x="395" y="126" type="curve"/>
      <point x="446" y="126"/>
      <point x="513" y="141"/>
      <point x="520" y="163" type="curve" smooth="yes"/>
      <point x="554" y="304"/>
      <point x="400" y="359"/>
      <point x="195" y="359" type="curve"/>
      <point x="191" y="352"/>
      <point x="188" y="351"/>
      <point x="187" y="346" type="curve" smooth="yes"/>
      <point x="176" y="300"/>
      <point x="182" y="281"/>
    </contour>
    <contour>
      <point x="242" y="109" type="curve" smooth="yes"/>
      <point x="150" y="109"/>
      <point x="94" y="131"/>
      <point x="49" y="194" type="curve"/>
      <point x="45" y="194" type="line"/>
      <point x="35" y="175"/>
      <point x="28" y="159"/>
      <point x="22" y="134" type="curve" smooth="yes"/>
      <point x="10" y="86"/>
      <point x="13" y="66"/>
      <point x="31" y="42" type="curve" smooth="yes"/>
      <point x="56" y="9"/>
      <point x="133" y="-20"/>
      <point x="229" y="-20" type="curve" smooth="yes"/>
      <point x="383" y="-20"/>
      <point x="489" y="42"/>
      <point x="516" y="148" type="curve" smooth="yes"/>
      <point x="520" y="163" type="line" smooth="yes"/>
      <point x="526" y="193"/>
      <point x="476" y="257"/>
      <point x="439" y="259" type="curve"/>
      <point x="438" y="249"/>
      <point x="436" y="239"/>
      <point x="433" y="226" type="curve" smooth="yes"/>
      <point x="414" y="150"/>
      <point x="360" y="109"/>
    </contour>
  </outline>
</glyph>
<glyph name="four" format="2">
  <advance width="600"/>
  <unicode hex="0034"/>
  <outline>
    <contour>
      <point x="140" y="234" type="curve"/>
      <point x="260" y="398"/>
      <point x="456" y="577"/>
      <point x="637" y="669" type="curve"/>
      <point x="638" y="673" type="line"/>
      <point x="621" y="696"/>
      <point x="579" y="711"/>
      <point x="515" y="711" type="curve" smooth="yes"/>
      <point x="473" y="711"/>
      <point x="440" y="702"/>
      <point x="371" y="652" type="curve" smooth="yes"/>
      <point x="207" y="532"/>
      <point x="63" y="352"/>
      <point x="41" y="266" type="curve" smooth="yes"/>
      <point x="36" y="245"/>
      <point x="93" y="234"/>
    </contour>
    <contour>
      <point x="536" y="154" type="line"/>
      <point x="543" y="167"/>
      <point x="548" y="182"/>
      <point x="551" y="195" type="curve" smooth="yes"/>
      <point x="561" y="234"/>
      <point x="564" y="283"/>
      <point x="532" y="283" type="curve" smooth="yes"/>
      <point x="339" y="283" type="line"/>
      <point x="257" y="283"/>
      <point x="135" y="278"/>
      <point x="41" y="266" type="curve"/>
      <point x="37" y="253" type="line" smooth="yes"/>
      <point x="28" y="212"/>
      <point x="32" y="185"/>
      <point x="45" y="167" type="curve" smooth="yes"/>
      <point x="53" y="157"/>
      <point x="60" y="154"/>
      <point x="81" y="154" type="curve" smooth="yes"/>
    </contour>
    <contour>
      <point x="437" y="-2" type="curve"/>
      <point x="438" y="32"/>
      <point x="442" y="59"/>
      <point x="451" y="97" type="curve" smooth="yes"/>
      <point x="518" y="362" type="line" smooth="yes"/>
      <point x="524" y="388"/>
      <point x="487" y="412"/>
      <point x="444" y="412" type="curve" smooth="yes"/>
      <point x="439" y="412" type="line"/>
      <point x="399" y="351"/>
      <point x="351" y="260"/>
      <point x="336" y="200" type="curve"/>
      <point x="300" y="56" type="line" smooth="yes"/>
      <point x="290" y="15"/>
      <point x="318" y="-7"/>
      <point x="378" y="-7" type="curve" smooth="yes"/>
      <point x="407" y="-7"/>
      <point x="424" y="-5"/>
    </contour>
  </outline>
</glyph>
<glyph name="eight" format="2">
  <advance width="600"/>
  <unicode hex="0038"/>
  <outline>
    <contour>
      <point x="406" y="345" type="curve" smooth="yes"/>
      <point x="322" y="378" type="line" smooth="yes"/>
      <point x="246" y="409"/>
      <point x="232" y="457"/>
      <point x="245" y="508" type="curve" smooth="yes"/>
      <point x="251" y="530"/>
      <point x="263" y="568"/>
      <point x="283" y="604" type="curve"/>
      <point x="210" y="602"/>
      <point x="144" y="581"/>
      <point x="129" y="522" type="curve" smooth="yes"/>
      <point x="111" y="452"/>
      <point x="128" y="356"/>
      <point x="262" y="302" type="curve" smooth="yes"/>
      <point x="344" y="268" type="line" smooth="yes"/>
      <point x="409" y="242"/>
      <point x="414" y="203"/>
      <point x="397" y="131" type="curve" smooth="yes"/>
      <point x="393" y="119"/>
      <point x="391" y="109"/>
      <point x="388" y="95" type="curve"/>
      <point x="439" y="96"/>
      <point x="510" y="121"/>
      <point x="519" y="156" type="curve"/>
      <point x="530" y="201"/>
      <point x="526" y="298"/>
    </contour>
    <contour>
      <point x="235" y="-20" type="curve" smooth="yes"/>
      <point x="401" y="-20"/>
      <point x="487" y="38"/>
      <point x="516" y="146" type="curve" smooth="yes"/>
      <point x="519" y="156" type="line" smooth="yes"/>
      <point x="524" y="174"/>
      <point x="485" y="221"/>
      <point x="451" y="223" type="curve"/>
      <point x="450" y="218"/>
      <point x="450" y="215"/>
      <point x="448" y="209" type="curve" smooth="yes"/>
      <point x="432" y="144"/>
      <point x="355" y="106"/>
      <point x="252" y="106" type="curve" smooth="yes"/>
      <point x="159" y="106"/>
      <point x="129" y="141"/>
      <point x="107" y="201" type="curve"/>
      <point x="0" y="112"/>
      <point x="79" y="-20"/>
    </contour>
    <contour>
      <point x="404" y="720" type="curve" smooth="yes"/>
      <point x="253" y="720"/>
      <point x="157" y="637"/>
      <point x="131" y="530" type="curve" smooth="yes"/>
      <point x="129" y="522" type="line" smooth="yes"/>
      <point x="120" y="486"/>
      <point x="168" y="434"/>
      <point x="238" y="433" type="curve"/>
      <point x="238" y="451"/>
      <point x="239" y="482"/>
      <point x="245" y="508" type="curve" smooth="yes"/>
      <point x="263" y="577"/>
      <point x="328" y="603"/>
      <point x="389" y="603" type="curve" smooth="yes"/>
      <point x="448" y="603"/>
      <point x="486" y="586"/>
      <point x="517" y="550" type="curve"/>
      <point x="596" y="612"/>
      <point x="498" y="720"/>
    </contour>
    <contour>
      <point x="373" y="328" type="curve" smooth="yes"/>
      <point x="447" y="328"/>
      <point x="569" y="404"/>
      <point x="596" y="508" type="curve" smooth="yes"/>
      <point x="598" y="516" type="line" smooth="yes"/>
      <point x="630" y="639"/>
      <point x="541" y="720"/>
      <point x="404" y="720" type="curve" smooth="yes"/>
      <point x="386" y="720"/>
      <point x="366" y="710"/>
      <point x="348" y="657" type="curve"/>
      <point x="439" y="657"/>
      <point x="496" y="603"/>
      <point x="474" y="515" type="curve" smooth="yes"/>
      <point x="472" y="508" type="line" smooth="yes"/>
      <point x="457" y="444"/>
      <point x="406" y="401"/>
      <point x="294" y="358" type="curve"/>
      <point x="316" y="337"/>
      <point x="340" y="328"/>
    </contour>
    <contour>
      <point x="312" y="46" type="curve"/>
      <point x="164" y="46"/>
      <point x="133" y="113"/>
      <point x="140" y="141" type="curve" smooth="yes"/>
      <point x="142" y="149" type="line" smooth="yes"/>
      <point x="158" y="222"/>
      <point x="227" y="270"/>
      <point x="344" y="300" type="curve"/>
      <point x="322" y="322"/>
      <point x="310" y="336"/>
      <point x="266" y="336" type="curve" smooth="yes"/>
      <point x="186" y="336"/>
      <point x="57" y="280"/>
      <point x="32" y="180" type="curve" smooth="yes"/>
      <point x="30" y="172" type="line" smooth="yes"/>
      <point x="4" y="69"/>
      <point x="84" y="-20"/>
      <point x="235" y="-20" type="curve" smooth="yes"/>
      <point x="273" y="-20"/>
      <point x="303" y="10"/>
    </contour>
  </outline>
</glyph>
<glyph name="nine" format="2">
  <advance width="600"/>
  <unicode hex="0039"/>
  <outline>
    <contour>
      <point x="522" y="539" type="curve"/>
      <point x="573" y="613"/>
      <point x="492" y="720"/>
      <point x="393" y="720" type="curve"/>
      <point x="253" y="720"/>
      <point x="148" y="643"/>
      <point x="107" y="481" type="curve" smooth="yes"/>
      <point x="104" y="470" type="line" smooth="yes"/>
      <point x="72" y="340"/>
      <point x="175" y="287"/>
      <point x="243" y="333" type="curve"/>
      <point x="219" y="362"/>
      <point x="219" y="401"/>
      <point x="231" y="449" type="curve" smooth="yes"/>
      <point x="232" y="454" type="line" smooth="yes"/>
      <point x="253" y="535"/>
      <point x="306" y="592"/>
      <point x="381" y="592" type="curve" smooth="yes"/>
      <point x="442" y="592"/>
      <point x="490" y="574"/>
    </contour>
    <contour>
      <point x="411" y="180" type="curve"/>
      <point x="344" y="130"/>
      <point x="274" y="109"/>
      <point x="200" y="109" type="curve" smooth="yes"/>
      <point x="141" y="109"/>
      <point x="101" y="121"/>
      <point x="60" y="147" type="curve"/>
      <point x="56" y="147" type="line"/>
      <point x="48" y="135"/>
      <point x="42" y="119"/>
      <point x="38" y="100" type="curve" smooth="yes"/>
      <point x="29" y="55"/>
      <point x="35" y="32"/>
      <point x="46" y="18" type="curve" smooth="yes"/>
      <point x="60" y="0"/>
      <point x="103" y="-20"/>
      <point x="193" y="-20" type="curve" smooth="yes"/>
      <point x="327" y="-20"/>
      <point x="436" y="67"/>
    </contour>
    <contour>
      <point x="570" y="370" type="curve" smooth="yes"/>
      <point x="572" y="379" type="line" smooth="yes"/>
      <point x="627" y="603"/>
      <point x="545" y="720"/>
      <point x="393" y="720" type="curve" smooth="yes"/>
      <point x="384" y="720"/>
      <point x="361" y="714"/>
      <point x="344" y="654" type="curve"/>
      <point x="469" y="622"/>
      <point x="477" y="543"/>
      <point x="437" y="385" type="curve" smooth="yes"/>
      <point x="435" y="376" type="line" smooth="yes"/>
      <point x="379" y="150"/>
      <point x="327" y="97"/>
      <point x="155" y="49" type="curve"/>
      <point x="146" y="3"/>
      <point x="167" y="-20"/>
      <point x="193" y="-20" type="curve" smooth="yes"/>
      <point x="356" y="-20"/>
      <point x="488" y="46"/>
    </contour>
    <contour>
      <point x="269" y="240" type="curve" smooth="yes"/>
      <point x="333" y="240"/>
      <point x="387" y="252"/>
      <point x="424" y="283" type="curve" smooth="yes"/>
      <point x="449" y="303"/>
      <point x="458" y="323"/>
      <point x="469" y="388" type="curve"/>
      <point x="412" y="358"/>
      <point x="364" y="345"/>
      <point x="310" y="345" type="curve" smooth="yes"/>
      <point x="208" y="345"/>
      <point x="157" y="400"/>
      <point x="177" y="481" type="curve" smooth="yes"/>
      <point x="182" y="499"/>
      <point x="186" y="514"/>
      <point x="196" y="529" type="curve"/>
      <point x="158" y="529"/>
      <point x="116" y="516"/>
      <point x="104" y="470" type="curve" smooth="yes"/>
      <point x="66" y="319"/>
      <point x="152" y="240"/>
    </contour>
  </outline>
</glyph>
<glyph name="colon" format="2">
  <advance width="600"/>
  <unicode hex="003A"/>
  <outline>
    <contour>
      <point x="418" y="354" type="curve"/>
      <point x="449" y="479" type="line" smooth="yes"/>
      <point x="464" y="537"/>
      <point x="406" y="549"/>
      <point x="347" y="549" type="curve" smooth="yes"/>
      <point x="324" y="549"/>
      <point x="295" y="546"/>
      <point x="271" y="541" type="curve"/>
      <point x="240" y="416" type="line" smooth="yes"/>
      <point x="225" y="358"/>
      <point x="284" y="347"/>
      <point x="343" y="347" type="curve" smooth="yes"/>
      <point x="366" y="347"/>
      <point x="394" y="349"/>
    </contour>
    <contour>
      <point x="329" y="-3" type="curve"/>
      <point x="360" y="123" type="line" smooth="yes"/>
      <point x="375" y="181"/>
      <point x="317" y="192"/>
      <point x="257" y="192" type="curve" smooth="yes"/>
      <point x="235" y="192"/>
      <point x="206" y="190"/>
      <point x="182" y="185" type="curve"/>
      <point x="151" y="59" type="line" smooth="yes"/>
      <point x="136" y="1"/>
      <point x="195" y="-10"/>
      <point x="254" y="-10" type="curve" smooth="yes"/>
      <point x="277" y="-10"/>
      <point x="305" y="-7"/>
    </contour>
  </outline>
</glyph>
<glyph name="semicolon" format="2">
  <advance width="600"/>
  <unicode hex="003B"/>
  <outline>
    <contour>
      <point x="418" y="352" type="curve"/>
      <point x="449" y="478" type="line" smooth="yes"/>
      <point x="463" y="535"/>
      <point x="405" y="547"/>
      <point x="346" y="547" type="curve" smooth="yes"/>
      <point x="323" y="547"/>
      <point x="295" y="544"/>
      <point x="271" y="539" type="curve"/>
      <point x="239" y="414" type="line" smooth="yes"/>
      <point x="225" y="356"/>
      <point x="283" y="345"/>
      <point x="342" y="345" type="curve" smooth="yes"/>
      <point x="365" y="345"/>
      <point x="393" y="347"/>
    </contour>
    <contour>
      <point x="153" y="-198" type="curve" smooth="yes"/>
      <point x="173" y="-198"/>
      <point x="185" y="-195"/>
      <point x="198" y="-184" type="curve"/>
      <point x="268" y="-128"/>
      <point x="350" y="-7"/>
      <point x="373" y="85" type="curve"/>
      <point x="386" y="136"/>
      <point x="357" y="155"/>
      <point x="280" y="155" type="curve" smooth="yes"/>
      <point x="257" y="155"/>
      <point x="240" y="153"/>
      <point x="213" y="148" type="curve"/>
      <point x="180" y="14"/>
      <point x="132" y="-85"/>
      <point x="62" y="-167" type="curve"/>
      <point x="85" y="-189"/>
      <point x="111" y="-198"/>
    </contour>
  </outline>
</glyph>
<glyph name="less" format="2">
  <advance width="600"/>
  <unicode hex="003C"/>
  <outline>
    <contour>
      <point x="582" y="470" type="curve"/>
      <point x="587" y="491" type="line"/>
      <point x="597" y="531"/>
      <point x="587" y="586"/>
      <point x="553" y="586" type="curve" smooth="yes"/>
      <point x="540" y="586"/>
      <point x="509" y="579"/>
      <point x="464" y="562" type="curve" smooth="yes"/>
      <point x="318" y="508"/>
      <point x="172" y="416"/>
      <point x="83" y="328" type="curve"/>
      <point x="77" y="305" type="line"/>
      <point x="69" y="271"/>
      <point x="100" y="263"/>
      <point x="181" y="265" type="curve"/>
      <point x="286" y="360"/>
      <point x="391" y="430"/>
    </contour>
    <contour>
      <point x="456" y="6" type="curve"/>
      <point x="464" y="20"/>
      <point x="469" y="34"/>
      <point x="474" y="55" type="curve" smooth="yes"/>
      <point x="486" y="104"/>
      <point x="484" y="139"/>
      <point x="462" y="147" type="curve" smooth="yes"/>
      <point x="318" y="197"/>
      <point x="247" y="253"/>
      <point x="181" y="352" type="curve" smooth="yes"/>
      <point x="176" y="359"/>
      <point x="175" y="367"/>
      <point x="176" y="371" type="curve" smooth="yes"/>
      <point x="178" y="377"/>
      <point x="179" y="381"/>
      <point x="181" y="388" type="curve"/>
      <point x="113" y="355"/>
      <point x="83" y="326"/>
      <point x="78" y="309" type="curve" smooth="yes"/>
      <point x="76" y="300" type="line" smooth="yes"/>
      <point x="69" y="273"/>
      <point x="71" y="258"/>
      <point x="101" y="221" type="curve" smooth="yes"/>
      <point x="175" y="133"/>
      <point x="271" y="54"/>
    </contour>
  </outline>
</glyph>
<glyph name="greater" format="2">
  <advance width="600"/>
  <unicode hex="003E"/>
  <outline>
    <contour>
      <point x="34" y="128" type="curve"/>
      <point x="28" y="107" type="line"/>
      <point x="18" y="67"/>
      <point x="28" y="12"/>
      <point x="62" y="12" type="curve" smooth="yes"/>
      <point x="75" y="12"/>
      <point x="106" y="19"/>
      <point x="152" y="36" type="curve" smooth="yes"/>
      <point x="297" y="90"/>
      <point x="443" y="183"/>
      <point x="532" y="270" type="curve"/>
      <point x="538" y="294" type="line"/>
      <point x="546" y="327"/>
      <point x="515" y="336"/>
      <point x="435" y="333" type="curve"/>
      <point x="329" y="238"/>
      <point x="225" y="168"/>
    </contour>
    <contour>
      <point x="159" y="592" type="curve"/>
      <point x="151" y="579"/>
      <point x="146" y="564"/>
      <point x="141" y="543" type="curve" smooth="yes"/>
      <point x="129" y="495"/>
      <point x="131" y="459"/>
      <point x="153" y="451" type="curve" smooth="yes"/>
      <point x="298" y="402"/>
      <point x="368" y="345"/>
      <point x="434" y="247" type="curve" smooth="yes"/>
      <point x="440" y="239"/>
      <point x="440" y="232"/>
      <point x="439" y="227" type="curve" smooth="yes"/>
      <point x="437" y="222"/>
      <point x="436" y="217"/>
      <point x="435" y="210" type="curve"/>
      <point x="502" y="244"/>
      <point x="533" y="272"/>
      <point x="537" y="290" type="curve" smooth="yes"/>
      <point x="539" y="299" type="line" smooth="yes"/>
      <point x="546" y="325"/>
      <point x="545" y="340"/>
      <point x="515" y="377" type="curve" smooth="yes"/>
      <point x="441" y="465"/>
      <point x="345" y="544"/>
    </contour>
  </outline>
</glyph>
<glyph name="question" format="2">
  <advance width="600"/>
  <unicode hex="003F"/>
  <outline>
    <contour>
      <point x="418" y="720" type="curve" smooth="yes"/>
      <point x="335" y="720"/>
      <point x="260" y="699"/>
      <point x="218" y="666" type="curve" smooth="yes"/>
      <point x="189" y="643"/>
      <point x="168" y="607"/>
      <point x="158" y="567" type="curve" smooth="yes"/>
      <point x="151" y="542"/>
      <point x="152" y="525"/>
      <point x="156" y="507" type="curve"/>
      <point x="160" y="507" type="line"/>
      <point x="229" y="559"/>
      <point x="302" y="587"/>
      <point x="390" y="587" type="curve" smooth="yes"/>
      <point x="479" y="587"/>
      <point x="506" y="561"/>
      <point x="497" y="524" type="curve" smooth="yes"/>
      <point x="491" y="499"/>
      <point x="484" y="483"/>
      <point x="474" y="464" type="curve"/>
      <point x="543" y="458"/>
      <point x="587" y="497"/>
      <point x="596" y="533" type="curve" smooth="yes"/>
      <point x="621" y="630"/>
      <point x="573" y="720"/>
    </contour>
    <contour>
      <point x="453" y="644" type="curve"/>
      <point x="471" y="603"/>
      <point x="475" y="583"/>
      <point x="465" y="544" type="curve" smooth="yes"/>
      <point x="457" y="510"/>
      <point x="441" y="482"/>
      <point x="374" y="441" type="curve" smooth="yes"/>
      <point x="347" y="425" type="line" smooth="yes"/>
      <point x="266" y="377"/>
      <point x="240" y="348"/>
      <point x="232" y="319" type="curve" smooth="yes"/>
      <point x="231" y="315" type="line" smooth="yes"/>
      <point x="224" y="284"/>
      <point x="252" y="249"/>
      <point x="324" y="249" type="curve" smooth="yes"/>
      <point x="332" y="249" type="line"/>
      <point x="333" y="254" type="line" smooth="yes"/>
      <point x="341" y="283"/>
      <point x="358" y="306"/>
      <point x="407" y="334" type="curve" smooth="yes"/>
      <point x="439" y="351" type="line" smooth="yes"/>
      <point x="533" y="402"/>
      <point x="579" y="465"/>
      <point x="595" y="529" type="curve" smooth="yes"/>
      <point x="596" y="533" type="line" smooth="yes"/>
      <point x="613" y="599"/>
      <point x="560" y="678"/>
    </contour>
    <contour>
      <point x="309" y="-3" type="curve"/>
      <point x="337" y="106" type="line" smooth="yes"/>
      <point x="351" y="164"/>
      <point x="293" y="176"/>
      <point x="234" y="176" type="curve" smooth="yes"/>
      <point x="211" y="176"/>
      <point x="183" y="173"/>
      <point x="159" y="168" type="curve"/>
      <point x="131" y="59" type="line" smooth="yes"/>
      <point x="117" y="1"/>
      <point x="175" y="-10"/>
      <point x="234" y="-10" type="curve" smooth="yes"/>
      <point x="257" y="-10"/>
      <point x="285" y="-7"/>
    </contour>
  </outline>
</glyph>
<glyph name="D" format="2">
  <advance width="600"/>
  <unicode hex="0044"/>
  <anchor x="399" y="711" name="top"/>
  <outline>
    <contour>
      <point x="162" y="36" type="curve"/>
      <point x="282" y="515" type="line" smooth="yes"/>
      <point x="301" y="591"/>
      <point x="262" y="622"/>
      <point x="167" y="622" type="curve"/>
      <point x="33" y="85" type="line" smooth="yes"/>
      <point x="26" y="58"/>
      <point x="83" y="36"/>
    </contour>
    <contour>
      <point x="137" y="700" type="curve"/>
      <point x="131" y="685"/>
      <point x="126" y="671"/>
      <point x="121" y="651" type="curve"/>
      <point x="112" y="615"/>
      <point x="112" y="594"/>
      <point x="122" y="580" type="curve" smooth="yes"/>
      <point x="126" y="573"/>
      <point x="132" y="572"/>
      <point x="141" y="572" type="curve" smooth="yes"/>
      <point x="151" y="572"/>
      <point x="167" y="575"/>
      <point x="202" y="580" type="curve" smooth="yes"/>
      <point x="247" y="586"/>
      <point x="298" y="592"/>
      <point x="362" y="592" type="curve" smooth="yes"/>
      <point x="440" y="592"/>
      <point x="478" y="571"/>
      <point x="520" y="529" type="curve"/>
      <point x="595" y="594"/>
      <point x="508" y="720"/>
      <point x="390" y="720" type="curve" smooth="yes"/>
      <point x="303" y="720"/>
      <point x="229" y="714"/>
    </contour>
    <contour>
      <point x="580" y="376" type="curve" smooth="yes"/>
      <point x="588" y="408" type="line" smooth="yes"/>
      <point x="638" y="606"/>
      <point x="551" y="720"/>
      <point x="390" y="720" type="curve"/>
      <point x="364" y="720"/>
      <point x="352" y="697"/>
      <point x="343" y="659" type="curve"/>
      <point x="471" y="619"/>
      <point x="487" y="569"/>
      <point x="444" y="397" type="curve" smooth="yes"/>
      <point x="440" y="380" type="line" smooth="yes"/>
      <point x="396" y="205"/>
      <point x="315" y="122"/>
      <point x="204" y="122" type="curve" smooth="yes"/>
      <point x="139" y="122"/>
      <point x="114" y="132"/>
      <point x="75" y="150" type="curve"/>
      <point x="54" y="136"/>
      <point x="41" y="118"/>
      <point x="33" y="85" type="curve" smooth="yes"/>
      <point x="23" y="43"/>
      <point x="99" y="-10"/>
      <point x="173" y="-10" type="curve" smooth="yes"/>
      <point x="177" y="-10" type="line" smooth="yes"/>
      <point x="369" y="-10"/>
      <point x="514" y="114"/>
    </contour>
  </outline>
</glyph>
<glyph name="E" format="2">
  <advance width="600"/>
  <unicode hex="0045"/>
  <anchor x="410" y="712" name="top"/>
  <anchor x="475" y="-1" name="ogonek"/>
  <anchor x="260" y="-1" name="bottom"/>
  <outline>
    <contour>
      <point x="137" y="700" type="line"/>
      <point x="135" y="693"/>
      <point x="133" y="685"/>
      <point x="131" y="678" type="curve" smooth="yes"/>
      <point x="121" y="637"/>
      <point x="116" y="595"/>
      <point x="126" y="581" type="curve" smooth="yes"/>
      <point x="131" y="574"/>
      <point x="135" y="572"/>
      <point x="145" y="572" type="curve" smooth="yes"/>
      <point x="616" y="572" type="line"/>
      <point x="623" y="584"/>
      <point x="629" y="601"/>
      <point x="633" y="619" type="curve" smooth="yes"/>
      <point x="638" y="637"/>
      <point x="642" y="673"/>
      <point x="630" y="689" type="curve" smooth="yes"/>
      <point x="624" y="698"/>
      <point x="617" y="700"/>
      <point x="602" y="700" type="curve" smooth="yes"/>
    </contour>
    <contour>
      <point x="174" y="83" type="curve"/>
      <point x="279" y="503" type="line" smooth="yes"/>
      <point x="298" y="578"/>
      <point x="268" y="604"/>
      <point x="162" y="604" type="curve"/>
      <point x="44" y="128" type="line"/>
      <point x="35" y="93"/>
      <point x="99" y="83"/>
    </contour>
    <contour>
      <point x="44" y="128" type="line"/>
      <point x="41" y="116" type="line" smooth="yes"/>
      <point x="28" y="64"/>
      <point x="64" y="0"/>
      <point x="106" y="0" type="curve" smooth="yes"/>
      <point x="475" y="0" type="line"/>
      <point x="481" y="13"/>
      <point x="487" y="30"/>
      <point x="493" y="49" type="curve" smooth="yes"/>
      <point x="506" y="105"/>
      <point x="495" y="128"/>
      <point x="456" y="128" type="curve" smooth="yes"/>
    </contour>
    <contour>
      <point x="171" y="391" type="line"/>
      <point x="151" y="313"/>
      <point x="154" y="280"/>
      <point x="193" y="280" type="curve" smooth="yes"/>
      <point x="492" y="280" type="line"/>
      <point x="494" y="283"/>
      <point x="496" y="289"/>
      <point x="497" y="293" type="curve" smooth="yes"/>
      <point x="504" y="320"/>
      <point x="503" y="354"/>
      <point x="487" y="376" type="curve" smooth="yes"/>
      <point x="477" y="389"/>
      <point x="467" y="391"/>
      <point x="451" y="391" type="curve" smooth="yes"/>
    </contour>
  </outline>
</glyph>
<glyph name="F" format="2">
  <advance width="600"/>
  <unicode hex="0046"/>
  <outline>
    <contour>
      <point x="177" y="-6" type="curve"/>
      <point x="179" y="29"/>
      <point x="184" y="59"/>
      <point x="193" y="93" type="curve" smooth="yes"/>
      <point x="295" y="503" type="line"/>
      <point x="314" y="579"/>
      <point x="286" y="605"/>
      <point x="179" y="605" type="curve"/>
      <point x="42" y="53" type="line" smooth="yes"/>
      <point x="31" y="11"/>
      <point x="66" y="-6"/>
      <point x="163" y="-6" type="curve" smooth="yes"/>
      <point x="168" y="-6"/>
      <point x="172" y="-6"/>
    </contour>
    <contour>
      <point x="137" y="700" type="line"/>
      <point x="135" y="693"/>
      <point x="133" y="685"/>
      <point x="131" y="678" type="curve" smooth="yes"/>
      <point x="117" y="620"/>
      <point x="120" y="596"/>
      <point x="128" y="584" type="curve" smooth="yes"/>
      <point x="135" y="575"/>
      <point x="141" y="572"/>
      <point x="158" y="572" type="curve"/>
      <point x="617" y="572" type="line"/>
      <point x="623" y="583"/>
      <point x="629" y="599"/>
      <point x="633" y="619" type="curve" smooth="yes"/>
      <point x="642" y="653"/>
      <point x="639" y="675"/>
      <point x="630" y="688" type="curve" smooth="yes"/>
      <point x="623" y="697"/>
      <point x="615" y="700"/>
      <point x="597" y="700" type="curve"/>
    </contour>
    <contour>
      <point x="134" y="341" type="line"/>
      <point x="113" y="261"/>
      <point x="112" y="213"/>
      <point x="151" y="213" type="curve"/>
      <point x="481" y="213" type="line"/>
      <point x="486" y="221"/>
      <point x="488" y="229"/>
      <point x="491" y="239" type="curve"/>
      <point x="498" y="270"/>
      <point x="495" y="302"/>
      <point x="480" y="322" type="curve" smooth="yes"/>
      <point x="469" y="338"/>
      <point x="460" y="341"/>
      <point x="435" y="341" type="curve"/>
    </contour>
  </outline>
</glyph>
<glyph name="G" format="2">
  <advance width="600"/>
  <unicode hex="0047"/>
  <anchor x="423" y="711" name="top"/>
  <anchor x="245" y="-1" name="bottom"/>
  <outline>
    <contour>
      <point x="455" y="601" type="curve" smooth="yes"/>
      <point x="520" y="601"/>
      <point x="532" y="567"/>
      <point x="517" y="505" type="curve"/>
      <point x="564" y="505"/>
      <point x="584" y="524"/>
      <point x="588" y="539" type="curve" smooth="yes"/>
      <point x="602" y="595"/>
      <point x="604" y="629"/>
      <point x="574" y="669" type="curve" smooth="yes"/>
      <point x="551" y="699"/>
      <point x="517" y="720"/>
      <point x="471" y="720" type="curve" smooth="yes"/>
      <point x="296" y="720"/>
      <point x="137" y="601"/>
      <point x="65" y="315" type="curve" smooth="yes"/>
      <point x="62" y="305" type="line" smooth="yes"/>
      <point x="43" y="228"/>
      <point x="80" y="131"/>
      <point x="175" y="128" type="curve"/>
      <point x="170" y="175"/>
      <point x="175" y="217"/>
      <point x="188" y="274" type="curve" smooth="yes"/>
      <point x="190" y="284" type="line" smooth="yes"/>
      <point x="240" y="504"/>
      <point x="360" y="601"/>
    </contour>
    <contour>
      <point x="285" y="108" type="curve" smooth="yes"/>
      <point x="173" y="108"/>
      <point x="141" y="190"/>
      <point x="179" y="341" type="curve"/>
      <point x="106" y="354"/>
      <point x="74" y="352"/>
      <point x="62" y="305" type="curve" smooth="yes"/>
      <point x="19" y="132"/>
      <point x="84" y="-20"/>
      <point x="268" y="-20" type="curve" smooth="yes"/>
      <point x="390" y="-20"/>
      <point x="486" y="30"/>
      <point x="514" y="133" type="curve" smooth="yes"/>
      <point x="516" y="144" type="line" smooth="yes"/>
      <point x="534" y="209"/>
      <point x="503" y="279"/>
      <point x="449" y="279" type="curve"/>
      <point x="448" y="260"/>
      <point x="446" y="247"/>
      <point x="438" y="218" type="curve" smooth="yes"/>
      <point x="419" y="141"/>
      <point x="362" y="108"/>
    </contour>
    <contour>
      <point x="331" y="345" type="line"/>
      <point x="329" y="340"/>
      <point x="327" y="334"/>
      <point x="325" y="327" type="curve" smooth="yes"/>
      <point x="317" y="292"/>
      <point x="321" y="272"/>
      <point x="332" y="258" type="curve" smooth="yes"/>
      <point x="347" y="238"/>
      <point x="368" y="230"/>
      <point x="434" y="230" type="curve"/>
      <point x="561" y="230" type="line"/>
      <point x="564" y="239" type="line" smooth="yes"/>
      <point x="583" y="319"/>
      <point x="576" y="345"/>
      <point x="530" y="345" type="curve" smooth="yes"/>
    </contour>
    <contour>
      <point x="568" y="460" type="curve"/>
      <point x="588" y="539" type="line" smooth="yes"/>
      <point x="610" y="627"/>
      <point x="565" y="656"/>
      <point x="511" y="653" type="curve"/>
      <point x="484" y="607"/>
      <point x="462" y="566"/>
      <point x="453" y="530" type="curve" smooth="yes"/>
      <point x="448" y="511" type="line" smooth="yes"/>
      <point x="438" y="470"/>
      <point x="454" y="455"/>
      <point x="516" y="455" type="curve" smooth="yes"/>
      <point x="536" y="455"/>
      <point x="554" y="456"/>
    </contour>
  </outline>
</glyph>
<glyph name="H" format="2">
  <advance width="600"/>
  <unicode hex="0048"/>
  <anchor x="396" y="711" name="top"/>
  <outline>
    <contour>
      <point x="174" y="704" type="curve"/>
      <point x="174" y="668"/>
      <point x="168" y="631"/>
      <point x="158" y="592" type="curve" smooth="yes"/>
      <point x="22" y="49" type="line" smooth="yes"/>
      <point x="12" y="9"/>
      <point x="44" y="-10"/>
      <point x="116" y="-10" type="curve" smooth="yes"/>
      <point x="130" y="-10"/>
      <point x="142" y="-9"/>
      <point x="149" y="-8" type="curve"/>
      <point x="312" y="642" type="line" smooth="yes"/>
      <point x="317" y="666"/>
      <point x="317" y="679"/>
      <point x="309" y="690" type="curve" smooth="yes"/>
      <point x="298" y="705"/>
      <point x="278" y="710"/>
      <point x="234" y="710" type="curve" smooth="yes"/>
      <point x="213" y="710"/>
      <point x="195" y="708"/>
    </contour>
    <contour>
      <point x="476" y="-4" type="curve"/>
      <point x="476" y="32"/>
      <point x="482" y="69"/>
      <point x="492" y="108" type="curve" smooth="yes"/>
      <point x="628" y="651" type="line" smooth="yes"/>
      <point x="637" y="690"/>
      <point x="599" y="710"/>
      <point x="517" y="710" type="curve" smooth="yes"/>
      <point x="510" y="710"/>
      <point x="505" y="710"/>
      <point x="502" y="710" type="curve"/>
      <point x="338" y="58" type="line" smooth="yes"/>
      <point x="332" y="34"/>
      <point x="333" y="21"/>
      <point x="341" y="10" type="curve" smooth="yes"/>
      <point x="351" y="-5"/>
      <point x="372" y="-10"/>
      <point x="415" y="-10" type="curve" smooth="yes"/>
      <point x="437" y="-10"/>
      <point x="455" y="-8"/>
    </contour>
    <contour>
      <point x="57" y="379" type="line"/>
      <point x="51" y="356" type="line" smooth="yes"/>
      <point x="40" y="311"/>
      <point x="43" y="280"/>
      <point x="60" y="258" type="curve" smooth="yes"/>
      <point x="64" y="252"/>
      <point x="67" y="250"/>
      <point x="74" y="250" type="curve"/>
      <point x="420" y="250" type="line"/>
      <point x="445" y="349"/>
      <point x="425" y="379"/>
      <point x="350" y="379" type="curve" smooth="yes"/>
    </contour>
  </outline>
</glyph>
<glyph name="I" format="2">
  <advance width="600"/>
  <unicode hex="0049"/>
  <anchor x="410" y="712" name="top"/>
  <anchor x="474" y="-1" name="ogonek"/>
  <anchor x="232" y="-1" name="bottom"/>
  <outline>
    <contour>
      <point x="316" y="71" type="curve"/>
      <point x="425" y="503" type="line" smooth="yes"/>
      <point x="444" y="578"/>
      <point x="416" y="604"/>
      <point x="308" y="604" type="curve"/>
      <point x="208" y="201" type="line" smooth="yes"/>
      <point x="185" y="112"/>
      <point x="209" y="71"/>
    </contour>
    <contour>
      <point x="158" y="700" type="line"/>
      <point x="153" y="692"/>
      <point x="149" y="681"/>
      <point x="145" y="667" type="curve"/>
      <point x="137" y="634"/>
      <point x="140" y="613"/>
      <point x="153" y="595" type="curve" smooth="yes"/>
      <point x="167" y="576"/>
      <point x="192" y="572"/>
      <point x="253" y="572" type="curve" smooth="yes"/>
      <point x="617" y="572" type="line"/>
      <point x="625" y="589"/>
      <point x="632" y="607"/>
      <point x="635" y="622" type="curve" smooth="yes"/>
      <point x="647" y="668"/>
      <point x="647" y="700"/>
      <point x="599" y="700" type="curve" smooth="yes"/>
    </contour>
    <contour>
      <point x="17" y="128" type="line"/>
      <point x="9" y="114"/>
      <point x="3" y="98"/>
      <point x="-1" y="82" type="curve"/>
      <point x="-8" y="55"/>
      <point x="-10" y="32"/>
      <point x="3" y="16" type="curve" smooth="yes"/>
      <point x="12" y="4"/>
      <point x="21" y="0"/>
      <point x="56" y="0" type="curve" smooth="yes"/>
      <point x="474" y="0" type="line"/>
      <point x="481" y="13"/>
      <point x="488" y="30"/>
      <point x="493" y="50" type="curve" smooth="yes"/>
      <point x="504" y="96"/>
      <point x="504" y="128"/>
      <point x="456" y="128" type="curve" smooth="yes"/>
    </contour>
  </outline>
</glyph>
<glyph name="J" format="2">
  <advance width="600"/>
  <unicode hex="004A"/>
  <anchor x="411" y="711" name="top"/>
  <outline>
    <contour>
      <point x="237" y="700" type="line"/>
      <point x="233" y="692"/>
      <point x="229" y="681"/>
      <point x="226" y="668" type="curve" smooth="yes"/>
      <point x="217" y="634"/>
      <point x="220" y="613"/>
      <point x="233" y="595" type="curve" smooth="yes"/>
      <point x="247" y="576"/>
      <point x="272" y="572"/>
      <point x="333" y="572" type="curve" smooth="yes"/>
      <point x="523" y="572" type="line"/>
      <point x="547" y="669"/>
      <point x="533" y="700"/>
      <point x="489" y="700" type="curve"/>
    </contour>
    <contour>
      <point x="492" y="193" type="curve" smooth="yes"/>
      <point x="608" y="654" type="line" smooth="yes"/>
      <point x="614" y="681"/>
      <point x="587" y="700"/>
      <point x="509" y="700" type="curve" smooth="yes"/>
      <point x="479" y="700" type="line"/>
      <point x="362" y="230" type="line" smooth="yes"/>
      <point x="342" y="154"/>
      <point x="326" y="116"/>
      <point x="272" y="58" type="curve"/>
      <point x="357" y="20"/>
      <point x="468" y="98"/>
    </contour>
    <contour>
      <point x="239" y="108" type="curve" smooth="yes"/>
      <point x="165" y="108"/>
      <point x="126" y="125"/>
      <point x="74" y="163" type="curve"/>
      <point x="70" y="163" type="line"/>
      <point x="63" y="149"/>
      <point x="58" y="133"/>
      <point x="54" y="118" type="curve"/>
      <point x="40" y="65"/>
      <point x="46" y="39"/>
      <point x="59" y="22" type="curve" smooth="yes"/>
      <point x="79" y="-5"/>
      <point x="143" y="-20"/>
      <point x="205" y="-20" type="curve" smooth="yes"/>
      <point x="215" y="-20" type="line" smooth="yes"/>
      <point x="364" y="-20"/>
      <point x="462" y="73"/>
      <point x="492" y="193" type="curve"/>
      <point x="497" y="209"/>
      <point x="487" y="250"/>
      <point x="456" y="250" type="curve"/>
      <point x="402" y="163"/>
      <point x="319" y="108"/>
    </contour>
  </outline>
</glyph>
<glyph name="L" format="2">
  <advance width="600"/>
  <unicode hex="004C"/>
  <anchor x="492" y="550" name="caronslovak"/>
  <anchor x="253" y="711" name="top"/>
  <anchor x="472" y="400" name="dot"/>
  <anchor x="239" y="-1" name="bottom"/>
  <outline>
    <contour>
      <point x="160" y="64" type="curve"/>
      <point x="305" y="642" type="line" smooth="yes"/>
      <point x="311" y="666"/>
      <point x="312" y="682"/>
      <point x="302" y="692" type="curve" smooth="yes"/>
      <point x="289" y="705"/>
      <point x="272" y="710"/>
      <point x="228" y="710" type="curve" smooth="yes"/>
      <point x="206" y="710"/>
      <point x="188" y="708"/>
      <point x="168" y="704" type="curve"/>
      <point x="167" y="669"/>
      <point x="162" y="632"/>
      <point x="152" y="592" type="curve" smooth="yes"/>
      <point x="38" y="137" type="line" smooth="yes"/>
      <point x="29" y="100"/>
      <point x="71" y="64"/>
    </contour>
    <contour>
      <point x="38" y="137" type="line"/>
      <point x="32" y="116" type="line" smooth="yes"/>
      <point x="19" y="64"/>
      <point x="55" y="0"/>
      <point x="98" y="0" type="curve" smooth="yes"/>
      <point x="483" y="0" type="line"/>
      <point x="491" y="15"/>
      <point x="497" y="35"/>
      <point x="503" y="58" type="curve" smooth="yes"/>
      <point x="518" y="117"/>
      <point x="498" y="137"/>
      <point x="459" y="137" type="curve" smooth="yes"/>
    </contour>
  </outline>
</glyph>
<glyph name="M" format="2">
  <advance width="600"/>
  <unicode hex="004D"/>
  <outline>
    <contour>
      <point x="117" y="-8" type="curve"/>
      <point x="134" y="61"/>
      <point x="152" y="130"/>
      <point x="169" y="199" type="curve" smooth="yes"/>
      <point x="200" y="322"/>
      <point x="217" y="490"/>
      <point x="262" y="670" type="curve" smooth="yes"/>
      <point x="264" y="677"/>
      <point x="265" y="689"/>
      <point x="261" y="694" type="curve" smooth="yes"/>
      <point x="251" y="706"/>
      <point x="244" y="710"/>
      <point x="223" y="710" type="curve" smooth="yes"/>
      <point x="206" y="710"/>
      <point x="188" y="708"/>
      <point x="163" y="703" type="curve"/>
      <point x="162" y="672"/>
      <point x="154" y="636"/>
      <point x="145" y="600" type="curve" smooth="yes"/>
      <point x="7" y="48" type="line" smooth="yes"/>
      <point x="3" y="32"/>
      <point x="5" y="23"/>
      <point x="12" y="13" type="curve" smooth="yes"/>
      <point x="23" y="-1"/>
      <point x="58" y="-10"/>
      <point x="89" y="-10" type="curve" smooth="yes"/>
      <point x="100" y="-10"/>
      <point x="110" y="-9"/>
    </contour>
    <contour>
      <point x="483" y="-6" type="curve"/>
      <point x="486" y="28"/>
      <point x="492" y="63"/>
      <point x="501" y="100" type="curve" smooth="yes"/>
      <point x="643" y="664" type="line" smooth="yes"/>
      <point x="644" y="673"/>
      <point x="643" y="681"/>
      <point x="638" y="687" type="curve" smooth="yes"/>
      <point x="629" y="699"/>
      <point x="601" y="710"/>
      <point x="558" y="710" type="curve" smooth="yes"/>
      <point x="551" y="710" type="line"/>
      <point x="554" y="695"/>
      <point x="552" y="688"/>
      <point x="548" y="670" type="curve" smooth="yes"/>
      <point x="517" y="543"/>
      <point x="428" y="303"/>
      <point x="401" y="197" type="curve" smooth="yes"/>
      <point x="389" y="149"/>
      <point x="377" y="100"/>
      <point x="365" y="51" type="curve" smooth="yes"/>
      <point x="360" y="33"/>
      <point x="362" y="24"/>
      <point x="369" y="13" type="curve" smooth="yes"/>
      <point x="380" y="-1"/>
      <point x="415" y="-10"/>
      <point x="446" y="-10" type="curve"/>
      <point x="459" y="-10"/>
      <point x="470" y="-9"/>
    </contour>
    <contour>
      <point x="223" y="710" type="line"/>
      <point x="206" y="531"/>
      <point x="233" y="302"/>
      <point x="279" y="241" type="curve"/>
      <point x="282" y="237"/>
      <point x="287" y="236"/>
      <point x="292" y="236" type="curve"/>
      <point x="305" y="236"/>
      <point x="331" y="302"/>
      <point x="344" y="360" type="curve"/>
      <point x="310" y="415"/>
      <point x="299" y="530"/>
      <point x="315" y="676" type="curve"/>
      <point x="316" y="695"/>
      <point x="292" y="710"/>
      <point x="227" y="710" type="curve"/>
    </contour>
    <contour>
      <point x="551" y="710" type="curve" smooth="yes"/>
      <point x="536" y="710"/>
      <point x="519" y="709"/>
      <point x="505" y="706" type="curve"/>
      <point x="437" y="521"/>
      <point x="364" y="409"/>
      <point x="300" y="358" type="curve"/>
      <point x="285" y="346"/>
      <point x="268" y="236"/>
      <point x="292" y="236" type="curve"/>
      <point x="301" y="236" type="line"/>
      <point x="398" y="305"/>
      <point x="518" y="509"/>
      <point x="565" y="659" type="curve"/>
      <point x="576" y="692"/>
      <point x="570" y="710"/>
    </contour>
  </outline>
</glyph>
<glyph name="N" format="2">
  <advance width="600"/>
  <unicode hex="004E"/>
  <anchor x="410" y="712" name="top"/>
  <anchor x="230" y="-1" name="bottom"/>
  <outline>
    <contour>
      <point x="132" y="-5" type="curve"/>
      <point x="174" y="166" type="line"/>
      <point x="249" y="465"/>
      <point x="274" y="676"/>
      <point x="259" y="695" type="curve" smooth="yes"/>
      <point x="254" y="702"/>
      <point x="244" y="710"/>
      <point x="237" y="710" type="curve"/>
      <point x="215" y="710"/>
      <point x="198" y="708"/>
      <point x="172" y="702" type="curve"/>
      <point x="171" y="666"/>
      <point x="166" y="629"/>
      <point x="157" y="592" type="curve" smooth="yes"/>
      <point x="20" y="49" type="line"/>
      <point x="10" y="6"/>
      <point x="59" y="-9"/>
      <point x="97" y="-9" type="curve"/>
      <point x="111" y="-9"/>
      <point x="120" y="-8"/>
    </contour>
    <contour>
      <point x="462" y="-10" type="line"/>
      <point x="629" y="657" type="line"/>
      <point x="638" y="693"/>
      <point x="597" y="710"/>
      <point x="541" y="710" type="curve"/>
      <point x="518" y="710" type="line"/>
      <point x="441" y="400" type="line"/>
      <point x="389" y="194"/>
      <point x="367" y="43"/>
      <point x="387" y="16" type="curve" smooth="yes"/>
      <point x="401" y="-2"/>
      <point x="422" y="-10"/>
      <point x="438" y="-10" type="curve"/>
    </contour>
    <contour>
      <point x="237" y="710" type="line"/>
      <point x="253" y="685"/>
      <point x="250" y="635"/>
      <point x="247" y="592" type="curve" smooth="yes"/>
      <point x="230" y="332"/>
      <point x="284" y="105"/>
      <point x="341" y="28" type="curve"/>
      <point x="360" y="4"/>
      <point x="395" y="-10"/>
      <point x="438" y="-10" type="curve" smooth="yes"/>
      <point x="442" y="-10"/>
      <point x="443" y="-10"/>
      <point x="447" y="-10" type="curve"/>
      <point x="451" y="-10"/>
      <point x="458" y="10"/>
      <point x="465" y="39" type="curve"/>
      <point x="355" y="156"/>
      <point x="330" y="400"/>
      <point x="340" y="667" type="curve"/>
      <point x="341" y="695"/>
      <point x="299" y="710"/>
      <point x="239" y="710" type="curve"/>
    </contour>
  </outline>
</glyph>
<glyph name="O" format="2">
  <advance width="600"/>
  <unicode hex="004F"/>
  <anchor x="410" y="712" name="top"/>
  <anchor x="325" y="-1" name="ogonek"/>
  <anchor x="232" y="-1" name="bottom"/>
  <outline>
    <contour>
      <point x="403" y="720" type="curve" smooth="yes"/>
      <point x="255" y="720"/>
      <point x="134" y="597"/>
      <point x="73" y="353" type="curve" smooth="yes"/>
      <point x="69" y="334" type="line" smooth="yes"/>
      <point x="12" y="107"/>
      <point x="83" y="-20"/>
      <point x="242" y="-20" type="curve" smooth="yes"/>
      <point x="279" y="-20"/>
      <point x="305" y="20"/>
      <point x="320" y="78" type="curve"/>
      <point x="184" y="80"/>
      <point x="159" y="156"/>
      <point x="196" y="312" type="curve" smooth="yes"/>
      <point x="199" y="327" type="line" smooth="yes"/>
      <point x="241" y="505"/>
      <point x="305" y="592"/>
      <point x="387" y="592" type="curve" smooth="yes"/>
      <point x="427" y="592"/>
      <point x="453" y="579"/>
      <point x="485" y="545" type="curve"/>
      <point x="548" y="596"/>
      <point x="497" y="720"/>
    </contour>
    <contour>
      <point x="242" y="-20" type="curve" smooth="yes"/>
      <point x="396" y="-20"/>
      <point x="505" y="92"/>
      <point x="565" y="332" type="curve" smooth="yes"/>
      <point x="570" y="350" type="line" smooth="yes"/>
      <point x="627" y="579"/>
      <point x="565" y="720"/>
      <point x="403" y="720" type="curve" smooth="yes"/>
      <point x="365" y="720"/>
      <point x="335" y="680"/>
      <point x="320" y="622" type="curve"/>
      <point x="459" y="620"/>
      <point x="479" y="533"/>
      <point x="442" y="372" type="curve" smooth="yes"/>
      <point x="438" y="357" type="line" smooth="yes"/>
      <point x="397" y="183"/>
      <point x="335" y="108"/>
      <point x="253" y="108" type="curve" smooth="yes"/>
      <point x="212" y="108"/>
      <point x="182" y="119"/>
      <point x="155" y="155" type="curve"/>
      <point x="83" y="101"/>
      <point x="147" y="-20"/>
    </contour>
  </outline>
</glyph>
<glyph name="P" format="2">
  <advance width="600"/>
  <unicode hex="0050"/>
  <outline>
    <contour>
      <point x="164" y="-4" type="curve"/>
      <point x="164" y="32"/>
      <point x="170" y="69"/>
      <point x="180" y="108" type="curve" smooth="yes"/>
      <point x="283" y="519" type="line" smooth="yes"/>
      <point x="301" y="595"/>
      <point x="264" y="626"/>
      <point x="169" y="626" type="curve"/>
      <point x="26" y="58" type="line" smooth="yes"/>
      <point x="20" y="34"/>
      <point x="21" y="21"/>
      <point x="29" y="10" type="curve" smooth="yes"/>
      <point x="39" y="-5"/>
      <point x="59" y="-10"/>
      <point x="103" y="-10" type="curve" smooth="yes"/>
      <point x="125" y="-10"/>
      <point x="143" y="-8"/>
    </contour>
    <contour>
      <point x="137" y="700" type="curve"/>
      <point x="131" y="685"/>
      <point x="126" y="671"/>
      <point x="121" y="651" type="curve"/>
      <point x="112" y="615"/>
      <point x="112" y="594"/>
      <point x="122" y="580" type="curve" smooth="yes"/>
      <point x="126" y="573"/>
      <point x="132" y="572"/>
      <point x="141" y="572" type="curve" smooth="yes"/>
      <point x="151" y="572"/>
      <point x="167" y="575"/>
      <point x="202" y="580" type="curve" smooth="yes"/>
      <point x="247" y="586"/>
      <point x="298" y="592"/>
      <point x="362" y="592" type="curve" smooth="yes"/>
      <point x="448" y="592"/>
      <point x="476" y="578"/>
      <point x="514" y="538" type="curve"/>
      <point x="585" y="588"/>
      <point x="519" y="720"/>
      <point x="411" y="720" type="curve" smooth="yes"/>
      <point x="324" y="720"/>
      <point x="229" y="714"/>
    </contour>
    <contour>
      <point x="598" y="480" type="curve" smooth="yes"/>
      <point x="604" y="503" type="line" smooth="yes"/>
      <point x="635" y="630"/>
      <point x="559" y="720"/>
      <point x="411" y="720" type="curve"/>
      <point x="375" y="720"/>
      <point x="357" y="698"/>
      <point x="348" y="661" type="curve"/>
      <point x="462" y="646"/>
      <point x="489" y="603"/>
      <point x="466" y="508" type="curve" smooth="yes"/>
      <point x="460" y="487" type="line" smooth="yes"/>
      <point x="426" y="350"/>
      <point x="355" y="289"/>
      <point x="276" y="289" type="curve" smooth="yes"/>
      <point x="243" y="289"/>
      <point x="232" y="291"/>
      <point x="211" y="297" type="curve"/>
      <point x="202" y="289"/>
      <point x="198" y="282"/>
      <point x="195" y="269" type="curve" smooth="yes"/>
      <point x="184" y="229"/>
      <point x="234" y="167"/>
      <point x="290" y="167" type="curve" smooth="yes"/>
      <point x="293" y="167" type="line" smooth="yes"/>
      <point x="422" y="167"/>
      <point x="541" y="254"/>
    </contour>
  </outline>
</glyph>
<glyph name="Q" format="2">
  <advance width="600"/>
  <unicode hex="0051"/>
  <outline>
    <contour>
      <point x="403" y="720" type="curve" smooth="yes"/>
      <point x="255" y="720"/>
      <point x="134" y="597"/>
      <point x="73" y="353" type="curve" smooth="yes"/>
      <point x="69" y="334" type="line" smooth="yes"/>
      <point x="12" y="107"/>
      <point x="83" y="-20"/>
      <point x="242" y="-20" type="curve" smooth="yes"/>
      <point x="279" y="-20"/>
      <point x="305" y="20"/>
      <point x="320" y="78" type="curve"/>
      <point x="184" y="80"/>
      <point x="159" y="156"/>
      <point x="196" y="312" type="curve" smooth="yes"/>
      <point x="199" y="327" type="line" smooth="yes"/>
      <point x="241" y="505"/>
      <point x="305" y="592"/>
      <point x="387" y="592" type="curve" smooth="yes"/>
      <point x="427" y="592"/>
      <point x="453" y="579"/>
      <point x="485" y="545" type="curve"/>
      <point x="548" y="596"/>
      <point x="497" y="720"/>
    </contour>
    <contour>
      <point x="242" y="-20" type="curve" smooth="yes"/>
      <point x="396" y="-20"/>
      <point x="505" y="92"/>
      <point x="565" y="332" type="curve" smooth="yes"/>
      <point x="570" y="350" type="line" smooth="yes"/>
      <point x="627" y="579"/>
      <point x="565" y="720"/>
      <point x="403" y="720" type="curve" smooth="yes"/>
      <point x="365" y="720"/>
      <point x="335" y="680"/>
      <point x="320" y="622" type="curve"/>
      <point x="459" y="620"/>
      <point x="479" y="533"/>
      <point x="442" y="372" type="curve" smooth="yes"/>
      <point x="438" y="357" type="line" smooth="yes"/>
      <point x="397" y="183"/>
      <point x="335" y="108"/>
      <point x="253" y="108" type="curve" smooth="yes"/>
      <point x="212" y="108"/>
      <point x="182" y="119"/>
      <point x="155" y="155" type="curve"/>
      <point x="84" y="101"/>
      <point x="147" y="-20"/>
    </contour>
    <contour>
      <point x="360" y="116" type="line"/>
      <point x="267" y="72"/>
      <point x="249" y="55"/>
      <point x="257" y="27" type="curve" smooth="yes"/>
      <point x="289" y="-80" type="line" smooth="yes"/>
      <point x="311" y="-150"/>
      <point x="339" y="-181"/>
      <point x="389" y="-181" type="curve" smooth="yes"/>
      <point x="394" y="-181" type="line" smooth="yes"/>
      <point x="437" y="-181"/>
      <point x="471" y="-157"/>
      <point x="490" y="-91" type="curve" smooth="yes"/>
      <point x="496" y="-67"/>
      <point x="497" y="-47"/>
      <point x="498" y="-28" type="curve"/>
      <point x="494" y="-28" type="line"/>
      <point x="479" y="-36"/>
      <point x="469" y="-39"/>
      <point x="452" y="-39" type="curve" smooth="yes"/>
      <point x="419" y="-39"/>
      <point x="409" y="-26"/>
      <point x="398" y="5" type="curve" smooth="yes"/>
    </contour>
  </outline>
</glyph>
<glyph name="T" format="2">
  <advance width="600"/>
  <unicode hex="0054"/>
  <anchor x="407" y="711" name="top"/>
  <anchor x="232" y="-1" name="bottom"/>
  <outline>
    <contour>
      <point x="143" y="700" type="line"/>
      <point x="138" y="693"/>
      <point x="135" y="683"/>
      <point x="132" y="669" type="curve" smooth="yes"/>
      <point x="124" y="637"/>
      <point x="125" y="614"/>
      <point x="139" y="595" type="curve" smooth="yes"/>
      <point x="153" y="576"/>
      <point x="181" y="572"/>
      <point x="250" y="572" type="curve" smooth="yes"/>
      <point x="632" y="572" type="line"/>
      <point x="639" y="585"/>
      <point x="646" y="602"/>
      <point x="650" y="622" type="curve" smooth="yes"/>
      <point x="661" y="666"/>
      <point x="662" y="700"/>
      <point x="614" y="700" type="curve" smooth="yes"/>
    </contour>
    <contour>
      <point x="314" y="-4" type="curve"/>
      <point x="314" y="32"/>
      <point x="321" y="69"/>
      <point x="330" y="108" type="curve" smooth="yes"/>
      <point x="429" y="504" type="line" smooth="yes"/>
      <point x="448" y="580"/>
      <point x="419" y="605"/>
      <point x="313" y="605" type="curve"/>
      <point x="176" y="58" type="line" smooth="yes"/>
      <point x="170" y="34"/>
      <point x="171" y="21"/>
      <point x="179" y="10" type="curve" smooth="yes"/>
      <point x="190" y="-5"/>
      <point x="210" y="-10"/>
      <point x="253" y="-10" type="curve" smooth="yes"/>
      <point x="275" y="-10"/>
      <point x="293" y="-8"/>
    </contour>
  </outline>
</glyph>
<glyph name="U" format="2">
  <advance width="600"/>
  <unicode hex="0055"/>
  <anchor x="410" y="712" name="top"/>
  <anchor x="478" y="-5" name="ogonek"/>
  <anchor x="408" y="707" name="ring"/>
  <anchor x="230" y="-1" name="bottom"/>
  <outline>
    <contour>
      <point x="158" y="704" type="curve"/>
      <point x="158" y="669"/>
      <point x="153" y="630"/>
      <point x="142" y="587" type="curve" smooth="yes"/>
      <point x="31" y="142" type="line"/>
      <point x="20" y="100"/>
      <point x="60" y="89"/>
      <point x="129" y="89" type="curve"/>
      <point x="208" y="293"/>
      <point x="246" y="409"/>
      <point x="282" y="549" type="curve" smooth="yes"/>
      <point x="284" y="558" type="line"/>
      <point x="313" y="675"/>
      <point x="289" y="710"/>
      <point x="216" y="710" type="curve"/>
      <point x="195" y="710"/>
      <point x="178" y="708"/>
    </contour>
    <contour>
      <point x="147" y="-12" type="curve" smooth="yes"/>
      <point x="217" y="-12"/>
      <point x="294" y="24"/>
      <point x="370" y="119" type="curve" smooth="yes"/>
      <point x="417" y="179"/>
      <point x="418" y="212"/>
      <point x="407" y="262" type="curve"/>
      <point x="340" y="158"/>
      <point x="270" y="137"/>
      <point x="197" y="137" type="curve" smooth="yes"/>
      <point x="157" y="137"/>
      <point x="138" y="155"/>
      <point x="140" y="200" type="curve"/>
      <point x="108" y="199"/>
      <point x="38" y="173"/>
      <point x="31" y="142" type="curve" smooth="yes"/>
      <point x="13" y="70"/>
      <point x="67" y="-12"/>
    </contour>
    <contour>
      <point x="478" y="-4" type="curve"/>
      <point x="479" y="29"/>
      <point x="485" y="64"/>
      <point x="494" y="101" type="curve" smooth="yes"/>
      <point x="633" y="657" type="line" smooth="yes"/>
      <point x="642" y="694"/>
      <point x="612" y="710"/>
      <point x="543" y="710" type="curve" smooth="yes"/>
      <point x="528" y="710"/>
      <point x="517" y="709"/>
      <point x="505" y="707" type="curve"/>
      <point x="419" y="362" type="line" smooth="yes"/>
      <point x="360" y="128"/>
      <point x="357" y="46"/>
      <point x="381" y="13" type="curve" smooth="yes"/>
      <point x="394" y="-5"/>
      <point x="411" y="-10"/>
      <point x="434" y="-10" type="curve" smooth="yes"/>
      <point x="450" y="-10"/>
      <point x="464" y="-8"/>
    </contour>
  </outline>
</glyph>
<glyph name="V" format="2">
  <advance width="600"/>
  <unicode hex="0056"/>
  <outline>
    <contour>
      <point x="183" y="710" type="curve"/>
      <point x="162" y="710" type="line"/>
      <point x="86" y="357"/>
      <point x="79" y="144"/>
      <point x="161" y="33" type="curve" smooth="yes"/>
      <point x="190" y="-4"/>
      <point x="218" y="-10"/>
      <point x="245" y="-10" type="curve" smooth="yes"/>
      <point x="262" y="-10" type="line" smooth="yes"/>
      <point x="283" y="-10"/>
      <point x="307" y="21"/>
      <point x="332" y="67" type="curve"/>
      <point x="328" y="67"/>
      <point x="326" y="67"/>
      <point x="323" y="67" type="curve" smooth="yes"/>
      <point x="316" y="67"/>
      <point x="311" y="69"/>
      <point x="301" y="77" type="curve"/>
      <point x="212" y="162"/>
      <point x="214" y="282"/>
      <point x="291" y="660" type="curve"/>
      <point x="298" y="695"/>
      <point x="276" y="710"/>
    </contour>
    <contour>
      <point x="541" y="710" type="curve"/>
      <point x="520" y="710" type="line"/>
      <point x="400" y="326"/>
      <point x="349" y="189"/>
      <point x="219" y="98" type="curve"/>
      <point x="189" y="78"/>
      <point x="197" y="-10"/>
      <point x="255" y="-10" type="curve"/>
      <point x="284" y="-10" type="line"/>
      <point x="437" y="98"/>
      <point x="541" y="320"/>
      <point x="639" y="644" type="curve"/>
      <point x="651" y="682"/>
      <point x="600" y="710"/>
    </contour>
  </outline>
</glyph>
<glyph name="W" format="2">
  <advance width="600"/>
  <unicode hex="0057"/>
  <anchor x="410" y="711" name="top"/>
  <outline>
    <contour>
      <point x="141" y="710" type="curve"/>
      <point x="21" y="242"/>
      <point x="16" y="94"/>
      <point x="76" y="11" type="curve"/>
      <point x="86" y="-3"/>
      <point x="102" y="-10"/>
      <point x="119" y="-10" type="curve"/>
      <point x="123" y="-10" type="line" smooth="yes"/>
      <point x="136" y="-10"/>
      <point x="174" y="69"/>
      <point x="182" y="100" type="curve"/>
      <point x="141" y="139"/>
      <point x="151" y="210"/>
      <point x="264" y="657" type="curve"/>
      <point x="266" y="669"/>
      <point x="265" y="677"/>
      <point x="258" y="685" type="curve" smooth="yes"/>
      <point x="248" y="698"/>
      <point x="217" y="710"/>
      <point x="163" y="710" type="curve"/>
      <point x="156" y="710"/>
      <point x="148" y="710"/>
    </contour>
    <contour>
      <point x="543" y="710" type="curve"/>
      <point x="420" y="207"/>
      <point x="386" y="148"/>
      <point x="332" y="98" type="curve"/>
      <point x="320" y="43"/>
      <point x="329" y="-10"/>
      <point x="360" y="-10" type="curve"/>
      <point x="380" y="-10" type="line"/>
      <point x="489" y="104"/>
      <point x="569" y="262"/>
      <point x="665" y="651" type="curve"/>
      <point x="669" y="668"/>
      <point x="669" y="676"/>
      <point x="661" y="686" type="curve" smooth="yes"/>
      <point x="651" y="700"/>
      <point x="621" y="710"/>
      <point x="565" y="710" type="curve"/>
      <point x="558" y="710"/>
      <point x="550" y="710"/>
    </contour>
    <contour>
      <point x="346" y="538" type="curve"/>
      <point x="326" y="538" type="line"/>
      <point x="259" y="265"/>
      <point x="202" y="178"/>
      <point x="96" y="48" type="curve"/>
      <point x="89" y="16"/>
      <point x="94" y="-10"/>
      <point x="119" y="-10" type="curve"/>
      <point x="144" y="-10" type="line"/>
      <point x="260" y="129"/>
      <point x="326" y="265"/>
      <point x="381" y="488" type="curve"/>
      <point x="390" y="522"/>
      <point x="368" y="538"/>
    </contour>
    <contour>
      <point x="346" y="538" type="curve"/>
      <point x="340" y="538" type="line"/>
      <point x="272" y="238"/>
      <point x="264" y="96"/>
      <point x="319" y="6" type="curve"/>
      <point x="325" y="-5"/>
      <point x="335" y="-10"/>
      <point x="351" y="-10" type="curve"/>
      <point x="361" y="-10" type="line"/>
      <point x="375" y="-10"/>
      <point x="401" y="26"/>
      <point x="406" y="45" type="curve"/>
      <point x="351" y="106"/>
      <point x="336" y="245"/>
      <point x="400" y="501" type="curve"/>
      <point x="405" y="521"/>
      <point x="384" y="538"/>
    </contour>
  </outline>
</glyph>
<glyph name="X" format="2">
  <advance width="600"/>
  <unicode hex="0058"/>
  <outline>
    <contour>
      <point x="441" y="-9" type="curve" smooth="yes"/>
      <point x="463" y="-9"/>
      <point x="481" y="-7"/>
      <point x="497" y="-4" type="curve"/>
      <point x="445" y="80"/>
      <point x="396" y="197"/>
      <point x="359" y="321" type="curve" smooth="yes"/>
      <point x="352" y="343"/>
      <point x="347" y="365"/>
      <point x="340" y="387" type="curve" smooth="yes"/>
      <point x="313" y="486"/>
      <point x="297" y="585"/>
      <point x="289" y="663" type="curve" smooth="yes"/>
      <point x="285" y="700"/>
      <point x="251" y="709"/>
      <point x="152" y="709" type="curve" smooth="yes"/>
      <point x="129" y="709" type="line"/>
      <point x="148" y="586"/>
      <point x="183" y="432"/>
      <point x="228" y="293" type="curve" smooth="yes"/>
      <point x="234" y="272"/>
      <point x="242" y="252"/>
      <point x="248" y="232" type="curve" smooth="yes"/>
      <point x="275" y="156"/>
      <point x="306" y="89"/>
      <point x="334" y="36" type="curve" smooth="yes"/>
      <point x="352" y="1"/>
      <point x="375" y="-9"/>
    </contour>
    <contour>
      <point x="551" y="709" type="curve"/>
      <point x="531" y="709" type="line"/>
      <point x="454" y="554"/>
      <point x="380" y="445"/>
      <point x="293" y="367" type="curve"/>
      <point x="249" y="325"/>
      <point x="283" y="269"/>
      <point x="345" y="270" type="curve"/>
      <point x="499" y="390"/>
      <point x="582" y="503"/>
      <point x="665" y="648" type="curve"/>
      <point x="672" y="660"/>
      <point x="673" y="671"/>
      <point x="663" y="681" type="curve" smooth="yes"/>
      <point x="643" y="702"/>
      <point x="592" y="709"/>
    </contour>
    <contour>
      <point x="94" y="-9" type="curve" smooth="yes"/>
      <point x="106" y="-9" type="line"/>
      <point x="162" y="95"/>
      <point x="229" y="181"/>
      <point x="307" y="246" type="curve"/>
      <point x="345" y="277"/>
      <point x="325" y="355"/>
      <point x="272" y="362" type="curve"/>
      <point x="132" y="254"/>
      <point x="39" y="153"/>
      <point x="-30" y="59" type="curve"/>
      <point x="-39" y="45"/>
      <point x="-37" y="29"/>
      <point x="-27" y="19" type="curve" smooth="yes"/>
      <point x="-7" y="-1"/>
      <point x="49" y="-9"/>
    </contour>
  </outline>
</glyph>
<glyph name="Y" format="2">
  <advance width="600"/>
  <unicode hex="0059"/>
  <anchor x="410" y="712" name="top"/>
  <outline>
    <contour>
      <point x="157" y="710" type="line"/>
      <point x="123" y="470"/>
      <point x="137" y="332"/>
      <point x="208" y="236" type="curve"/>
      <point x="235" y="201"/>
      <point x="264" y="197"/>
      <point x="289" y="197" type="curve"/>
      <point x="329" y="197"/>
      <point x="350" y="210"/>
      <point x="366" y="277" type="curve"/>
      <point x="271" y="340"/>
      <point x="256" y="436"/>
      <point x="285" y="665" type="curve"/>
      <point x="289" y="691"/>
      <point x="263" y="710"/>
      <point x="179" y="710" type="curve" smooth="yes"/>
    </contour>
    <contour>
      <point x="518" y="710" type="line"/>
      <point x="435" y="474"/>
      <point x="379" y="383"/>
      <point x="253" y="295" type="curve"/>
      <point x="221" y="273"/>
      <point x="238" y="197"/>
      <point x="289" y="197" type="curve"/>
      <point x="335" y="197" type="line"/>
      <point x="470" y="302"/>
      <point x="572" y="446"/>
      <point x="642" y="644" type="curve"/>
      <point x="655" y="682"/>
      <point x="611" y="710"/>
      <point x="540" y="710" type="curve"/>
    </contour>
    <contour>
      <point x="313" y="-4" type="curve"/>
      <point x="314" y="32"/>
      <point x="320" y="69"/>
      <point x="330" y="108" type="curve" smooth="yes"/>
      <point x="365" y="251" type="line" smooth="yes"/>
      <point x="374" y="286"/>
      <point x="319" y="311"/>
      <point x="239" y="311" type="curve"/>
      <point x="176" y="58" type="line" smooth="yes"/>
      <point x="170" y="34"/>
      <point x="170" y="21"/>
      <point x="178" y="10" type="curve" smooth="yes"/>
      <point x="189" y="-5"/>
      <point x="209" y="-10"/>
      <point x="253" y="-10" type="curve" smooth="yes"/>
      <point x="275" y="-10"/>
      <point x="292" y="-8"/>
    </contour>
  </outline>
</glyph>
<glyph name="Z" format="2">
  <advance width="600"/>
  <unicode hex="005A"/>
  <anchor x="410" y="711" name="top"/>
  <outline>
    <contour>
      <point x="215" y="700" type="line"/>
      <point x="210" y="692"/>
      <point x="205" y="679"/>
      <point x="202" y="666" type="curve" smooth="yes"/>
      <point x="192" y="630"/>
      <point x="195" y="603"/>
      <point x="208" y="586" type="curve" smooth="yes"/>
      <point x="217" y="574"/>
      <point x="223" y="572"/>
      <point x="242" y="572" type="curve" smooth="yes"/>
      <point x="444" y="572" type="line" smooth="yes"/>
      <point x="516" y="572"/>
      <point x="551" y="558"/>
      <point x="581" y="527" type="curve" smooth="yes"/>
      <point x="606" y="532"/>
      <point x="615" y="536"/>
      <point x="620" y="553" type="curve"/>
      <point x="623" y="564" type="line" smooth="yes"/>
      <point x="642" y="648"/>
      <point x="602" y="700"/>
      <point x="542" y="700" type="curve" smooth="yes"/>
    </contour>
    <contour>
      <point x="517" y="615" type="curve"/>
      <point x="392" y="425"/>
      <point x="285" y="321"/>
      <point x="14" y="120" type="curve"/>
      <point x="5" y="83"/>
      <point x="66" y="68"/>
      <point x="121" y="90" type="curve" smooth="yes"/>
      <point x="291" y="173"/>
      <point x="596" y="456"/>
      <point x="620" y="553" type="curve"/>
      <point x="633" y="606"/>
      <point x="598" y="615"/>
    </contour>
    <contour>
      <point x="479" y="0" type="line"/>
      <point x="483" y="7"/>
      <point x="486" y="16"/>
      <point x="489" y="27" type="curve" smooth="yes"/>
      <point x="498" y="65"/>
      <point x="496" y="88"/>
      <point x="478" y="112" type="curve" smooth="yes"/>
      <point x="468" y="125"/>
      <point x="456" y="128"/>
      <point x="434" y="128" type="curve" smooth="yes"/>
      <point x="337" y="128" type="line" smooth="yes"/>
      <point x="237" y="128"/>
      <point x="110" y="125"/>
      <point x="14" y="120" type="curve"/>
      <point x="11" y="106" type="line" smooth="yes"/>
      <point x="-6" y="40"/>
      <point x="2" y="0"/>
      <point x="34" y="0" type="curve" smooth="yes"/>
    </contour>
    <contour>
      <point x="246" y="470" type="curve"/>
      <point x="272" y="573"/>
      <point x="298" y="618"/>
      <point x="312" y="671" type="curve"/>
      <point x="318" y="698"/>
      <point x="271" y="720"/>
      <point x="210" y="720" type="curve" smooth="yes"/>
      <point x="203" y="720" type="line"/>
      <point x="171" y="659"/>
      <point x="145" y="592"/>
      <point x="127" y="521" type="curve"/>
      <point x="117" y="479"/>
      <point x="136" y="465"/>
      <point x="195" y="465" type="curve" smooth="yes"/>
      <point x="215" y="465"/>
      <point x="232" y="467"/>
    </contour>
  </outline>
</glyph>
<glyph name="bracketleft" format="2">
  <advance width="600"/>
  <unicode hex="005B"/>
  <outline>
    <contour>
      <point x="298" y="642" type="curve" smooth="yes"/>
      <point x="130" y="-31" type="line" smooth="yes"/>
      <point x="118" y="-77"/>
      <point x="194" y="-86"/>
      <point x="257" y="-86" type="curve"/>
      <point x="453" y="695" type="line" smooth="yes"/>
      <point x="466" y="749"/>
      <point x="450" y="760"/>
      <point x="376" y="760" type="curve" smooth="yes"/>
      <point x="353" y="760"/>
      <point x="336" y="758"/>
      <point x="314" y="754" type="curve"/>
      <point x="314" y="718"/>
      <point x="308" y="681"/>
    </contour>
    <contour>
      <point x="602" y="627" type="line"/>
      <point x="609" y="640"/>
      <point x="615" y="656"/>
      <point x="620" y="675" type="curve" smooth="yes"/>
      <point x="625" y="694"/>
      <point x="630" y="732"/>
      <point x="617" y="749" type="curve" smooth="yes"/>
      <point x="610" y="758"/>
      <point x="604" y="760"/>
      <point x="589" y="760" type="curve" smooth="yes"/>
      <point x="376" y="760" type="line"/>
      <point x="354" y="672"/>
      <point x="388" y="627"/>
      <point x="494" y="627" type="curve"/>
    </contour>
    <contour>
      <point x="407" y="-161" type="line"/>
      <point x="413" y="-148"/>
      <point x="419" y="-131"/>
      <point x="424" y="-111" type="curve" smooth="yes"/>
      <point x="439" y="-52"/>
      <point x="429" y="-28"/>
      <point x="390" y="-28" type="curve" smooth="yes"/>
      <point x="131" y="-28" type="line"/>
      <point x="126" y="-45" type="line" smooth="yes"/>
      <point x="113" y="-97"/>
      <point x="149" y="-161"/>
      <point x="192" y="-161" type="curve" smooth="yes"/>
    </contour>
  </outline>
</glyph>
<glyph name="backslash" format="2">
  <advance width="600"/>
  <unicode hex="005C"/>
  <outline>
    <contour>
      <point x="169" y="751" type="curve"/>
      <point x="161" y="443"/>
      <point x="197" y="172"/>
      <point x="279" y="-64" type="curve" smooth="yes"/>
      <point x="296" y="-113"/>
      <point x="326" y="-136"/>
      <point x="373" y="-136" type="curve" smooth="yes"/>
      <point x="403" y="-136"/>
      <point x="425" y="-130"/>
      <point x="454" y="-116" type="curve"/>
      <point x="438" y="-94"/>
      <point x="427" y="-69"/>
      <point x="417" y="-35" type="curve"/>
      <point x="345" y="193"/>
      <point x="311" y="442"/>
      <point x="316" y="711" type="curve"/>
      <point x="317" y="747"/>
      <point x="287" y="766"/>
      <point x="235" y="766" type="curve" smooth="yes"/>
      <point x="212" y="766"/>
      <point x="194" y="761"/>
    </contour>
  </outline>
</glyph>
<glyph name="bracketright" format="2">
  <advance width="600"/>
  <unicode hex="005D"/>
  <outline>
    <contour>
      <point x="317" y="-43" type="curve" smooth="yes"/>
      <point x="485" y="630" type="line" smooth="yes"/>
      <point x="497" y="676"/>
      <point x="421" y="685"/>
      <point x="358" y="685" type="curve"/>
      <point x="163" y="-96" type="line" smooth="yes"/>
      <point x="149" y="-150"/>
      <point x="166" y="-161"/>
      <point x="240" y="-161" type="curve" smooth="yes"/>
      <point x="262" y="-161"/>
      <point x="280" y="-159"/>
      <point x="301" y="-155" type="curve"/>
      <point x="302" y="-119"/>
      <point x="307" y="-82"/>
    </contour>
    <contour>
      <point x="14" y="-28" type="line"/>
      <point x="6" y="-41"/>
      <point x="0" y="-57"/>
      <point x="-4" y="-76" type="curve" smooth="yes"/>
      <point x="-9" y="-95"/>
      <point x="-14" y="-133"/>
      <point x="-1" y="-150" type="curve" smooth="yes"/>
      <point x="5" y="-159"/>
      <point x="11" y="-161"/>
      <point x="26" y="-161" type="curve" smooth="yes"/>
      <point x="240" y="-161" type="line"/>
      <point x="262" y="-73"/>
      <point x="227" y="-28"/>
      <point x="121" y="-28" type="curve"/>
    </contour>
    <contour>
      <point x="209" y="760" type="line"/>
      <point x="202" y="747"/>
      <point x="196" y="730"/>
      <point x="191" y="710" type="curve" smooth="yes"/>
      <point x="176" y="651"/>
      <point x="187" y="627"/>
      <point x="226" y="627" type="curve" smooth="yes"/>
      <point x="485" y="627" type="line"/>
      <point x="489" y="644" type="line" smooth="yes"/>
      <point x="502" y="696"/>
      <point x="466" y="760"/>
      <point x="423" y="760" type="curve" smooth="yes"/>
    </contour>
  </outline>
</glyph>
<glyph name="asciicircum" format="2">
  <advance width="600"/>
  <unicode hex="005E"/>
  <outline>
    <contour>
      <point x="188" y="359" type="line"/>
      <point x="253" y="500"/>
      <point x="333" y="582"/>
      <point x="441" y="667" type="curve"/>
      <point x="459" y="734"/>
      <point x="448" y="759"/>
      <point x="418" y="760" type="curve"/>
      <point x="389" y="760" type="line"/>
      <point x="300" y="702"/>
      <point x="191" y="591"/>
      <point x="117" y="478" type="curve" smooth="yes"/>
      <point x="93" y="443"/>
      <point x="81" y="418"/>
      <point x="78" y="407" type="curve" smooth="yes"/>
      <point x="71" y="378"/>
      <point x="119" y="359"/>
      <point x="170" y="359" type="curve"/>
    </contour>
    <contour>
      <point x="580" y="370" type="curve"/>
      <point x="576" y="530"/>
      <point x="541" y="633"/>
      <point x="481" y="720" type="curve" smooth="yes"/>
      <point x="456" y="756"/>
      <point x="445" y="760"/>
      <point x="422" y="760" type="curve" smooth="yes"/>
      <point x="414" y="760" type="line" smooth="yes"/>
      <point x="397" y="760"/>
      <point x="345" y="708"/>
      <point x="323" y="671" type="curve"/>
      <point x="328" y="671"/>
      <point x="332" y="671"/>
      <point x="337" y="671" type="curve" smooth="yes"/>
      <point x="340" y="671"/>
      <point x="346" y="669"/>
      <point x="351" y="663" type="curve" smooth="yes"/>
      <point x="411" y="589"/>
      <point x="435" y="524"/>
      <point x="443" y="399" type="curve" smooth="yes"/>
      <point x="445" y="379"/>
      <point x="470" y="361"/>
      <point x="522" y="361" type="curve" smooth="yes"/>
      <point x="544" y="361"/>
      <point x="560" y="363"/>
    </contour>
  </outline>
</glyph>
<glyph name="grave" format="2">
  <advance width="600"/>
  <unicode hex="0060"/>
  <outline>
    <contour>
      <point x="473" y="413" type="curve"/>
      <point x="444" y="488"/>
      <point x="437" y="609"/>
      <point x="453" y="713" type="curve"/>
      <point x="429" y="718"/>
      <point x="413" y="720"/>
      <point x="390" y="720" type="curve" smooth="yes"/>
      <point x="323" y="720"/>
      <point x="276" y="707"/>
      <point x="262" y="649" type="curve" smooth="yes"/>
      <point x="246" y="586"/>
      <point x="276" y="446"/>
      <point x="325" y="396" type="curve" smooth="yes"/>
      <point x="335" y="387"/>
      <point x="348" y="382"/>
      <point x="367" y="382" type="curve" smooth="yes"/>
      <point x="409" y="382"/>
      <point x="440" y="391"/>
    </contour>
  </outline>
</glyph>
<glyph name="a" format="2">
  <advance width="600"/>
  <unicode hex="0061"/>
  <outline>
    <contour>
      <point x="320" y="549" type="curve" smooth="yes"/>
      <point x="223" y="549"/>
      <point x="101" y="474"/>
      <point x="39" y="240" type="curve" smooth="yes"/>
      <point x="33" y="219" type="line" smooth="yes"/>
      <point x="19" y="167"/>
      <point x="37" y="64"/>
      <point x="114" y="64" type="curve" smooth="yes"/>
      <point x="138" y="64"/>
      <point x="160" y="78"/>
      <point x="168" y="97" type="curve"/>
      <point x="156" y="139"/>
      <point x="160" y="168"/>
      <point x="176" y="233" type="curve" smooth="yes"/>
      <point x="178" y="241" type="line" smooth="yes"/>
      <point x="209" y="363"/>
      <point x="261" y="422"/>
      <point x="341" y="422" type="curve" smooth="yes"/>
      <point x="389" y="422"/>
      <point x="417" y="405"/>
      <point x="437" y="373" type="curve"/>
      <point x="460" y="398"/>
      <point x="467" y="436"/>
      <point x="458" y="459" type="curve" smooth="yes"/>
      <point x="446" y="499"/>
      <point x="404" y="549"/>
    </contour>
    <contour>
      <point x="163" y="-12" type="curve" smooth="yes"/>
      <point x="256" y="-12"/>
      <point x="341" y="76"/>
      <point x="393" y="177" type="curve" smooth="yes"/>
      <point x="417" y="224"/>
      <point x="427" y="287"/>
      <point x="420" y="323" type="curve"/>
      <point x="337" y="180"/>
      <point x="263" y="130"/>
      <point x="198" y="130" type="curve" smooth="yes"/>
      <point x="153" y="130"/>
      <point x="107" y="170"/>
      <point x="85" y="242" type="curve"/>
      <point x="52" y="239"/>
      <point x="36" y="229"/>
      <point x="33" y="219" type="curve" smooth="yes"/>
      <point x="4" y="104"/>
      <point x="51" y="-12"/>
    </contour>
    <contour>
      <point x="596" y="536" type="line"/>
      <point x="579" y="540"/>
      <point x="566" y="542"/>
      <point x="546" y="542" type="curve" smooth="yes"/>
      <point x="496" y="542"/>
      <point x="462" y="534"/>
      <point x="450" y="486" type="curve" smooth="yes"/>
      <point x="358" y="118" type="line" smooth="yes"/>
      <point x="346" y="70"/>
      <point x="415" y="45"/>
      <point x="491" y="61" type="curve"/>
      <point x="489" y="94"/>
      <point x="491" y="122"/>
      <point x="501" y="160" type="curve"/>
    </contour>
    <contour>
      <point x="539" y="123" type="line"/>
      <point x="536" y="123" type="line"/>
      <point x="533" y="122"/>
      <point x="529" y="121"/>
      <point x="526" y="121" type="curve" smooth="yes"/>
      <point x="497" y="121"/>
      <point x="468" y="135"/>
      <point x="459" y="180" type="curve"/>
      <point x="390" y="181"/>
      <point x="370" y="166"/>
      <point x="358" y="118" type="curve" smooth="yes"/>
      <point x="341" y="51"/>
      <point x="373" y="-10"/>
      <point x="443" y="-10" type="curve" smooth="yes"/>
      <point x="448" y="-10" type="line" smooth="yes"/>
      <point x="489" y="-10"/>
      <point x="515" y="30"/>
      <point x="535" y="109" type="curve"/>
    </contour>
  </outline>
</glyph>
<glyph name="b" format="2">
  <advance width="600"/>
  <unicode hex="0062"/>
  <outline>
    <contour>
      <point x="-3" y="0" type="line"/>
      <point x="9" y="-4"/>
      <point x="27" y="-6"/>
      <point x="47" y="-6" type="curve" smooth="yes"/>
      <point x="106" y="-6"/>
      <point x="136" y="19"/>
      <point x="149" y="71" type="curve" smooth="yes"/>
      <point x="310" y="680" type="line"/>
      <point x="321" y="733"/>
      <point x="300" y="757"/>
      <point x="235" y="757" type="curve" smooth="yes"/>
      <point x="216" y="757"/>
      <point x="197" y="755"/>
      <point x="180" y="751" type="curve"/>
      <point x="181" y="718"/>
      <point x="176" y="689"/>
      <point x="166" y="649" type="curve" smooth="yes"/>
    </contour>
    <contour>
      <point x="460" y="549" type="curve" smooth="yes"/>
      <point x="375" y="549"/>
      <point x="256" y="462"/>
      <point x="203" y="361" type="curve" smooth="yes"/>
      <point x="179" y="314"/>
      <point x="168" y="250"/>
      <point x="176" y="214" type="curve"/>
      <point x="261" y="361"/>
      <point x="335" y="412"/>
      <point x="408" y="412" type="curve" smooth="yes"/>
      <point x="453" y="412"/>
      <point x="489" y="382"/>
      <point x="513" y="312" type="curve"/>
      <point x="546" y="315"/>
      <point x="562" y="321"/>
      <point x="564" y="329" type="curve" smooth="yes"/>
      <point x="592" y="443"/>
      <point x="544" y="549"/>
    </contour>
    <contour>
      <point x="280" y="-12" type="curve" smooth="yes"/>
      <point x="408" y="-12"/>
      <point x="506" y="81"/>
      <point x="557" y="304" type="curve" smooth="yes"/>
      <point x="564" y="329" type="line" smooth="yes"/>
      <point x="575" y="382"/>
      <point x="562" y="473"/>
      <point x="485" y="473" type="curve"/>
      <point x="461" y="473"/>
      <point x="439" y="461"/>
      <point x="431" y="438" type="curve"/>
      <point x="441" y="401"/>
      <point x="441" y="380"/>
      <point x="423" y="312" type="curve" smooth="yes"/>
      <point x="418" y="296" type="line" smooth="yes"/>
      <point x="387" y="177"/>
      <point x="332" y="112"/>
      <point x="252" y="112" type="curve" smooth="yes"/>
      <point x="204" y="112"/>
      <point x="175" y="128"/>
      <point x="156" y="161" type="curve"/>
      <point x="138" y="137"/>
      <point x="129" y="102"/>
      <point x="140" y="75" type="curve" smooth="yes"/>
      <point x="150" y="37"/>
      <point x="205" y="-12"/>
    </contour>
  </outline>
</glyph>
<glyph name="d" format="2">
  <advance width="600"/>
  <unicode hex="0064"/>
  <anchor x="574" y="711" name="caronslovak"/>
  <outline>
    <contour>
      <point x="317" y="549" type="curve" smooth="yes"/>
      <point x="187" y="549"/>
      <point x="89" y="456"/>
      <point x="37" y="233" type="curve" smooth="yes"/>
      <point x="31" y="208" type="line" smooth="yes"/>
      <point x="19" y="156"/>
      <point x="33" y="64"/>
      <point x="110" y="64" type="curve" smooth="yes"/>
      <point x="134" y="64"/>
      <point x="156" y="76"/>
      <point x="165" y="99" type="curve"/>
      <point x="154" y="136"/>
      <point x="154" y="158"/>
      <point x="172" y="225" type="curve" smooth="yes"/>
      <point x="177" y="241" type="line" smooth="yes"/>
      <point x="207" y="360"/>
      <point x="263" y="426"/>
      <point x="343" y="426" type="curve" smooth="yes"/>
      <point x="391" y="426"/>
      <point x="420" y="410"/>
      <point x="439" y="376" type="curve"/>
      <point x="457" y="400"/>
      <point x="465" y="433"/>
      <point x="454" y="460" type="curve" smooth="yes"/>
      <point x="443" y="499"/>
      <point x="390" y="549"/>
    </contour>
    <contour>
      <point x="135" y="-12" type="curve" smooth="yes"/>
      <point x="220" y="-12"/>
      <point x="339" y="76"/>
      <point x="391" y="177" type="curve" smooth="yes"/>
      <point x="416" y="224"/>
      <point x="426" y="288"/>
      <point x="419" y="324" type="curve"/>
      <point x="335" y="177"/>
      <point x="260" y="126"/>
      <point x="186" y="126" type="curve" smooth="yes"/>
      <point x="141" y="126"/>
      <point x="106" y="156"/>
      <point x="82" y="226" type="curve"/>
      <point x="48" y="223"/>
      <point x="33" y="216"/>
      <point x="31" y="208" type="curve" smooth="yes"/>
      <point x="3" y="95"/>
      <point x="52" y="-12"/>
    </contour>
    <contour>
      <point x="508" y="751" type="curve"/>
      <point x="508" y="716"/>
      <point x="504" y="689"/>
      <point x="493" y="650" type="curve" smooth="yes"/>
      <point x="374" y="188" type="line"/>
      <point x="348" y="94"/>
      <point x="343" y="46"/>
      <point x="360" y="22" type="curve" smooth="yes"/>
      <point x="375" y="2"/>
      <point x="406" y="-4"/>
      <point x="432" y="-4" type="curve" smooth="yes"/>
      <point x="445" y="-4"/>
      <point x="456" y="-3"/>
      <point x="470" y="0" type="curve"/>
      <point x="470" y="34"/>
      <point x="473" y="62"/>
      <point x="484" y="103" type="curve" smooth="yes"/>
      <point x="637" y="692" type="line"/>
      <point x="642" y="711"/>
      <point x="641" y="726"/>
      <point x="634" y="735" type="curve" smooth="yes"/>
      <point x="622" y="753"/>
      <point x="598" y="756"/>
      <point x="564" y="756" type="curve" smooth="yes"/>
      <point x="544" y="756"/>
      <point x="525" y="755"/>
    </contour>
  </outline>
</glyph>
<glyph name="e" format="2">
  <advance width="600"/>
  <unicode hex="0065"/>
  <anchor x="390" y="549" name="top"/>
  <anchor x="401" y="28" name="ogonek"/>
  <anchor x="232" y="-1" name="bottom"/>
  <outline>
    <contour>
      <point x="378" y="432" type="curve" smooth="yes"/>
      <point x="404" y="432"/>
      <point x="422" y="426"/>
      <point x="444" y="413" type="curve"/>
      <point x="468" y="429"/>
      <point x="484" y="451"/>
      <point x="489" y="471" type="curve"/>
      <point x="501" y="523"/>
      <point x="434" y="549"/>
      <point x="381" y="549" type="curve"/>
      <point x="232" y="549"/>
      <point x="111" y="472"/>
      <point x="65" y="305" type="curve" smooth="yes"/>
      <point x="63" y="296" type="line" smooth="yes"/>
      <point x="15" y="127"/>
      <point x="105" y="-12"/>
      <point x="272" y="-12" type="curve" smooth="yes"/>
      <point x="316" y="-12"/>
      <point x="335" y="25"/>
      <point x="346" y="67" type="curve"/>
      <point x="172" y="67"/>
      <point x="167" y="180"/>
      <point x="184" y="246" type="curve" smooth="yes"/>
      <point x="186" y="255" type="line" smooth="yes"/>
      <point x="219" y="387"/>
      <point x="286" y="432"/>
    </contour>
    <contour>
      <point x="437" y="29" type="curve" smooth="yes"/>
      <point x="458" y="47"/>
      <point x="476" y="74"/>
      <point x="487" y="119" type="curve" smooth="yes"/>
      <point x="490" y="130"/>
      <point x="492" y="146"/>
      <point x="492" y="162" type="curve"/>
      <point x="488" y="162" type="line"/>
      <point x="418" y="124"/>
      <point x="355" y="109"/>
      <point x="273" y="109" type="curve" smooth="yes"/>
      <point x="182" y="109"/>
      <point x="150" y="131"/>
      <point x="97" y="193" type="curve"/>
      <point x="24" y="81"/>
      <point x="155" y="-12"/>
      <point x="272" y="-12" type="curve" smooth="yes"/>
      <point x="348" y="-12"/>
      <point x="405" y="3"/>
    </contour>
    <contour>
      <point x="308" y="212" type="line" smooth="yes"/>
      <point x="456" y="212"/>
      <point x="538" y="259"/>
      <point x="562" y="353" type="curve" smooth="yes"/>
      <point x="564" y="361" type="line" smooth="yes"/>
      <point x="588" y="458"/>
      <point x="509" y="549"/>
      <point x="381" y="549" type="curve" smooth="yes"/>
      <point x="359" y="549"/>
      <point x="334" y="515"/>
      <point x="323" y="466" type="curve"/>
      <point x="394" y="466"/>
      <point x="445" y="432"/>
      <point x="431" y="370" type="curve" smooth="yes"/>
      <point x="429" y="361" type="line" smooth="yes"/>
      <point x="419" y="317"/>
      <point x="375" y="295"/>
      <point x="299" y="295" type="curve" smooth="yes"/>
      <point x="225" y="295"/>
      <point x="191" y="302"/>
      <point x="170" y="312" type="curve"/>
      <point x="155" y="284"/>
      <point x="151" y="265"/>
      <point x="166" y="246" type="curve" smooth="yes"/>
      <point x="180" y="226"/>
      <point x="224" y="212"/>
      <point x="304" y="212" type="curve" smooth="yes"/>
    </contour>
  </outline>
</glyph>
<glyph name="f" format="2">
  <advance width="600"/>
  <unicode hex="0066"/>
  <outline>
    <contour>
      <point x="373" y="622" type="curve"/>
      <point x="415" y="643"/>
      <point x="454" y="652"/>
      <point x="495" y="652" type="curve" smooth="yes"/>
      <point x="566" y="652"/>
      <point x="624" y="640"/>
      <point x="653" y="626" type="curve"/>
      <point x="657" y="626" type="line"/>
      <point x="664" y="639"/>
      <point x="668" y="652"/>
      <point x="673" y="669" type="curve"/>
      <point x="680" y="703"/>
      <point x="679" y="722"/>
      <point x="668" y="737" type="curve" smooth="yes"/>
      <point x="655" y="753"/>
      <point x="598" y="768"/>
      <point x="519" y="768" type="curve" smooth="yes"/>
      <point x="443" y="768"/>
      <point x="354" y="685"/>
    </contour>
    <contour>
      <point x="274" y="584" type="curve"/>
      <point x="117" y="-42" type="line" smooth="yes"/>
      <point x="106" y="-91"/>
      <point x="140" y="-107"/>
      <point x="203" y="-107" type="curve"/>
      <point x="221" y="-107"/>
      <point x="240" y="-105"/>
      <point x="259" y="-101" type="curve"/>
      <point x="257" y="-61"/>
      <point x="262" y="-29"/>
      <point x="273" y="17" type="curve"/>
      <point x="398" y="512" type="line"/>
      <point x="399" y="541"/>
      <point x="401" y="562"/>
      <point x="408" y="589" type="curve"/>
      <point x="427" y="662"/>
      <point x="461" y="707"/>
      <point x="551" y="735" type="curve"/>
      <point x="550" y="764"/>
      <point x="536" y="768"/>
      <point x="519" y="768" type="curve" smooth="yes"/>
      <point x="398" y="768"/>
      <point x="302" y="694"/>
    </contour>
    <contour>
      <point x="108" y="513" type="line"/>
      <point x="106" y="507"/>
      <point x="105" y="502"/>
      <point x="103" y="495" type="curve" smooth="yes"/>
      <point x="93" y="452"/>
      <point x="94" y="427"/>
      <point x="106" y="411" type="curve" smooth="yes"/>
      <point x="126" y="385"/>
      <point x="164" y="380"/>
      <point x="265" y="380" type="curve"/>
      <point x="565" y="380" type="line"/>
      <point x="571" y="395"/>
      <point x="579" y="415"/>
      <point x="584" y="434" type="curve" smooth="yes"/>
      <point x="598" y="492"/>
      <point x="589" y="513"/>
      <point x="540" y="513" type="curve"/>
    </contour>
  </outline>
</glyph>
<glyph name="g" format="2">
  <advance width="600"/>
  <unicode hex="0067"/>
  <outline>
    <contour>
      <point x="317" y="549" type="curve" smooth="yes"/>
      <point x="186" y="549"/>
      <point x="89" y="457"/>
      <point x="36" y="233" type="curve" smooth="yes"/>
      <point x="31" y="208" type="line" smooth="yes"/>
      <point x="18" y="156"/>
      <point x="33" y="64"/>
      <point x="110" y="64" type="curve" smooth="yes"/>
      <point x="134" y="64"/>
      <point x="156" y="76"/>
      <point x="164" y="99" type="curve"/>
      <point x="154" y="136"/>
      <point x="153" y="158"/>
      <point x="172" y="225" type="curve" smooth="yes"/>
      <point x="177" y="241" type="line" smooth="yes"/>
      <point x="207" y="360"/>
      <point x="263" y="426"/>
      <point x="343" y="426" type="curve" smooth="yes"/>
      <point x="391" y="426"/>
      <point x="420" y="410"/>
      <point x="438" y="376" type="curve"/>
      <point x="458" y="400"/>
      <point x="466" y="434"/>
      <point x="456" y="460" type="curve" smooth="yes"/>
      <point x="445" y="499"/>
      <point x="391" y="549"/>
    </contour>
    <contour>
      <point x="135" y="-12" type="curve" smooth="yes"/>
      <point x="220" y="-12"/>
      <point x="339" y="76"/>
      <point x="391" y="177" type="curve" smooth="yes"/>
      <point x="415" y="224"/>
      <point x="427" y="288"/>
      <point x="419" y="324" type="curve"/>
      <point x="335" y="177"/>
      <point x="260" y="126"/>
      <point x="187" y="126" type="curve" smooth="yes"/>
      <point x="141" y="126"/>
      <point x="106" y="156"/>
      <point x="82" y="226" type="curve"/>
      <point x="48" y="223"/>
      <point x="32" y="216"/>
      <point x="31" y="208" type="curve" smooth="yes"/>
      <point x="3" y="95"/>
      <point x="51" y="-12"/>
    </contour>
    <contour>
      <point x="455" y="-5" type="curve" smooth="yes"/>
      <point x="572" y="443" type="line" smooth="yes"/>
      <point x="583" y="484"/>
      <point x="594" y="512"/>
      <point x="611" y="546" type="curve"/>
      <point x="600" y="549"/>
      <point x="588" y="550"/>
      <point x="576" y="550" type="curve" smooth="yes"/>
      <point x="547" y="550"/>
      <point x="501" y="544"/>
      <point x="477" y="524" type="curve" smooth="yes"/>
      <point x="453" y="505"/>
      <point x="442" y="488"/>
      <point x="430" y="441" type="curve" smooth="yes"/>
      <point x="320" y="17" type="line" smooth="yes"/>
      <point x="298" y="-71"/>
      <point x="276" y="-107"/>
      <point x="216" y="-162" type="curve"/>
      <point x="303" y="-217"/>
      <point x="428" y="-110"/>
    </contour>
    <contour>
      <point x="150" y="-122" type="curve" smooth="yes"/>
      <point x="72" y="-122"/>
      <point x="30" y="-113"/>
      <point x="-12" y="-91" type="curve"/>
      <point x="-16" y="-91" type="line"/>
      <point x="-22" y="-101"/>
      <point x="-26" y="-113"/>
      <point x="-29" y="-126" type="curve" smooth="yes"/>
      <point x="-38" y="-163"/>
      <point x="-38" y="-201"/>
      <point x="-24" y="-218" type="curve" smooth="yes"/>
      <point x="-10" y="-237"/>
      <point x="35" y="-250"/>
      <point x="139" y="-250" type="curve" smooth="yes"/>
      <point x="314" y="-250"/>
      <point x="418" y="-155"/>
      <point x="455" y="-5" type="curve" smooth="yes"/>
      <point x="458" y="6"/>
      <point x="438" y="30"/>
      <point x="411" y="30" type="curve"/>
      <point x="348" y="-93"/>
      <point x="232" y="-122"/>
    </contour>
  </outline>
</glyph>
<glyph name="h" format="2">
  <advance width="600"/>
  <unicode hex="0068"/>
  <anchor x="254" y="730" name="top"/>
  <outline>
    <contour>
      <point x="140" y="-1" type="curve"/>
      <point x="310" y="651" type="line" smooth="yes"/>
      <point x="320" y="690"/>
      <point x="318" y="710"/>
      <point x="307" y="724" type="curve" smooth="yes"/>
      <point x="290" y="746"/>
      <point x="262" y="755"/>
      <point x="220" y="755" type="curve" smooth="yes"/>
      <point x="207" y="755"/>
      <point x="195" y="754"/>
      <point x="182" y="751" type="curve"/>
      <point x="182" y="716"/>
      <point x="178" y="688"/>
      <point x="168" y="648" type="curve" smooth="yes"/>
      <point x="13" y="49" type="line" smooth="yes"/>
      <point x="0" y="2"/>
      <point x="38" y="-6"/>
      <point x="89" y="-6" type="curve" smooth="yes"/>
      <point x="109" y="-6"/>
      <point x="126" y="-4"/>
    </contour>
    <contour>
      <point x="469" y="549" type="curve" smooth="yes"/>
      <point x="379" y="549"/>
      <point x="269" y="454"/>
      <point x="208" y="337" type="curve" smooth="yes"/>
      <point x="170" y="261"/>
      <point x="154" y="177"/>
      <point x="161" y="113" type="curve"/>
      <point x="256" y="329"/>
      <point x="338" y="407"/>
      <point x="397" y="407" type="curve" smooth="yes"/>
      <point x="426" y="407"/>
      <point x="444" y="382"/>
      <point x="447" y="331" type="curve"/>
      <point x="499" y="332"/>
      <point x="541" y="353"/>
      <point x="547" y="378" type="curve" smooth="yes"/>
      <point x="568" y="459"/>
      <point x="539" y="549"/>
    </contour>
    <contour>
      <point x="469" y="0" type="curve"/>
      <point x="469" y="56"/>
      <point x="473" y="92"/>
      <point x="489" y="153" type="curve" smooth="yes"/>
      <point x="547" y="378" type="line"/>
      <point x="557" y="413"/>
      <point x="534" y="434"/>
      <point x="455" y="432" type="curve"/>
      <point x="401" y="317"/>
      <point x="361" y="223"/>
      <point x="341" y="142" type="curve" smooth="yes"/>
      <point x="336" y="130" type="line" smooth="yes"/>
      <point x="307" y="23"/>
      <point x="343" y="-5"/>
      <point x="417" y="-5" type="curve" smooth="yes"/>
      <point x="436" y="-5"/>
      <point x="451" y="-3"/>
    </contour>
  </outline>
</glyph>
<glyph name="i" format="2">
  <advance width="600"/>
  <unicode hex="0069"/>
  <outline>
    <contour>
      <point x="109" y="538" type="curve"/>
      <point x="103" y="524"/>
      <point x="97" y="507"/>
      <point x="92" y="486" type="curve" smooth="yes"/>
      <point x="77" y="428"/>
      <point x="90" y="405"/>
      <point x="111" y="405" type="curve" smooth="yes"/>
      <point x="152" y="405"/>
      <point x="199" y="422"/>
      <point x="309" y="422" type="curve"/>
      <point x="326" y="490"/>
      <point x="344" y="548"/>
      <point x="301" y="548" type="curve"/>
      <point x="239" y="548"/>
      <point x="176" y="545"/>
    </contour>
    <contour>
      <point x="412" y="520" type="curve" smooth="yes"/>
      <point x="395" y="536"/>
      <point x="357" y="548"/>
      <point x="310" y="548" type="curve" smooth="yes"/>
      <point x="301" y="548" type="line"/>
      <point x="207" y="173" type="line" smooth="yes"/>
      <point x="188" y="99"/>
      <point x="268" y="35"/>
      <point x="340" y="51" type="curve"/>
      <point x="327" y="107"/>
      <point x="327" y="122"/>
      <point x="345" y="193" type="curve" smooth="yes"/>
      <point x="418" y="484" type="line" smooth="yes"/>
      <point x="422" y="502"/>
      <point x="422" y="510"/>
    </contour>
    <contour>
      <point x="533" y="154" type="curve"/>
      <point x="529" y="154" type="line"/>
      <point x="477" y="130"/>
      <point x="432" y="117"/>
      <point x="368" y="117" type="curve"/>
      <point x="299" y="117"/>
      <point x="266" y="139"/>
      <point x="271" y="215" type="curve"/>
      <point x="226" y="202"/>
      <point x="211" y="189"/>
      <point x="207" y="173" type="curve" smooth="yes"/>
      <point x="184" y="86"/>
      <point x="237" y="-12"/>
      <point x="355" y="-12" type="curve" smooth="yes"/>
      <point x="363" y="-12" type="line" smooth="yes"/>
      <point x="426" y="-12"/>
      <point x="462" y="7"/>
      <point x="476" y="19" type="curve" smooth="yes"/>
      <point x="497" y="36"/>
      <point x="516" y="58"/>
      <point x="528" y="111" type="curve"/>
      <point x="532" y="127"/>
      <point x="533" y="142"/>
    </contour>
    <contour>
      <point x="469" y="632" type="curve"/>
      <point x="489" y="710" type="line" smooth="yes"/>
      <point x="501" y="758"/>
      <point x="460" y="767"/>
      <point x="404" y="767" type="curve" smooth="yes"/>
      <point x="383" y="767"/>
      <point x="355" y="765"/>
      <point x="332" y="762" type="curve"/>
      <point x="313" y="684" type="line" smooth="yes"/>
      <point x="301" y="635"/>
      <point x="343" y="627"/>
      <point x="398" y="627" type="curve" smooth="yes"/>
      <point x="420" y="627"/>
      <point x="446" y="628"/>
    </contour>
  </outline>
</glyph>
<glyph name="j" format="2">
  <advance width="600"/>
  <unicode hex="006A"/>
  <outline>
    <contour>
      <point x="134" y="538" type="curve"/>
      <point x="126" y="524"/>
      <point x="120" y="507"/>
      <point x="115" y="486" type="curve" smooth="yes"/>
      <point x="101" y="431"/>
      <point x="112" y="405"/>
      <point x="138" y="405" type="curve" smooth="yes"/>
      <point x="181" y="405"/>
      <point x="257" y="413"/>
      <point x="400" y="434" type="curve"/>
      <point x="419" y="506"/>
      <point x="420" y="548"/>
      <point x="390" y="548" type="curve" smooth="yes"/>
      <point x="323" y="548"/>
      <point x="206" y="545"/>
    </contour>
    <contour>
      <point x="379" y="-5" type="curve" smooth="yes"/>
      <point x="506" y="485" type="line" smooth="yes"/>
      <point x="510" y="501"/>
      <point x="509" y="508"/>
      <point x="500" y="519" type="curve" smooth="yes"/>
      <point x="487" y="538"/>
      <point x="445" y="548"/>
      <point x="399" y="548" type="curve" smooth="yes"/>
      <point x="390" y="548" type="line"/>
      <point x="246" y="-4" type="line" smooth="yes"/>
      <point x="225" y="-89"/>
      <point x="202" y="-117"/>
      <point x="135" y="-158" type="curve"/>
      <point x="209" y="-211"/>
      <point x="338" y="-149"/>
    </contour>
    <contour>
      <point x="101" y="-122" type="curve" smooth="yes"/>
      <point x="26" y="-122"/>
      <point x="-16" y="-113"/>
      <point x="-57" y="-91" type="curve"/>
      <point x="-61" y="-91" type="line"/>
      <point x="-66" y="-101"/>
      <point x="-70" y="-113"/>
      <point x="-73" y="-126" type="curve" smooth="yes"/>
      <point x="-83" y="-163"/>
      <point x="-82" y="-201"/>
      <point x="-69" y="-219" type="curve" smooth="yes"/>
      <point x="-55" y="-237"/>
      <point x="-10" y="-250"/>
      <point x="89" y="-250" type="curve" smooth="yes"/>
      <point x="234" y="-250"/>
      <point x="341" y="-156"/>
      <point x="379" y="-5" type="curve" smooth="yes"/>
      <point x="381" y="5"/>
      <point x="360" y="30"/>
      <point x="335" y="30" type="curve"/>
      <point x="272" y="-92"/>
      <point x="183" y="-122"/>
    </contour>
    <contour>
      <point x="556" y="632" type="curve"/>
      <point x="576" y="710" type="line" smooth="yes"/>
      <point x="589" y="758"/>
      <point x="547" y="767"/>
      <point x="491" y="767" type="curve" smooth="yes"/>
      <point x="470" y="767"/>
      <point x="443" y="765"/>
      <point x="420" y="762" type="curve"/>
      <point x="400" y="684" type="line" smooth="yes"/>
      <point x="387" y="635"/>
      <point x="428" y="627"/>
      <point x="484" y="627" type="curve" smooth="yes"/>
      <point x="505" y="627"/>
      <point x="533" y="628"/>
    </contour>
  </outline>
</glyph>
<glyph name="k" format="2">
  <advance width="600"/>
  <unicode hex="006B"/>
  <anchor x="253" y="-1" name="bottom"/>
  <outline>
    <contour>
      <point x="141" y="-1" type="curve"/>
      <point x="309" y="646" type="line" smooth="yes"/>
      <point x="322" y="693"/>
      <point x="320" y="710"/>
      <point x="306" y="729" type="curve" smooth="yes"/>
      <point x="291" y="749"/>
      <point x="250" y="755"/>
      <point x="222" y="755" type="curve" smooth="yes"/>
      <point x="209" y="755"/>
      <point x="196" y="754"/>
      <point x="183" y="751" type="curve"/>
      <point x="183" y="717"/>
      <point x="179" y="689"/>
      <point x="169" y="648" type="curve" smooth="yes"/>
      <point x="13" y="49" type="line" smooth="yes"/>
      <point x="1" y="1"/>
      <point x="40" y="-6"/>
      <point x="91" y="-6" type="curve" smooth="yes"/>
      <point x="110" y="-6"/>
      <point x="128" y="-4"/>
    </contour>
    <contour>
      <point x="478" y="549" type="line"/>
      <point x="383" y="388"/>
      <point x="255" y="311"/>
      <point x="112" y="262" type="curve"/>
      <point x="96" y="203"/>
      <point x="117" y="172"/>
      <point x="140" y="176" type="curve" smooth="yes"/>
      <point x="282" y="200"/>
      <point x="461" y="304"/>
      <point x="567" y="444" type="curve" smooth="yes"/>
      <point x="590" y="474"/>
      <point x="594" y="485"/>
      <point x="597" y="498" type="curve" smooth="yes"/>
      <point x="604" y="525"/>
      <point x="557" y="549"/>
      <point x="499" y="549" type="curve"/>
    </contour>
    <contour>
      <point x="420" y="-10" type="curve" smooth="yes"/>
      <point x="461" y="-10"/>
      <point x="483" y="-4"/>
      <point x="509" y="14" type="curve"/>
      <point x="439" y="96"/>
      <point x="388" y="203"/>
      <point x="359" y="319" type="curve"/>
      <point x="308" y="309"/>
      <point x="242" y="267"/>
      <point x="248" y="234" type="curve" smooth="yes"/>
      <point x="260" y="154"/>
      <point x="302" y="61"/>
      <point x="327" y="28" type="curve" smooth="yes"/>
      <point x="347" y="0"/>
      <point x="373" y="-10"/>
    </contour>
  </outline>
</glyph>
<glyph name="l" format="2">
  <advance width="600"/>
  <unicode hex="006C"/>
  <outline>
    <contour>
      <point x="162" y="750" type="curve"/>
      <point x="155" y="737"/>
      <point x="149" y="719"/>
      <point x="145" y="699" type="curve" smooth="yes"/>
      <point x="130" y="640"/>
      <point x="142" y="618"/>
      <point x="164" y="618" type="curve" smooth="yes"/>
      <point x="205" y="618"/>
      <point x="252" y="634"/>
      <point x="361" y="634" type="curve"/>
      <point x="378" y="702"/>
      <point x="397" y="760"/>
      <point x="354" y="760" type="curve"/>
      <point x="291" y="760"/>
      <point x="228" y="757"/>
    </contour>
    <contour>
      <point x="465" y="732" type="curve" smooth="yes"/>
      <point x="449" y="748"/>
      <point x="410" y="760"/>
      <point x="363" y="760" type="curve" smooth="yes"/>
      <point x="354" y="760" type="line"/>
      <point x="201" y="173" type="line" smooth="yes"/>
      <point x="182" y="99"/>
      <point x="262" y="35"/>
      <point x="334" y="51" type="curve"/>
      <point x="321" y="107"/>
      <point x="321" y="123"/>
      <point x="339" y="193" type="curve" smooth="yes"/>
      <point x="470" y="696" type="line" smooth="yes"/>
      <point x="475" y="714"/>
      <point x="475" y="722"/>
    </contour>
    <contour>
      <point x="527" y="154" type="curve"/>
      <point x="523" y="154" type="line"/>
      <point x="470" y="130"/>
      <point x="425" y="117"/>
      <point x="361" y="117" type="curve"/>
      <point x="293" y="117"/>
      <point x="261" y="139"/>
      <point x="265" y="215" type="curve"/>
      <point x="221" y="202"/>
      <point x="205" y="189"/>
      <point x="201" y="173" type="curve" smooth="yes"/>
      <point x="179" y="86"/>
      <point x="231" y="-12"/>
      <point x="349" y="-12" type="curve" smooth="yes"/>
      <point x="357" y="-12" type="line" smooth="yes"/>
      <point x="421" y="-12"/>
      <point x="452" y="1"/>
      <point x="469" y="16" type="curve" smooth="yes"/>
      <point x="496" y="37"/>
      <point x="510" y="59"/>
      <point x="522" y="112" type="curve"/>
      <point x="526" y="129"/>
      <point x="528" y="142"/>
    </contour>
  </outline>
</glyph>
<glyph name="m" format="2">
  <advance width="600"/>
  <unicode hex="006D"/>
  <outline>
    <contour>
      <point x="93" y="-1" type="curve"/>
      <point x="202" y="417" type="line" smooth="yes"/>
      <point x="220" y="490"/>
      <point x="215" y="506"/>
      <point x="204" y="522" type="curve" smooth="yes"/>
      <point x="190" y="541"/>
      <point x="163" y="543"/>
      <point x="135" y="543" type="curve" smooth="yes"/>
      <point x="123" y="543"/>
      <point x="109" y="542"/>
      <point x="97" y="540" type="curve"/>
      <point x="96" y="505"/>
      <point x="93" y="477"/>
      <point x="82" y="437" type="curve" smooth="yes"/>
      <point x="-18" y="49" type="line" smooth="yes"/>
      <point x="-30" y="1"/>
      <point x="-9" y="-6"/>
      <point x="42" y="-6" type="curve" smooth="yes"/>
      <point x="62" y="-6"/>
      <point x="79" y="-4"/>
    </contour>
    <contour>
      <point x="331" y="548" type="curve" smooth="yes"/>
      <point x="281" y="548"/>
      <point x="216" y="476"/>
      <point x="178" y="390" type="curve" smooth="yes"/>
      <point x="166" y="363"/>
      <point x="161" y="330"/>
      <point x="164" y="303" type="curve"/>
      <point x="213" y="380"/>
      <point x="249" y="417"/>
      <point x="281" y="417" type="curve" smooth="yes"/>
      <point x="297" y="417"/>
      <point x="307" y="408"/>
      <point x="312" y="383" type="curve"/>
      <point x="344" y="391"/>
      <point x="374" y="414"/>
      <point x="378" y="431" type="curve" smooth="yes"/>
      <point x="395" y="496"/>
      <point x="368" y="548"/>
    </contour>
    <contour>
      <point x="266" y="0" type="curve"/>
      <point x="378" y="431" type="line" smooth="yes"/>
      <point x="390" y="476"/>
      <point x="378" y="483"/>
      <point x="329" y="472" type="curve"/>
      <point x="263" y="297"/>
      <point x="230" y="198"/>
      <point x="206" y="103" type="curve" smooth="yes"/>
      <point x="204" y="98" type="line" smooth="yes"/>
      <point x="185" y="26"/>
      <point x="200" y="-3"/>
      <point x="250" y="-3" type="curve" smooth="yes"/>
      <point x="256" y="-3"/>
      <point x="260" y="-2"/>
    </contour>
    <contour>
      <point x="527" y="549" type="curve" smooth="yes"/>
      <point x="473" y="549"/>
      <point x="394" y="481"/>
      <point x="352" y="404" type="curve" smooth="yes"/>
      <point x="333" y="370"/>
      <point x="325" y="341"/>
      <point x="336" y="304" type="curve"/>
      <point x="377" y="377"/>
      <point x="420" y="417"/>
      <point x="458" y="417" type="curve" smooth="yes"/>
      <point x="481" y="417"/>
      <point x="489" y="406"/>
      <point x="492" y="378" type="curve"/>
      <point x="562" y="386"/>
      <point x="590" y="401"/>
      <point x="595" y="422" type="curve" smooth="yes"/>
      <point x="607" y="472"/>
      <point x="576" y="549"/>
    </contour>
    <contour>
      <point x="505" y="0" type="curve"/>
      <point x="505" y="56"/>
      <point x="509" y="92"/>
      <point x="525" y="153" type="curve" smooth="yes"/>
      <point x="595" y="422" type="line" smooth="yes"/>
      <point x="601" y="444"/>
      <point x="572" y="461"/>
      <point x="501" y="461" type="curve"/>
      <point x="445" y="325"/>
      <point x="410" y="221"/>
      <point x="387" y="132" type="curve" smooth="yes"/>
      <point x="385" y="127" type="line" smooth="yes"/>
      <point x="358" y="21"/>
      <point x="379" y="-5"/>
      <point x="453" y="-5" type="curve" smooth="yes"/>
      <point x="472" y="-5"/>
      <point x="487" y="-3"/>
    </contour>
  </outline>
</glyph>
<glyph name="n" format="2">
  <advance width="600"/>
  <unicode hex="006E"/>
  <anchor x="435" y="711" name="caronslovak"/>
  <anchor x="370" y="549" name="top"/>
  <anchor x="235" y="-1" name="bottom"/>
  <outline>
    <contour>
      <point x="141" y="-3" type="curve"/>
      <point x="234" y="350" type="line" smooth="yes"/>
      <point x="258" y="438"/>
      <point x="250" y="486"/>
      <point x="232" y="512" type="curve" smooth="yes"/>
      <point x="220" y="530"/>
      <point x="201" y="541"/>
      <point x="166" y="541" type="curve" smooth="yes"/>
      <point x="155" y="541"/>
      <point x="142" y="540"/>
      <point x="128" y="537" type="curve"/>
      <point x="129" y="503"/>
      <point x="125" y="474"/>
      <point x="115" y="433" type="curve" smooth="yes"/>
      <point x="14" y="47" type="line" smooth="yes"/>
      <point x="1" y="-1"/>
      <point x="39" y="-8"/>
      <point x="90" y="-8" type="curve" smooth="yes"/>
      <point x="109" y="-8"/>
      <point x="128" y="-7"/>
    </contour>
    <contour>
      <point x="465" y="547" type="curve" smooth="yes"/>
      <point x="377" y="547"/>
      <point x="272" y="448"/>
      <point x="210" y="330" type="curve" smooth="yes"/>
      <point x="172" y="254"/>
      <point x="157" y="174"/>
      <point x="162" y="119" type="curve"/>
      <point x="260" y="341"/>
      <point x="344" y="405"/>
      <point x="402" y="405" type="curve" smooth="yes"/>
      <point x="433" y="405"/>
      <point x="453" y="386"/>
      <point x="455" y="345" type="curve"/>
      <point x="509" y="345"/>
      <point x="549" y="368"/>
      <point x="556" y="396" type="curve" smooth="yes"/>
      <point x="572" y="457"/>
      <point x="537" y="547"/>
    </contour>
    <contour>
      <point x="470" y="-2" type="curve"/>
      <point x="470" y="54"/>
      <point x="475" y="89"/>
      <point x="490" y="150" type="curve" smooth="yes"/>
      <point x="556" y="396" type="line"/>
      <point x="562" y="421"/>
      <point x="543" y="432"/>
      <point x="457" y="429" type="curve"/>
      <point x="402" y="318"/>
      <point x="357" y="220"/>
      <point x="337" y="139" type="curve" smooth="yes"/>
      <point x="333" y="127" type="line" smooth="yes"/>
      <point x="304" y="19"/>
      <point x="339" y="-8"/>
      <point x="418" y="-8" type="curve" smooth="yes"/>
      <point x="437" y="-8"/>
      <point x="452" y="-6"/>
    </contour>
  </outline>
</glyph>
<glyph name="o" format="2">
  <advance width="600"/>
  <unicode hex="006F"/>
  <anchor x="370" y="549" name="top"/>
  <anchor x="309" y="-1" name="ogonek"/>
  <anchor x="232" y="-1" name="bottom"/>
  <outline>
    <contour>
      <point x="374" y="549" type="curve" smooth="yes"/>
      <point x="225" y="549"/>
      <point x="101" y="443"/>
      <point x="52" y="258" type="curve" smooth="yes"/>
      <point x="48" y="244" type="line" smooth="yes"/>
      <point x="1" y="75"/>
      <point x="99" y="-12"/>
      <point x="242" y="-12" type="curve" smooth="yes"/>
      <point x="273" y="-12"/>
      <point x="301" y="14"/>
      <point x="309" y="47" type="curve"/>
      <point x="180" y="47"/>
      <point x="141" y="108"/>
      <point x="175" y="239" type="curve" smooth="yes"/>
      <point x="177" y="248" type="line" smooth="yes"/>
      <point x="211" y="374"/>
      <point x="273" y="429"/>
      <point x="361" y="429" type="curve" smooth="yes"/>
      <point x="414" y="429"/>
      <point x="435" y="416"/>
      <point x="465" y="386" type="curve"/>
      <point x="559" y="438"/>
      <point x="463" y="549"/>
    </contour>
    <contour>
      <point x="242" y="-12" type="curve" smooth="yes"/>
      <point x="387" y="-12"/>
      <point x="498" y="68"/>
      <point x="538" y="234" type="curve" smooth="yes"/>
      <point x="541" y="248" type="line" smooth="yes"/>
      <point x="588" y="441"/>
      <point x="498" y="549"/>
      <point x="374" y="549" type="curve" smooth="yes"/>
      <point x="348" y="549"/>
      <point x="324" y="525"/>
      <point x="316" y="491" type="curve"/>
      <point x="418" y="490"/>
      <point x="455" y="414"/>
      <point x="414" y="254" type="curve" smooth="yes"/>
      <point x="411" y="246" type="line" smooth="yes"/>
      <point x="387" y="150"/>
      <point x="339" y="108"/>
      <point x="251" y="108" type="curve" smooth="yes"/>
      <point x="191" y="108"/>
      <point x="162" y="120"/>
      <point x="126" y="150" type="curve"/>
      <point x="64" y="96"/>
      <point x="134" y="-12"/>
    </contour>
  </outline>
</glyph>
<glyph name="p" format="2">
  <advance width="600"/>
  <unicode hex="0070"/>
  <outline>
    <contour>
      <point x="80" y="-203" type="curve"/>
      <point x="224" y="351" type="line" smooth="yes"/>
      <point x="249" y="449"/>
      <point x="257" y="492"/>
      <point x="239" y="517" type="curve" smooth="yes"/>
      <point x="224" y="536"/>
      <point x="191" y="543"/>
      <point x="165" y="543" type="curve"/>
      <point x="153" y="543"/>
      <point x="140" y="542"/>
      <point x="128" y="540" type="curve"/>
      <point x="127" y="505"/>
      <point x="124" y="477"/>
      <point x="113" y="437" type="curve" smooth="yes"/>
      <point x="-40" y="-153" type="line" smooth="yes"/>
      <point x="-52" y="-201"/>
      <point x="-18" y="-209"/>
      <point x="28" y="-209" type="curve"/>
      <point x="48" y="-209"/>
      <point x="66" y="-207"/>
    </contour>
    <contour>
      <point x="466" y="549" type="curve" smooth="yes"/>
      <point x="373" y="549"/>
      <point x="258" y="461"/>
      <point x="206" y="361" type="curve" smooth="yes"/>
      <point x="182" y="314"/>
      <point x="171" y="250"/>
      <point x="178" y="214" type="curve"/>
      <point x="262" y="359"/>
      <point x="339" y="412"/>
      <point x="417" y="412" type="curve" smooth="yes"/>
      <point x="449" y="412"/>
      <point x="481" y="386"/>
      <point x="517" y="319" type="curve"/>
      <point x="551" y="321"/>
      <point x="567" y="332"/>
      <point x="570" y="342" type="curve" smooth="yes"/>
      <point x="600" y="457"/>
      <point x="550" y="549"/>
    </contour>
    <contour>
      <point x="268" y="-12" type="curve" smooth="yes"/>
      <point x="373" y="-12"/>
      <point x="503" y="82"/>
      <point x="564" y="320" type="curve" smooth="yes"/>
      <point x="570" y="342" type="line" smooth="yes"/>
      <point x="584" y="394"/>
      <point x="565" y="477"/>
      <point x="488" y="477" type="curve" smooth="yes"/>
      <point x="465" y="477"/>
      <point x="442" y="464"/>
      <point x="432" y="426" type="curve"/>
      <point x="444" y="402"/>
      <point x="442" y="376"/>
      <point x="425" y="312" type="curve" smooth="yes"/>
      <point x="422" y="300" type="line" smooth="yes"/>
      <point x="391" y="179"/>
      <point x="334" y="112"/>
      <point x="254" y="112" type="curve" smooth="yes"/>
      <point x="206" y="112"/>
      <point x="179" y="132"/>
      <point x="160" y="165" type="curve"/>
      <point x="141" y="141"/>
      <point x="129" y="99"/>
      <point x="139" y="71" type="curve" smooth="yes"/>
      <point x="150" y="33"/>
      <point x="196" y="-12"/>
    </contour>
  </outline>
</glyph>
<glyph name="q" format="2">
  <advance width="600"/>
  <unicode hex="0071"/>
  <outline>
    <contour>
      <point x="317" y="549" type="curve" smooth="yes"/>
      <point x="187" y="549"/>
      <point x="89" y="457"/>
      <point x="37" y="233" type="curve" smooth="yes"/>
      <point x="31" y="208" type="line" smooth="yes"/>
      <point x="19" y="156"/>
      <point x="33" y="65"/>
      <point x="110" y="65" type="curve" smooth="yes"/>
      <point x="133" y="65"/>
      <point x="156" y="77"/>
      <point x="165" y="100" type="curve"/>
      <point x="153" y="136"/>
      <point x="154" y="158"/>
      <point x="172" y="225" type="curve" smooth="yes"/>
      <point x="177" y="242" type="line" smooth="yes"/>
      <point x="207" y="361"/>
      <point x="263" y="426"/>
      <point x="343" y="426" type="curve" smooth="yes"/>
      <point x="391" y="426"/>
      <point x="420" y="410"/>
      <point x="439" y="376" type="curve"/>
      <point x="458" y="400"/>
      <point x="468" y="432"/>
      <point x="457" y="458" type="curve" smooth="yes"/>
      <point x="446" y="497"/>
      <point x="391" y="549"/>
    </contour>
    <contour>
      <point x="135" y="-12" type="curve" smooth="yes"/>
      <point x="220" y="-12"/>
      <point x="339" y="76"/>
      <point x="391" y="177" type="curve" smooth="yes"/>
      <point x="416" y="224"/>
      <point x="427" y="288"/>
      <point x="419" y="324" type="curve"/>
      <point x="335" y="175"/>
      <point x="259" y="126"/>
      <point x="187" y="126" type="curve" smooth="yes"/>
      <point x="141" y="126"/>
      <point x="106" y="156"/>
      <point x="82" y="226" type="curve"/>
      <point x="48" y="223"/>
      <point x="33" y="216"/>
      <point x="31" y="208" type="curve" smooth="yes"/>
      <point x="3" y="95"/>
      <point x="52" y="-12"/>
    </contour>
    <contour>
      <point x="404" y="-203" type="curve"/>
      <point x="571" y="436" type="line" smooth="yes"/>
      <point x="581" y="476"/>
      <point x="592" y="504"/>
      <point x="610" y="539" type="curve"/>
      <point x="598" y="542"/>
      <point x="586" y="543"/>
      <point x="574" y="543" type="curve" smooth="yes"/>
      <point x="546" y="543"/>
      <point x="512" y="536"/>
      <point x="487" y="516" type="curve" smooth="yes"/>
      <point x="459" y="494"/>
      <point x="442" y="452"/>
      <point x="419" y="365" type="curve" smooth="yes"/>
      <point x="285" y="-144" type="line" smooth="yes"/>
      <point x="273" y="-197"/>
      <point x="303" y="-209"/>
      <point x="352" y="-209" type="curve" smooth="yes"/>
      <point x="372" y="-209"/>
      <point x="390" y="-207"/>
    </contour>
  </outline>
</glyph>
<glyph name="r" format="2">
  <advance width="600"/>
  <unicode hex="0072"/>
  <outline>
    <contour>
      <point x="122" y="538" type="curve"/>
      <point x="110" y="513"/>
      <point x="104" y="496"/>
      <point x="99" y="474" type="curve" smooth="yes"/>
      <point x="87" y="430"/>
      <point x="97" y="409"/>
      <point x="121" y="409" type="curve" smooth="yes"/>
      <point x="157" y="409"/>
      <point x="206" y="430"/>
      <point x="284" y="430" type="curve"/>
      <point x="306" y="515"/>
      <point x="300" y="548"/>
      <point x="269" y="548" type="curve" smooth="yes"/>
      <point x="218" y="548"/>
      <point x="164" y="545"/>
    </contour>
    <contour>
      <point x="253" y="0" type="curve"/>
      <point x="252" y="39"/>
      <point x="257" y="71"/>
      <point x="269" y="118" type="curve" smooth="yes"/>
      <point x="350" y="430" type="line" smooth="yes"/>
      <point x="368" y="500"/>
      <point x="331" y="548"/>
      <point x="269" y="548" type="curve" smooth="yes"/>
      <point x="261" y="548"/>
      <point x="254" y="545"/>
      <point x="246" y="539" type="curve"/>
      <point x="121" y="57" type="line" smooth="yes"/>
      <point x="108" y="10"/>
      <point x="139" y="-6"/>
      <point x="198" y="-6" type="curve" smooth="yes"/>
      <point x="216" y="-6"/>
      <point x="234" y="-4"/>
    </contour>
    <contour>
      <point x="278" y="179" type="curve"/>
      <point x="360" y="350"/>
      <point x="439" y="407"/>
      <point x="503" y="407" type="curve" smooth="yes"/>
      <point x="536" y="407"/>
      <point x="555" y="399"/>
      <point x="578" y="381" type="curve"/>
      <point x="582" y="381" type="line"/>
      <point x="596" y="404"/>
      <point x="606" y="427"/>
      <point x="614" y="459" type="curve"/>
      <point x="631" y="523"/>
      <point x="617" y="557"/>
      <point x="563" y="557" type="curve" smooth="yes"/>
      <point x="561" y="557" type="line" smooth="yes"/>
      <point x="481" y="557"/>
      <point x="364" y="473"/>
      <point x="294" y="314" type="curve" smooth="yes"/>
      <point x="280" y="285"/>
      <point x="271" y="254"/>
    </contour>
  </outline>
</glyph>
<glyph name="s" format="2">
  <advance width="600"/>
  <unicode hex="0073"/>
  <anchor x="387" y="549" name="top"/>
  <anchor x="236" y="-1" name="bottom"/>
  <outline>
    <contour>
      <point x="444" y="550" type="curve" smooth="yes"/>
      <point x="434" y="550" type="line" smooth="yes"/>
      <point x="285" y="550"/>
      <point x="143" y="494"/>
      <point x="114" y="381" type="curve" smooth="yes"/>
      <point x="102" y="338"/>
      <point x="156" y="304"/>
      <point x="237" y="304" type="curve"/>
      <point x="233" y="332"/>
      <point x="236" y="350"/>
      <point x="241" y="371" type="curve" smooth="yes"/>
      <point x="248" y="400"/>
      <point x="304" y="421"/>
      <point x="405" y="421" type="curve" smooth="yes"/>
      <point x="455" y="421"/>
      <point x="503" y="411"/>
      <point x="542" y="392" type="curve"/>
      <point x="546" y="392" type="line"/>
      <point x="551" y="404"/>
      <point x="557" y="415"/>
      <point x="560" y="427" type="curve"/>
      <point x="572" y="476"/>
      <point x="569" y="506"/>
      <point x="553" y="527" type="curve" smooth="yes"/>
      <point x="544" y="539"/>
      <point x="502" y="550"/>
    </contour>
    <contour>
      <point x="398" y="304" type="curve" smooth="yes"/>
      <point x="312" y="322" type="line" smooth="yes"/>
      <point x="248" y="337"/>
      <point x="235" y="348"/>
      <point x="241" y="371" type="curve" smooth="yes"/>
      <point x="245" y="386"/>
      <point x="253" y="408"/>
      <point x="273" y="437" type="curve"/>
      <point x="181" y="426"/>
      <point x="121" y="412"/>
      <point x="114" y="381" type="curve"/>
      <point x="94" y="306"/>
      <point x="124" y="260"/>
      <point x="230" y="234" type="curve" smooth="yes"/>
      <point x="335" y="209" type="line" smooth="yes"/>
      <point x="383" y="198"/>
      <point x="394" y="178"/>
      <point x="387" y="152" type="curve" smooth="yes"/>
      <point x="382" y="132"/>
      <point x="373" y="116"/>
      <point x="358" y="104" type="curve"/>
      <point x="459" y="105"/>
      <point x="505" y="121"/>
      <point x="513" y="152" type="curve" smooth="yes"/>
      <point x="530" y="223"/>
      <point x="495" y="283"/>
    </contour>
    <contour>
      <point x="261" y="117" type="curve" smooth="yes"/>
      <point x="137" y="117"/>
      <point x="102" y="133"/>
      <point x="42" y="176" type="curve"/>
      <point x="38" y="176" type="line"/>
      <point x="32" y="163"/>
      <point x="26" y="148"/>
      <point x="21" y="128" type="curve" smooth="yes"/>
      <point x="7" y="73"/>
      <point x="17" y="50"/>
      <point x="28" y="35" type="curve" smooth="yes"/>
      <point x="37" y="22"/>
      <point x="100" y="-12"/>
      <point x="201" y="-12" type="curve" smooth="yes"/>
      <point x="218" y="-12" type="line" smooth="yes"/>
      <point x="391" y="-12"/>
      <point x="482" y="35"/>
      <point x="513" y="152" type="curve" smooth="yes"/>
      <point x="526" y="202"/>
      <point x="495" y="208"/>
      <point x="450" y="218" type="curve"/>
      <point x="450" y="198"/>
      <point x="447" y="188"/>
      <point x="444" y="178" type="curve" smooth="yes"/>
      <point x="436" y="145"/>
      <point x="368" y="117"/>
    </contour>
  </outline>
</glyph>
<glyph name="t" format="2">
  <advance width="600"/>
  <unicode hex="0074"/>
  <anchor x="571" y="700" name="caronslovak"/>
  <anchor x="305" y="-1" name="bottom"/>
  <outline>
    <contour>
      <point x="287" y="700" type="curve"/>
      <point x="152" y="161" type="line" smooth="yes"/>
      <point x="131" y="78"/>
      <point x="197" y="21"/>
      <point x="292" y="32" type="curve"/>
      <point x="273" y="85"/>
      <point x="274" y="120"/>
      <point x="288" y="174" type="curve" smooth="yes"/>
      <point x="407" y="650" type="line" smooth="yes"/>
      <point x="419" y="698"/>
      <point x="384" y="705"/>
      <point x="339" y="705" type="curve" smooth="yes"/>
      <point x="319" y="705"/>
      <point x="301" y="704"/>
    </contour>
    <contour>
      <point x="510" y="171" type="curve"/>
      <point x="506" y="171" type="line"/>
      <point x="457" y="135"/>
      <point x="409" y="119"/>
      <point x="344" y="119" type="curve" smooth="yes"/>
      <point x="280" y="119"/>
      <point x="227" y="139"/>
      <point x="208" y="197" type="curve"/>
      <point x="173" y="192"/>
      <point x="157" y="180"/>
      <point x="152" y="161" type="curve" smooth="yes"/>
      <point x="126" y="58"/>
      <point x="197" y="-13"/>
      <point x="312" y="-13" type="curve" smooth="yes"/>
      <point x="321" y="-13" type="line" smooth="yes"/>
      <point x="387" y="-13"/>
      <point x="432" y="5"/>
      <point x="459" y="26" type="curve" smooth="yes"/>
      <point x="481" y="45"/>
      <point x="498" y="70"/>
      <point x="508" y="115" type="curve" smooth="yes"/>
      <point x="511" y="132"/>
      <point x="512" y="149"/>
    </contour>
    <contour>
      <point x="114" y="538" type="line"/>
      <point x="113" y="532"/>
      <point x="111" y="526"/>
      <point x="109" y="520" type="curve" smooth="yes"/>
      <point x="98" y="475"/>
      <point x="99" y="448"/>
      <point x="112" y="432" type="curve" smooth="yes"/>
      <point x="127" y="411"/>
      <point x="155" y="405"/>
      <point x="231" y="405" type="curve" smooth="yes"/>
      <point x="576" y="405" type="line"/>
      <point x="582" y="420"/>
      <point x="590" y="440"/>
      <point x="594" y="459" type="curve" smooth="yes"/>
      <point x="609" y="518"/>
      <point x="598" y="538"/>
      <point x="549" y="538" type="curve" smooth="yes"/>
    </contour>
  </outline>
</glyph>
<glyph name="v" format="2">
  <advance width="600"/>
  <unicode hex="0076"/>
  <outline>
    <contour>
      <point x="497" y="548" type="curve" smooth="yes"/>
      <point x="476" y="548" type="line"/>
      <point x="384" y="285"/>
      <point x="329" y="177"/>
      <point x="211" y="99" type="curve"/>
      <point x="181" y="78"/>
      <point x="187" y="-10"/>
      <point x="239" y="-10" type="curve"/>
      <point x="277" y="-10" type="line"/>
      <point x="404" y="77"/>
      <point x="515" y="254"/>
      <point x="595" y="482" type="curve"/>
      <point x="608" y="520"/>
      <point x="556" y="548"/>
    </contour>
    <contour>
      <point x="144" y="548" type="curve" smooth="yes"/>
      <point x="122" y="548" type="line"/>
      <point x="79" y="289"/>
      <point x="85" y="127"/>
      <point x="154" y="33" type="curve"/>
      <point x="182" y="-4"/>
      <point x="209" y="-10"/>
      <point x="236" y="-10" type="curve" smooth="yes"/>
      <point x="246" y="-10" type="line" smooth="yes"/>
      <point x="281" y="-10"/>
      <point x="312" y="19"/>
      <point x="338" y="63" type="curve"/>
      <point x="331" y="63"/>
      <point x="327" y="63"/>
      <point x="321" y="63" type="curve" smooth="yes"/>
      <point x="313" y="63"/>
      <point x="305" y="65"/>
      <point x="295" y="75" type="curve"/>
      <point x="228" y="146"/>
      <point x="219" y="265"/>
      <point x="255" y="503" type="curve"/>
      <point x="260" y="529"/>
      <point x="202" y="548"/>
    </contour>
  </outline>
</glyph>
<glyph name="w" format="2">
  <advance width="600"/>
  <unicode hex="0077"/>
  <anchor x="368" y="549" name="top"/>
  <outline>
    <contour>
      <point x="111" y="545" type="curve"/>
      <point x="30" y="236"/>
      <point x="16" y="90"/>
      <point x="72" y="11" type="curve" smooth="yes"/>
      <point x="82" y="-3"/>
      <point x="99" y="-10"/>
      <point x="116" y="-10" type="curve" smooth="yes"/>
      <point x="120" y="-10" type="line" smooth="yes"/>
      <point x="132" y="-10"/>
      <point x="155" y="26"/>
      <point x="166" y="66" type="curve" smooth="yes"/>
      <point x="132" y="110"/>
      <point x="139" y="204"/>
      <point x="217" y="501" type="curve"/>
      <point x="219" y="510"/>
      <point x="218" y="513"/>
      <point x="214" y="521" type="curve" smooth="yes"/>
      <point x="204" y="539"/>
      <point x="174" y="548"/>
      <point x="142" y="548" type="curve"/>
      <point x="129" y="548"/>
      <point x="121" y="548"/>
    </contour>
    <contour>
      <point x="311" y="429" type="curve" smooth="yes"/>
      <point x="296" y="429" type="line"/>
      <point x="241" y="216"/>
      <point x="181" y="143"/>
      <point x="89" y="48" type="curve"/>
      <point x="83" y="15"/>
      <point x="91" y="-10"/>
      <point x="117" y="-10" type="curve"/>
      <point x="137" y="-10" type="line"/>
      <point x="234" y="84"/>
      <point x="301" y="214"/>
      <point x="345" y="382" type="curve" smooth="yes"/>
      <point x="353" y="413"/>
      <point x="333" y="429"/>
    </contour>
    <contour>
      <point x="311" y="429" type="curve" smooth="yes"/>
      <point x="306" y="429" type="line"/>
      <point x="263" y="267"/>
      <point x="265" y="91"/>
      <point x="313" y="7" type="curve" smooth="yes"/>
      <point x="319" y="-4"/>
      <point x="330" y="-10"/>
      <point x="343" y="-10" type="curve" smooth="yes"/>
      <point x="354" y="-10" type="line" smooth="yes"/>
      <point x="376" y="-10"/>
      <point x="384" y="9"/>
      <point x="396" y="46" type="curve" smooth="yes"/>
      <point x="345" y="99"/>
      <point x="316" y="206"/>
      <point x="365" y="392" type="curve" smooth="yes"/>
      <point x="369" y="411"/>
      <point x="348" y="429"/>
    </contour>
    <contour>
      <point x="500" y="545" type="curve"/>
      <point x="418" y="216"/>
      <point x="389" y="148"/>
      <point x="325" y="73" type="curve"/>
      <point x="316" y="25"/>
      <point x="322" y="-10"/>
      <point x="348" y="-10" type="curve"/>
      <point x="371" y="-10" type="line"/>
      <point x="479" y="86"/>
      <point x="535" y="206"/>
      <point x="611" y="493" type="curve"/>
      <point x="614" y="507"/>
      <point x="612" y="515"/>
      <point x="608" y="519" type="curve" smooth="yes"/>
      <point x="590" y="541"/>
      <point x="555" y="548"/>
      <point x="530" y="548" type="curve"/>
      <point x="520" y="548"/>
      <point x="511" y="548"/>
    </contour>
  </outline>
</glyph>
<glyph name="x" format="2">
  <advance width="600"/>
  <unicode hex="0078"/>
  <outline>
    <contour>
      <point x="421" y="-10" type="curve" smooth="yes"/>
      <point x="465" y="-10"/>
      <point x="486" y="-3"/>
      <point x="512" y="15" type="curve"/>
      <point x="450" y="84"/>
      <point x="393" y="162"/>
      <point x="354" y="250" type="curve" smooth="yes"/>
      <point x="346" y="269"/>
      <point x="340" y="288"/>
      <point x="332" y="308" type="curve" smooth="yes"/>
      <point x="307" y="368"/>
      <point x="291" y="434"/>
      <point x="277" y="501" type="curve" smooth="yes"/>
      <point x="270" y="536"/>
      <point x="231" y="546"/>
      <point x="175" y="546" type="curve" smooth="yes"/>
      <point x="151" y="546"/>
      <point x="128" y="544"/>
      <point x="110" y="539" type="curve"/>
      <point x="138" y="419"/>
      <point x="177" y="306"/>
      <point x="227" y="201" type="curve" smooth="yes"/>
      <point x="236" y="183"/>
      <point x="245" y="165"/>
      <point x="254" y="148" type="curve" smooth="yes"/>
      <point x="278" y="104"/>
      <point x="305" y="63"/>
      <point x="337" y="24" type="curve" smooth="yes"/>
      <point x="358" y="-2"/>
      <point x="380" y="-10"/>
    </contour>
    <contour>
      <point x="495" y="548" type="curve" smooth="yes"/>
      <point x="473" y="547" type="line"/>
      <point x="418" y="453"/>
      <point x="358" y="376"/>
      <point x="294" y="306" type="curve" smooth="yes"/>
      <point x="275" y="287"/>
      <point x="250" y="278"/>
      <point x="231" y="258" type="curve" smooth="yes"/>
      <point x="168" y="199"/>
      <point x="99" y="140"/>
      <point x="13" y="82" type="curve" smooth="yes"/>
      <point x="-13" y="64"/>
      <point x="-17" y="56"/>
      <point x="-19" y="43" type="curve" smooth="yes"/>
      <point x="-25" y="12"/>
      <point x="31" y="-10"/>
      <point x="106" y="-10" type="curve" smooth="yes"/>
      <point x="122" y="-10" type="line"/>
      <point x="188" y="44"/>
      <point x="248" y="96"/>
      <point x="304" y="149" type="curve" smooth="yes"/>
      <point x="322" y="166"/>
      <point x="341" y="176"/>
      <point x="359" y="193" type="curve" smooth="yes"/>
      <point x="455" y="289"/>
      <point x="528" y="374"/>
      <point x="588" y="467" type="curve" smooth="yes"/>
      <point x="595" y="478"/>
      <point x="597" y="487"/>
      <point x="599" y="495" type="curve" smooth="yes"/>
      <point x="607" y="532"/>
      <point x="561" y="550"/>
    </contour>
  </outline>
</glyph>
<glyph name="z" format="2">
  <advance width="600"/>
  <unicode hex="007A"/>
  <anchor x="370" y="549" name="top"/>
  <outline>
    <contour>
      <point x="132" y="538" type="line"/>
      <point x="126" y="527"/>
      <point x="122" y="516"/>
      <point x="119" y="503" type="curve" smooth="yes"/>
      <point x="109" y="466"/>
      <point x="113" y="440"/>
      <point x="124" y="424" type="curve" smooth="yes"/>
      <point x="132" y="414"/>
      <point x="139" y="409"/>
      <point x="158" y="409" type="curve" smooth="yes"/>
      <point x="284" y="409" type="line" smooth="yes"/>
      <point x="367" y="409"/>
      <point x="502" y="412"/>
      <point x="585" y="425" type="curve"/>
      <point x="587" y="432" type="line" smooth="yes"/>
      <point x="596" y="469"/>
      <point x="585" y="498"/>
      <point x="568" y="523" type="curve" smooth="yes"/>
      <point x="559" y="534"/>
      <point x="549" y="538"/>
      <point x="529" y="538" type="curve" smooth="yes"/>
    </contour>
    <contour>
      <point x="466" y="473" type="curve"/>
      <point x="358" y="342"/>
      <point x="198" y="215"/>
      <point x="19" y="119" type="curve"/>
      <point x="9" y="81"/>
      <point x="86" y="66"/>
      <point x="144" y="89" type="curve" smooth="yes"/>
      <point x="320" y="172"/>
      <point x="573" y="376"/>
      <point x="585" y="425" type="curve"/>
      <point x="594" y="462"/>
      <point x="550" y="473"/>
    </contour>
    <contour>
      <point x="468" y="0" type="line"/>
      <point x="476" y="15"/>
      <point x="483" y="34"/>
      <point x="489" y="54" type="curve"/>
      <point x="503" y="113"/>
      <point x="493" y="128"/>
      <point x="441" y="128" type="curve" smooth="yes"/>
      <point x="322" y="128" type="line" smooth="yes"/>
      <point x="225" y="128"/>
      <point x="109" y="125"/>
      <point x="19" y="119" type="curve"/>
      <point x="16" y="106" type="line" smooth="yes"/>
      <point x="4" y="63"/>
      <point x="7" y="30"/>
      <point x="22" y="10" type="curve" smooth="yes"/>
      <point x="28" y="3"/>
      <point x="35" y="0"/>
      <point x="46" y="0" type="curve" smooth="yes"/>
    </contour>
  </outline>
</glyph>
<glyph name="braceleft" format="2">
  <advance width="600"/>
  <unicode hex="007B"/>
  <outline>
    <contour>
      <point x="533" y="637" type="curve" smooth="yes"/>
      <point x="562" y="637"/>
      <point x="586" y="635"/>
      <point x="602" y="629" type="curve"/>
      <point x="606" y="629" type="line"/>
      <point x="613" y="643"/>
      <point x="617" y="655"/>
      <point x="622" y="675" type="curve"/>
      <point x="635" y="726"/>
      <point x="614" y="770"/>
      <point x="575" y="770" type="curve" smooth="yes"/>
      <point x="571" y="770" type="line" smooth="yes"/>
      <point x="449" y="770"/>
      <point x="346" y="722"/>
      <point x="328" y="650" type="curve" smooth="yes"/>
      <point x="327" y="647" type="line" smooth="yes"/>
      <point x="319" y="614"/>
      <point x="345" y="585"/>
      <point x="382" y="581" type="curve"/>
      <point x="424" y="624"/>
      <point x="474" y="637"/>
    </contour>
    <contour>
      <point x="435" y="433" type="curve" smooth="yes"/>
      <point x="461" y="538"/>
      <point x="411" y="593"/>
      <point x="421" y="633" type="curve" smooth="yes"/>
      <point x="426" y="653"/>
      <point x="434" y="668"/>
      <point x="449" y="687" type="curve"/>
      <point x="396" y="701"/>
      <point x="338" y="691"/>
      <point x="327" y="647" type="curve" smooth="yes"/>
      <point x="326" y="642" type="line" smooth="yes"/>
      <point x="314" y="594"/>
      <point x="336" y="538"/>
      <point x="316" y="460" type="curve" smooth="yes"/>
      <point x="300" y="393"/>
      <point x="247" y="360"/>
      <point x="139" y="360" type="curve" smooth="yes"/>
      <point x="132" y="360" type="line"/>
      <point x="130" y="350" type="line" smooth="yes"/>
      <point x="122" y="317"/>
      <point x="122" y="284"/>
      <point x="159" y="284" type="curve" smooth="yes"/>
      <point x="180" y="284" type="line" smooth="yes"/>
      <point x="299" y="284"/>
      <point x="412" y="343"/>
    </contour>
    <contour>
      <point x="368" y="166" type="curve" smooth="yes"/>
      <point x="393" y="264"/>
      <point x="312" y="314"/>
      <point x="191" y="314" type="curve" smooth="yes"/>
      <point x="148" y="314"/>
      <point x="140" y="336"/>
      <point x="131" y="354" type="curve"/>
      <point x="129" y="346" type="line" smooth="yes"/>
      <point x="114" y="288"/>
      <point x="124" y="238"/>
      <point x="157" y="238" type="curve" smooth="yes"/>
      <point x="160" y="238" type="line" smooth="yes"/>
      <point x="218" y="238"/>
      <point x="252" y="205"/>
      <point x="236" y="139" type="curve" smooth="yes"/>
      <point x="216" y="61"/>
      <point x="166" y="1"/>
      <point x="154" y="-48" type="curve" smooth="yes"/>
      <point x="152" y="-52" type="line" smooth="yes"/>
      <point x="141" y="-98"/>
      <point x="196" y="-107"/>
      <point x="255" y="-93" type="curve"/>
      <point x="248" y="-74"/>
      <point x="248" y="-58"/>
      <point x="253" y="-38" type="curve" smooth="yes"/>
      <point x="263" y="3"/>
      <point x="343" y="66"/>
    </contour>
    <contour>
      <point x="347" y="-38" type="curve" smooth="yes"/>
      <point x="294" y="-38"/>
      <point x="254" y="-26"/>
      <point x="238" y="10" type="curve"/>
      <point x="195" y="4"/>
      <point x="159" y="-27"/>
      <point x="153" y="-49" type="curve" smooth="yes"/>
      <point x="152" y="-54" type="line" smooth="yes"/>
      <point x="134" y="-127"/>
      <point x="186" y="-172"/>
      <point x="330" y="-172" type="curve" smooth="yes"/>
      <point x="335" y="-172" type="line" smooth="yes"/>
      <point x="380" y="-172"/>
      <point x="422" y="-118"/>
      <point x="443" y="-34" type="curve"/>
      <point x="445" y="-26" type="line"/>
      <point x="441" y="-26" type="line"/>
      <point x="407" y="-35"/>
      <point x="384" y="-38"/>
    </contour>
  </outline>
</glyph>
<glyph name="bar" format="2">
  <advance width="600"/>
  <unicode hex="007C"/>
  <outline>
    <contour>
      <point x="340" y="758" type="curve"/>
      <point x="339" y="723"/>
      <point x="334" y="686"/>
      <point x="324" y="646" type="curve" smooth="yes"/>
      <point x="136" y="-104" type="line" smooth="yes"/>
      <point x="126" y="-144"/>
      <point x="158" y="-163"/>
      <point x="230" y="-163" type="curve" smooth="yes"/>
      <point x="245" y="-163"/>
      <point x="256" y="-162"/>
      <point x="263" y="-161" type="curve"/>
      <point x="477" y="696" type="line" smooth="yes"/>
      <point x="484" y="721"/>
      <point x="483" y="734"/>
      <point x="475" y="745" type="curve" smooth="yes"/>
      <point x="464" y="759"/>
      <point x="444" y="765"/>
      <point x="400" y="765" type="curve" smooth="yes"/>
      <point x="378" y="765"/>
      <point x="361" y="763"/>
    </contour>
  </outline>
</glyph>
<glyph name="braceright" format="2">
  <advance width="600"/>
  <unicode hex="007D"/>
  <outline>
    <contour>
      <point x="82" y="-39" type="curve" smooth="yes"/>
      <point x="53" y="-39"/>
      <point x="29" y="-37"/>
      <point x="13" y="-31" type="curve"/>
      <point x="9" y="-31" type="line"/>
      <point x="2" y="-45"/>
      <point x="-2" y="-57"/>
      <point x="-7" y="-77" type="curve"/>
      <point x="-20" y="-128"/>
      <point x="1" y="-172"/>
      <point x="40" y="-172" type="curve" smooth="yes"/>
      <point x="44" y="-172" type="line" smooth="yes"/>
      <point x="166" y="-172"/>
      <point x="269" y="-124"/>
      <point x="287" y="-52" type="curve" smooth="yes"/>
      <point x="288" y="-49" type="line" smooth="yes"/>
      <point x="296" y="-16"/>
      <point x="270" y="13"/>
      <point x="233" y="17" type="curve"/>
      <point x="191" y="-26"/>
      <point x="141" y="-39"/>
    </contour>
    <contour>
      <point x="180" y="165" type="curve" smooth="yes"/>
      <point x="154" y="60"/>
      <point x="204" y="5"/>
      <point x="194" y="-35" type="curve" smooth="yes"/>
      <point x="189" y="-55"/>
      <point x="181" y="-70"/>
      <point x="166" y="-89" type="curve"/>
      <point x="219" y="-103"/>
      <point x="277" y="-93"/>
      <point x="288" y="-49" type="curve" smooth="yes"/>
      <point x="289" y="-44" type="line" smooth="yes"/>
      <point x="301" y="4"/>
      <point x="279" y="60"/>
      <point x="299" y="138" type="curve" smooth="yes"/>
      <point x="315" y="205"/>
      <point x="369" y="238"/>
      <point x="476" y="238" type="curve" smooth="yes"/>
      <point x="483" y="238" type="line"/>
      <point x="485" y="248" type="line" smooth="yes"/>
      <point x="493" y="281"/>
      <point x="493" y="314"/>
      <point x="456" y="314" type="curve" smooth="yes"/>
      <point x="435" y="314" type="line" smooth="yes"/>
      <point x="316" y="314"/>
      <point x="203" y="255"/>
    </contour>
    <contour>
      <point x="247" y="432" type="curve" smooth="yes"/>
      <point x="222" y="334"/>
      <point x="303" y="284"/>
      <point x="424" y="284" type="curve" smooth="yes"/>
      <point x="467" y="284"/>
      <point x="475" y="262"/>
      <point x="484" y="244" type="curve"/>
      <point x="486" y="252" type="line" smooth="yes"/>
      <point x="501" y="310"/>
      <point x="492" y="360"/>
      <point x="458" y="360" type="curve" smooth="yes"/>
      <point x="455" y="360" type="line" smooth="yes"/>
      <point x="398" y="360"/>
      <point x="363" y="393"/>
      <point x="379" y="459" type="curve" smooth="yes"/>
      <point x="399" y="537"/>
      <point x="449" y="597"/>
      <point x="462" y="646" type="curve" smooth="yes"/>
      <point x="463" y="650" type="line" smooth="yes"/>
      <point x="474" y="696"/>
      <point x="419" y="705"/>
      <point x="360" y="691" type="curve"/>
      <point x="367" y="672"/>
      <point x="367" y="656"/>
      <point x="362" y="636" type="curve" smooth="yes"/>
      <point x="352" y="595"/>
      <point x="272" y="532"/>
    </contour>
    <contour>
      <point x="268" y="636" type="curve" smooth="yes"/>
      <point x="321" y="636"/>
      <point x="361" y="624"/>
      <point x="377" y="588" type="curve"/>
      <point x="420" y="594"/>
      <point x="456" y="625"/>
      <point x="462" y="647" type="curve" smooth="yes"/>
      <point x="463" y="652" type="line" smooth="yes"/>
      <point x="481" y="725"/>
      <point x="429" y="770"/>
      <point x="285" y="770" type="curve" smooth="yes"/>
      <point x="280" y="770" type="line" smooth="yes"/>
      <point x="235" y="770"/>
      <point x="194" y="716"/>
      <point x="173" y="632" type="curve"/>
      <point x="171" y="624" type="line"/>
      <point x="175" y="624" type="line"/>
      <point x="208" y="633"/>
      <point x="231" y="636"/>
    </contour>
  </outline>
</glyph>
<glyph name="exclamdown" format="2">
  <advance width="600"/>
  <unicode hex="00A1"/>
  <outline>
    <contour>
      <point x="243" y="254" type="line"/>
      <point x="211" y="186"/>
      <point x="173" y="84"/>
      <point x="156" y="16" type="curve"/>
      <point x="125" y="-111" type="line" smooth="yes"/>
      <point x="113" y="-156"/>
      <point x="157" y="-175"/>
      <point x="222" y="-175" type="curve" smooth="yes"/>
      <point x="245" y="-175"/>
      <point x="262" y="-174"/>
      <point x="283" y="-169" type="curve"/>
      <point x="284" y="-133"/>
      <point x="289" y="-96"/>
      <point x="299" y="-57" type="curve" smooth="yes"/>
      <point x="316" y="11" type="line"/>
      <point x="338" y="98"/>
      <point x="353" y="205"/>
      <point x="338" y="226" type="curve" smooth="yes"/>
      <point x="325" y="243"/>
      <point x="298" y="254"/>
      <point x="256" y="254" type="curve"/>
    </contour>
    <contour>
      <point x="270" y="538" type="curve"/>
      <point x="239" y="412" type="line" smooth="yes"/>
      <point x="225" y="354"/>
      <point x="283" y="343"/>
      <point x="342" y="343" type="curve" smooth="yes"/>
      <point x="365" y="343"/>
      <point x="393" y="345"/>
      <point x="417" y="350" type="curve"/>
      <point x="449" y="476" type="line" smooth="yes"/>
      <point x="463" y="534"/>
      <point x="405" y="545"/>
      <point x="346" y="545" type="curve" smooth="yes"/>
      <point x="323" y="545"/>
      <point x="295" y="542"/>
    </contour>
  </outline>
</glyph>
<glyph name="cent" format="2">
  <advance width="600"/>
  <unicode hex="00A2"/>
  <outline>
    <contour>
      <point x="400" y="382" type="line"/>
      <point x="537" y="681" type="line" smooth="yes"/>
      <point x="568" y="746"/>
      <point x="552" y="787"/>
      <point x="484" y="787" type="curve" smooth="yes"/>
      <point x="470" y="787"/>
      <point x="446" y="783"/>
      <point x="430" y="778" type="curve"/>
      <point x="433" y="750"/>
      <point x="431" y="723"/>
      <point x="421" y="680" type="curve"/>
      <point x="357" y="428" type="line" smooth="yes"/>
      <point x="350" y="399"/>
      <point x="372" y="382"/>
      <point x="396" y="382" type="curve" smooth="yes"/>
    </contour>
    <contour>
      <point x="328" y="312" type="line"/>
      <point x="191" y="13" type="line" smooth="yes"/>
      <point x="160" y="-52"/>
      <point x="176" y="-93"/>
      <point x="244" y="-93" type="curve" smooth="yes"/>
      <point x="258" y="-93"/>
      <point x="282" y="-89"/>
      <point x="298" y="-84" type="curve"/>
      <point x="295" y="-56"/>
      <point x="297" y="-29"/>
      <point x="307" y="14" type="curve"/>
      <point x="371" y="266" type="line" smooth="yes"/>
      <point x="378" y="295"/>
      <point x="356" y="312"/>
      <point x="332" y="312" type="curve" smooth="yes"/>
    </contour>
    <contour>
      <point x="447" y="630" type="curve" smooth="yes"/>
      <point x="269" y="630"/>
      <point x="115" y="508"/>
      <point x="68" y="320" type="curve" smooth="yes"/>
      <point x="65" y="309" type="line" smooth="yes"/>
      <point x="30" y="169"/>
      <point x="129" y="70"/>
      <point x="271" y="70" type="curve" smooth="yes"/>
      <point x="294" y="70"/>
      <point x="305" y="86"/>
      <point x="316" y="124" type="curve"/>
      <point x="190" y="175"/>
      <point x="182" y="244"/>
      <point x="199" y="311" type="curve" smooth="yes"/>
      <point x="201" y="320" type="line" smooth="yes"/>
      <point x="226" y="422"/>
      <point x="309" y="494"/>
      <point x="403" y="494" type="curve" smooth="yes"/>
      <point x="474" y="494"/>
      <point x="508" y="476"/>
      <point x="547" y="432" type="curve"/>
      <point x="551" y="432" type="line"/>
      <point x="568" y="459"/>
      <point x="578" y="483"/>
      <point x="586" y="513" type="curve" smooth="yes"/>
      <point x="596" y="552"/>
      <point x="594" y="572"/>
      <point x="581" y="589" type="curve" smooth="yes"/>
      <point x="563" y="613"/>
      <point x="517" y="630"/>
    </contour>
    <contour>
      <point x="165" y="301" type="curve"/>
      <point x="76" y="208"/>
      <point x="140" y="70"/>
      <point x="271" y="70" type="curve" smooth="yes"/>
      <point x="375" y="70"/>
      <point x="429" y="91"/>
      <point x="461" y="116" type="curve" smooth="yes"/>
      <point x="484" y="135"/>
      <point x="510" y="179"/>
      <point x="518" y="213" type="curve"/>
      <point x="523" y="233"/>
      <point x="525" y="244"/>
      <point x="526" y="257" type="curve"/>
      <point x="522" y="257" type="line"/>
      <point x="456" y="217"/>
      <point x="396" y="198"/>
      <point x="312" y="198" type="curve" smooth="yes"/>
      <point x="224" y="198"/>
      <point x="193" y="220"/>
    </contour>
  </outline>
</glyph>
<glyph name="sterling" format="2">
  <advance width="600"/>
  <unicode hex="00A3"/>
  <outline>
    <contour>
      <point x="415" y="587" type="curve" smooth="yes"/>
      <point x="500" y="587"/>
      <point x="556" y="573"/>
      <point x="594" y="518" type="curve"/>
      <point x="598" y="518" type="line"/>
      <point x="609" y="538"/>
      <point x="615" y="555"/>
      <point x="622" y="581" type="curve" smooth="yes"/>
      <point x="634" y="631"/>
      <point x="632" y="653"/>
      <point x="613" y="678" type="curve" smooth="yes"/>
      <point x="594" y="704"/>
      <point x="536" y="720"/>
      <point x="448" y="720" type="curve" smooth="yes"/>
      <point x="285" y="720"/>
      <point x="176" y="642"/>
      <point x="151" y="542" type="curve" smooth="yes"/>
      <point x="148" y="528" type="line" smooth="yes"/>
      <point x="140" y="496"/>
      <point x="179" y="485"/>
      <point x="254" y="480" type="curve"/>
      <point x="271" y="549"/>
      <point x="323" y="587"/>
    </contour>
    <contour>
      <point x="148" y="528" type="curve" smooth="yes"/>
      <point x="118" y="411"/>
      <point x="187" y="317"/>
      <point x="157" y="199" type="curve" smooth="yes"/>
      <point x="145" y="150"/>
      <point x="98" y="117"/>
      <point x="29" y="117" type="curve" smooth="yes"/>
      <point x="23" y="117"/>
      <point x="19" y="117"/>
      <point x="15" y="119" type="curve"/>
      <point x="11" y="119" type="line"/>
      <point x="3" y="101"/>
      <point x="-2" y="88"/>
      <point x="-7" y="68" type="curve" smooth="yes"/>
      <point x="-21" y="11"/>
      <point x="-12" y="-19"/>
      <point x="31" y="-19" type="curve" smooth="yes"/>
      <point x="38" y="-19" type="line" smooth="yes"/>
      <point x="139" y="-19"/>
      <point x="243" y="54"/>
      <point x="272" y="173" type="curve" smooth="yes"/>
      <point x="301" y="289"/>
      <point x="253" y="394"/>
      <point x="282" y="509" type="curve" smooth="yes"/>
      <point x="291" y="547"/>
      <point x="307" y="579"/>
      <point x="345" y="618" type="curve"/>
      <point x="232" y="618"/>
      <point x="162" y="583"/>
    </contour>
    <contour>
      <point x="159" y="89" type="curve"/>
      <point x="232" y="11"/>
      <point x="297" y="-19"/>
      <point x="396" y="-19" type="curve" smooth="yes"/>
      <point x="402" y="-19" type="line" smooth="yes"/>
      <point x="465" y="-19"/>
      <point x="497" y="15"/>
      <point x="516" y="90" type="curve"/>
      <point x="522" y="117"/>
      <point x="525" y="141"/>
      <point x="525" y="159" type="curve"/>
      <point x="521" y="159" type="line"/>
      <point x="487" y="135"/>
      <point x="456" y="123"/>
      <point x="405" y="123" type="curve" smooth="yes"/>
      <point x="335" y="123"/>
      <point x="281" y="134"/>
      <point x="199" y="176" type="curve"/>
      <point x="162" y="144"/>
      <point x="148" y="108"/>
    </contour>
    <contour>
      <point x="81" y="391" type="line"/>
      <point x="79" y="386"/>
      <point x="78" y="380"/>
      <point x="76" y="374" type="curve" smooth="yes"/>
      <point x="63" y="322"/>
      <point x="63" y="292"/>
      <point x="75" y="276" type="curve" smooth="yes"/>
      <point x="85" y="263"/>
      <point x="101" y="259"/>
      <point x="140" y="259" type="curve" smooth="yes"/>
      <point x="458" y="259" type="line"/>
      <point x="466" y="276"/>
      <point x="473" y="296"/>
      <point x="477" y="312" type="curve" smooth="yes"/>
      <point x="492" y="371"/>
      <point x="482" y="391"/>
      <point x="433" y="391" type="curve" smooth="yes"/>
    </contour>
  </outline>
</glyph>
<glyph name="yen" format="2">
  <advance width="600"/>
  <unicode hex="00A5"/>
  <outline>
    <contour>
      <point x="49" y="421" type="line"/>
      <point x="48" y="416"/>
      <point x="46" y="410"/>
      <point x="45" y="404" type="curve" smooth="yes"/>
      <point x="34" y="361"/>
      <point x="37" y="337"/>
      <point x="48" y="323" type="curve" smooth="yes"/>
      <point x="58" y="310"/>
      <point x="74" y="305"/>
      <point x="113" y="305" type="curve"/>
      <point x="205" y="305" type="line"/>
      <point x="213" y="323"/>
      <point x="220" y="343"/>
      <point x="224" y="359" type="curve" smooth="yes"/>
      <point x="236" y="404"/>
      <point x="225" y="421"/>
      <point x="175" y="421" type="curve"/>
    </contour>
    <contour>
      <point x="408" y="421" type="line"/>
      <point x="397" y="403"/>
      <point x="389" y="388"/>
      <point x="384" y="365" type="curve" smooth="yes"/>
      <point x="375" y="332"/>
      <point x="395" y="305"/>
      <point x="423" y="305" type="curve"/>
      <point x="592" y="305" type="line"/>
      <point x="600" y="323"/>
      <point x="607" y="343"/>
      <point x="612" y="359" type="curve" smooth="yes"/>
      <point x="623" y="404"/>
      <point x="612" y="421"/>
      <point x="563" y="421" type="curve"/>
    </contour>
    <contour>
      <point x="536" y="101" type="line"/>
      <point x="540" y="109"/>
      <point x="543" y="120"/>
      <point x="546" y="129" type="curve" smooth="yes"/>
      <point x="555" y="164"/>
      <point x="551" y="185"/>
      <point x="540" y="200" type="curve" smooth="yes"/>
      <point x="530" y="213"/>
      <point x="514" y="217"/>
      <point x="475" y="217" type="curve"/>
      <point x="12" y="217" type="line"/>
      <point x="4" y="199"/>
      <point x="-3" y="180"/>
      <point x="-7" y="163" type="curve" smooth="yes"/>
      <point x="-19" y="117"/>
      <point x="-8" y="101"/>
      <point x="42" y="101" type="curve"/>
    </contour>
    <contour>
      <point x="157" y="710" type="line"/>
      <point x="123" y="470"/>
      <point x="137" y="331"/>
      <point x="209" y="236" type="curve"/>
      <point x="235" y="201"/>
      <point x="264" y="197"/>
      <point x="289" y="197" type="curve"/>
      <point x="330" y="197"/>
      <point x="358" y="211"/>
      <point x="375" y="278" type="curve"/>
      <point x="285" y="348"/>
      <point x="262" y="436"/>
      <point x="292" y="665" type="curve"/>
      <point x="296" y="691"/>
      <point x="238" y="710"/>
      <point x="179" y="710" type="curve" smooth="yes"/>
    </contour>
    <contour>
      <point x="525" y="710" type="line"/>
      <point x="442" y="474"/>
      <point x="387" y="384"/>
      <point x="261" y="295" type="curve"/>
      <point x="229" y="274"/>
      <point x="238" y="197"/>
      <point x="289" y="197" type="curve"/>
      <point x="327" y="197" type="line"/>
      <point x="453" y="287"/>
      <point x="572" y="446"/>
      <point x="642" y="644" type="curve"/>
      <point x="655" y="682"/>
      <point x="604" y="710"/>
      <point x="547" y="710" type="curve"/>
    </contour>
    <contour>
      <point x="314" y="-4" type="curve"/>
      <point x="315" y="32"/>
      <point x="321" y="69"/>
      <point x="330" y="108" type="curve" smooth="yes"/>
      <point x="366" y="251" type="line" smooth="yes"/>
      <point x="375" y="286"/>
      <point x="320" y="311"/>
      <point x="240" y="311" type="curve"/>
      <point x="177" y="58" type="line" smooth="yes"/>
      <point x="171" y="34"/>
      <point x="171" y="21"/>
      <point x="179" y="10" type="curve" smooth="yes"/>
      <point x="190" y="-5"/>
      <point x="211" y="-10"/>
      <point x="254" y="-10" type="curve" smooth="yes"/>
      <point x="276" y="-10"/>
      <point x="293" y="-8"/>
    </contour>
  </outline>
</glyph>
<glyph name="brokenbar" format="2">
  <advance width="600"/>
  <unicode hex="00A6"/>
  <outline>
    <contour>
      <point x="340" y="758" type="curve"/>
      <point x="339" y="723"/>
      <point x="334" y="686"/>
      <point x="324" y="646" type="curve" smooth="yes"/>
      <point x="269" y="426" type="line" smooth="yes"/>
      <point x="259" y="386"/>
      <point x="291" y="367"/>
      <point x="363" y="367" type="curve" smooth="yes"/>
      <point x="377" y="367"/>
      <point x="388" y="368"/>
      <point x="396" y="369" type="curve"/>
      <point x="477" y="696" type="line" smooth="yes"/>
      <point x="484" y="721"/>
      <point x="483" y="734"/>
      <point x="475" y="745" type="curve" smooth="yes"/>
      <point x="464" y="759"/>
      <point x="444" y="765"/>
      <point x="400" y="765" type="curve" smooth="yes"/>
      <point x="378" y="765"/>
      <point x="361" y="763"/>
    </contour>
    <contour>
      <point x="219" y="228" type="curve"/>
      <point x="136" y="-104" type="line"/>
      <point x="126" y="-144"/>
      <point x="158" y="-163"/>
      <point x="230" y="-163" type="curve" smooth="yes"/>
      <point x="245" y="-163"/>
      <point x="256" y="-162"/>
      <point x="263" y="-161" type="curve"/>
      <point x="346" y="170" type="line" smooth="yes"/>
      <point x="358" y="217"/>
      <point x="336" y="235"/>
      <point x="272" y="235" type="curve" smooth="yes"/>
      <point x="253" y="235"/>
      <point x="234" y="233"/>
    </contour>
  </outline>
</glyph>
<glyph name="ordfeminine" format="2">
  <advance width="600"/>
  <unicode hex="00AA"/>
  <outline>
    <contour>
      <point x="413" y="760" type="curve" smooth="yes"/>
      <point x="328" y="760"/>
      <point x="284" y="751"/>
      <point x="258" y="731" type="curve" smooth="yes"/>
      <point x="239" y="716"/>
      <point x="227" y="695"/>
      <point x="221" y="667" type="curve" smooth="yes"/>
      <point x="217" y="654"/>
      <point x="215" y="642"/>
      <point x="216" y="631" type="curve"/>
      <point x="220" y="631" type="line"/>
      <point x="268" y="646"/>
      <point x="305" y="653"/>
      <point x="356" y="653" type="curve" smooth="yes"/>
      <point x="443" y="653"/>
      <point x="478" y="619"/>
      <point x="495" y="541" type="curve"/>
      <point x="528" y="541"/>
      <point x="545" y="553"/>
      <point x="552" y="582" type="curve"/>
      <point x="575" y="674"/>
      <point x="532" y="760"/>
    </contour>
    <contour>
      <point x="431" y="668" type="curve"/>
      <point x="447" y="637"/>
      <point x="449" y="620"/>
      <point x="439" y="581" type="curve" smooth="yes"/>
      <point x="420" y="506"/>
      <point x="414" y="480"/>
      <point x="400" y="424" type="curve" smooth="yes"/>
      <point x="382" y="354"/>
      <point x="434" y="330"/>
      <point x="506" y="351" type="curve"/>
      <point x="499" y="366"/>
      <point x="501" y="376"/>
      <point x="507" y="399" type="curve" smooth="yes"/>
      <point x="525" y="474"/>
      <point x="536" y="516"/>
      <point x="552" y="582" type="curve" smooth="yes"/>
      <point x="563" y="624"/>
      <point x="510" y="691"/>
    </contour>
    <contour>
      <point x="569" y="404" type="line"/>
      <point x="565" y="404" type="line"/>
      <point x="562" y="403"/>
      <point x="559" y="402"/>
      <point x="555" y="402" type="curve" smooth="yes"/>
      <point x="530" y="402"/>
      <point x="497" y="413"/>
      <point x="490" y="457" type="curve"/>
      <point x="432" y="457"/>
      <point x="406" y="450"/>
      <point x="400" y="424" type="curve" smooth="yes"/>
      <point x="382" y="353"/>
      <point x="425" y="290"/>
      <point x="492" y="290" type="curve" smooth="yes"/>
      <point x="495" y="290" type="line" smooth="yes"/>
      <point x="527" y="290"/>
      <point x="555" y="351"/>
      <point x="565" y="391" type="curve"/>
    </contour>
    <contour>
      <point x="247" y="431" type="curve" smooth="yes"/>
      <point x="250" y="441" type="line" smooth="yes"/>
      <point x="258" y="474"/>
      <point x="271" y="492"/>
      <point x="289" y="511" type="curve"/>
      <point x="245" y="526"/>
      <point x="144" y="471"/>
      <point x="133" y="427" type="curve" smooth="yes"/>
      <point x="130" y="413" type="line" smooth="yes"/>
      <point x="110" y="333"/>
      <point x="146" y="290"/>
      <point x="229" y="290" type="curve" smooth="yes"/>
      <point x="297" y="290"/>
      <point x="361" y="317"/>
      <point x="412" y="377" type="curve" smooth="yes"/>
      <point x="437" y="406"/>
      <point x="435" y="430"/>
      <point x="430" y="449" type="curve"/>
      <point x="374" y="403"/>
      <point x="327" y="389"/>
      <point x="293" y="389" type="curve" smooth="yes"/>
      <point x="290" y="389" type="line" smooth="yes"/>
      <point x="249" y="389"/>
      <point x="239" y="400"/>
    </contour>
    <contour>
      <point x="463" y="528" type="curve" smooth="yes"/>
      <point x="449" y="546"/>
      <point x="397" y="559"/>
      <point x="306" y="559" type="curve" smooth="yes"/>
      <point x="222" y="559"/>
      <point x="149" y="491"/>
      <point x="133" y="427" type="curve" smooth="yes"/>
      <point x="127" y="404"/>
      <point x="137" y="389"/>
      <point x="162" y="389" type="curve"/>
      <point x="213" y="457"/>
      <point x="265" y="485"/>
      <point x="333" y="485" type="curve" smooth="yes"/>
      <point x="373" y="485"/>
      <point x="423" y="479"/>
      <point x="466" y="468" type="curve"/>
      <point x="474" y="499"/>
      <point x="471" y="518"/>
    </contour>
  </outline>
</glyph>
<glyph name="logicalnot" format="2">
  <advance width="600"/>
  <unicode hex="00AC"/>
  <outline>
    <contour>
      <point x="96" y="447" type="line"/>
      <point x="95" y="442"/>
      <point x="94" y="436"/>
      <point x="92" y="430" type="curve" smooth="yes"/>
      <point x="81" y="385"/>
      <point x="82" y="361"/>
      <point x="94" y="344" type="curve" smooth="yes"/>
      <point x="104" y="331"/>
      <point x="120" y="327"/>
      <point x="159" y="327" type="curve"/>
      <point x="552" y="327" type="line"/>
      <point x="555" y="338" type="line"/>
      <point x="573" y="413"/>
      <point x="564" y="447"/>
      <point x="517" y="447" type="curve"/>
    </contour>
    <contour>
      <point x="504" y="138" type="curve"/>
      <point x="555" y="338" type="line" smooth="yes"/>
      <point x="562" y="366"/>
      <point x="523" y="376"/>
      <point x="448" y="376" type="curve"/>
      <point x="431" y="376" type="line"/>
      <point x="384" y="188" type="line" smooth="yes"/>
      <point x="372" y="140"/>
      <point x="403" y="133"/>
      <point x="454" y="133" type="curve" smooth="yes"/>
      <point x="473" y="133"/>
      <point x="491" y="135"/>
    </contour>
  </outline>
</glyph>
<glyph name="registered" format="2">
  <advance width="600"/>
  <unicode hex="00AE"/>
  <outline>
    <contour>
      <point x="287" y="330" type="curve"/>
      <point x="288" y="355"/>
      <point x="292" y="378"/>
      <point x="298" y="404" type="curve"/>
      <point x="331" y="532" type="line"/>
      <point x="340" y="570"/>
      <point x="322" y="584"/>
      <point x="268" y="584" type="curve"/>
      <point x="214" y="365" type="line" smooth="yes"/>
      <point x="208" y="341"/>
      <point x="220" y="324"/>
      <point x="254" y="324" type="curve" smooth="yes"/>
      <point x="264" y="324"/>
      <point x="275" y="324"/>
    </contour>
    <contour>
      <point x="260" y="629" type="curve"/>
      <point x="254" y="620"/>
      <point x="249" y="610"/>
      <point x="246" y="596" type="curve"/>
      <point x="240" y="571"/>
      <point x="243" y="560"/>
      <point x="253" y="560" type="curve"/>
      <point x="257" y="560"/>
      <point x="262" y="561"/>
      <point x="271" y="563" type="curve" smooth="yes"/>
      <point x="300" y="568"/>
      <point x="341" y="572"/>
      <point x="369" y="572" type="curve" smooth="yes"/>
      <point x="414" y="572"/>
      <point x="432" y="568"/>
      <point x="450" y="552" type="curve"/>
      <point x="491" y="581"/>
      <point x="459" y="641"/>
      <point x="408" y="641" type="curve" smooth="yes"/>
      <point x="367" y="641"/>
      <point x="315" y="638"/>
    </contour>
    <contour>
      <point x="496" y="539" type="curve" smooth="yes"/>
      <point x="498" y="549" type="line" smooth="yes"/>
      <point x="509" y="594"/>
      <point x="487" y="641"/>
      <point x="408" y="641" type="curve"/>
      <point x="383" y="641"/>
      <point x="354" y="622"/>
      <point x="346" y="590" type="curve"/>
      <point x="414" y="590"/>
      <point x="431" y="578"/>
      <point x="423" y="546" type="curve" smooth="yes"/>
      <point x="421" y="539" type="line" smooth="yes"/>
      <point x="413" y="506"/>
      <point x="369" y="485"/>
      <point x="301" y="485" type="curve" smooth="yes"/>
      <point x="284" y="485"/>
      <point x="280" y="485"/>
      <point x="276" y="485" type="curve"/>
      <point x="272" y="478"/>
      <point x="270" y="473"/>
      <point x="266" y="458" type="curve" smooth="yes"/>
      <point x="261" y="440"/>
      <point x="263" y="419"/>
      <point x="285" y="419" type="curve" smooth="yes"/>
      <point x="287" y="419" type="line" smooth="yes"/>
      <point x="382" y="419"/>
      <point x="478" y="468"/>
    </contour>
    <contour>
      <point x="412" y="488" type="line"/>
      <point x="383" y="481"/>
      <point x="342" y="453"/>
      <point x="344" y="438" type="curve" smooth="yes"/>
      <point x="352" y="373" type="line" smooth="yes"/>
      <point x="356" y="343"/>
      <point x="373" y="324"/>
      <point x="400" y="324" type="curve" smooth="yes"/>
      <point x="405" y="324" type="line" smooth="yes"/>
      <point x="429" y="324"/>
      <point x="445" y="339"/>
      <point x="453" y="370" type="curve"/>
      <point x="456" y="384"/>
      <point x="457" y="392"/>
      <point x="456" y="402" type="curve"/>
      <point x="454" y="402" type="line"/>
      <point x="449" y="398"/>
      <point x="443" y="397"/>
      <point x="436" y="397" type="curve"/>
      <point x="427" y="397"/>
      <point x="423" y="400"/>
      <point x="419" y="427" type="curve" smooth="yes"/>
    </contour>
    <contour>
      <point x="423" y="760" type="curve" smooth="yes"/>
      <point x="259" y="760"/>
      <point x="142" y="670"/>
      <point x="99" y="495" type="curve" smooth="yes"/>
      <point x="93" y="473" type="line" smooth="yes"/>
      <point x="48" y="292"/>
      <point x="117" y="202"/>
      <point x="283" y="202" type="curve" smooth="yes"/>
      <point x="314" y="202"/>
      <point x="328" y="222"/>
      <point x="333" y="240" type="curve"/>
      <point x="181" y="240"/>
      <point x="107" y="306"/>
      <point x="145" y="459" type="curve" smooth="yes"/>
      <point x="156" y="502" type="line" smooth="yes"/>
      <point x="192" y="646"/>
      <point x="280" y="707"/>
      <point x="410" y="707" type="curve" smooth="yes"/>
      <point x="466" y="707"/>
      <point x="517" y="690"/>
      <point x="564" y="654" type="curve"/>
      <point x="605" y="704"/>
      <point x="502" y="760"/>
    </contour>
    <contour>
      <point x="283" y="202" type="curve" smooth="yes"/>
      <point x="447" y="202"/>
      <point x="564" y="292"/>
      <point x="607" y="465" type="curve" smooth="yes"/>
      <point x="613" y="487" type="line" smooth="yes"/>
      <point x="658" y="670"/>
      <point x="589" y="760"/>
      <point x="423" y="760" type="curve" smooth="yes"/>
      <point x="392" y="760"/>
      <point x="378" y="740"/>
      <point x="373" y="722" type="curve"/>
      <point x="525" y="722"/>
      <point x="599" y="655"/>
      <point x="561" y="502" type="curve" smooth="yes"/>
      <point x="550" y="459" type="line" smooth="yes"/>
      <point x="514" y="316"/>
      <point x="426" y="255"/>
      <point x="296" y="255" type="curve" smooth="yes"/>
      <point x="240" y="255"/>
      <point x="186" y="271"/>
      <point x="142" y="308" type="curve"/>
      <point x="107" y="255"/>
      <point x="204" y="202"/>
    </contour>
  </outline>
</glyph>
